<?xml version="1.0"?>
<svg xmlns="http://www.w3.org/2000/svg" xmlns:lc="http://www.librecad.org" xmlns:xlink="http://www.w3.org/1999/xlink" width="1189mm" height="1200mm" viewBox="0 0 1189 1200">
    <g lc:layername="0" lc:is_locked="false" lc:is_construction="false" fill="none" stroke="black" stroke-width="1">
        <path d="M0,1200 A0,0 0 1,0 0,1200 Z "/>
        <path d="M306,1100 L319,1100 L319,1170 L306,1170 A3,3 0 1,0 300,1170 L300,1200 A300,300 0 0,1 0,900 L40,900 A3,3 0 0,0 40,894 L40,881 L110,881 L110,894 A3,3 0 0,0 110,900 L230.00000539,900 A3,3 0 1,0 230,894 L230,881 L300,881 L319,881 L319,900 L319,970 L305.99999461,970 A2.9999973,2.9999973 0 0,0 300,970 L300,1099.99998474 A3,3 0 1,0 306,1100 Z "/>
        <path d="M0,400 A0,0 0 1,0 0,400 Z "/>
        <path d="M0,800 A0,0 0 1,0 0,800 Z "/>
        <path d="M407,671 L420,671 L420,601 L407,601 A3,3 0 1,1 401,601 L401,571 A300,300 0 0,0 101,871 L141,871 A3,3 0 1,1 141,877 L141,890 L211,890 L211,877 A3,3 0 1,1 211,871 L331.00000539,871 A3,3 0 1,1 331,877 L331,890 L401,890 L420,890 L420,871 L420,801 L406.99999461,801 A2.9999973,2.9999973 0 1,1 401,801 L401,671.00001526 A3,3 0 1,1 407,671 Z "/>
        <path d="M21.00001526,680 L21.00001526,620 L34.00001526,620 A3,3 0 0,0 40.00001526,620 L40.00001526,499.99999461 A3,3 0 0,0 34.00001526,500 L21.00001526,500 L21.00001526,430 L21.00001526,411 L40.00001526,411 L110.00001526,411 L110.00001526,424.00000539 A2.9999973,2.9999973 0 0,0 110.00001526,430 L240,430 A3,3 0 1,0 240.00001526,424 L240.00001526,411 L300.00001526,411 L300.00001526,431 A254.55942332,254.55942332 0 0,1 40.00001526,680 L21.00001526,680 Z "/>
        <path d="M539.99998474,934 L539.99998856,929 A3,3 0 0,0 539.99999237,923 L469.99998856,923 A3,3 0 1,0 469.99998951,929 L469.99998474,934 A3,3 0 0,0 469.99999237,940 L539.99998474,940 A3,3 0 0,0 539.99998474,934 Z "/>
        <path d="M540.00000316,604 L540.00000697,599 A3,3 0 0,0 540.00001079,593 L470.00000697,593 A3,3 0 0,0 470.00000793,599 L470.00000316,604 A3,3 0 0,0 470.00001079,610 L540.00000316,610 A3,3 0 0,0 540.00000316,604 Z "/>
        <path d="M540.00000697,300 A3,3 0 0,0 540.00000697,294 L540.00000316,289 A3,3 0 0,0 540.00000697,283 L480.00000316,283 A3,3 0 0,0 480.00000697,289 L479.99999619,294 A3,3 0 0,0 480.00000381,300 L540.00000697,300 Z "/>
        <path d="M660.00000697,593 A3,3 0 1,0 660.00000602,599 L660.00001079,604 A3,3 0 1,0 660.00000316,610 L749,610 L749,630 L736,630 A3,3 0 0,0 730,629.99998474 L730,889.99998474 A3,3 0 0,0 736,890 L749,890 L749,923 L660.00000381,923 A3,3 0 0,0 660,929 L660.00000763,934 A3,3 0 0,0 660,940 L749,940 L749,960 L736,960 A3,3 0 0,0 730,960 A299.24093786,299.24093786 0 0,0 430,1200 L330,1200 A500,500 0 0,1 530,800 A543.04508025,543.04508025 0 0,1 730,0 L730,29.99998474 A3,3 0 1,0 736,30 L749,30 L749,100 L736,100 A3,3 0 0,0 730,100 L730,259.99998474 A3,3 0 0,0 736,260 L749,260 L749,283 L660.00000381,283 A3,3 0 0,0 660,289 L660.00001079,294 A3,3 0 1,0 660.00000316,300 L749,300 L749,330 L736,330 A3,3 0 1,0 730,330 L730,559.99998474 A3,3 0 0,0 736,560 L749,560 L749,593 L660.00000697,593 Z "/>
        <line x1="770" y1="890" x2="783" y2="889.99998434"/>
        <line x1="770" y1="30" x2="783" y2="30.00002329"/>
        <line x1="783" y1="560" x2="770" y2="560"/>
        <path d="M1039,294 L1038.99999619,289 A3,3 0 0,0 1039,283 L978.99999619,283 A3,3 0 0,0 979,289 L978.99998921,294 A3,3 0 1,0 978.99999684,300 L1039,300 A3,3 0 0,0 1039,294 Z "/>
        <path d="M978.99999398,599 L978.99998921,604 A3,3 0 1,0 978.99999684,610 L1048.99998921,610 A3,3 0 0,0 1048.99999684,604 L1048.9999854,599 A3,3 0 0,0 1049,593 L978.99999619,593 A3,3 0 1,0 978.99999398,599 Z "/>
        <path d="M783,100 A3,3 0 1,0 789,100.00007615 L789,29.99997079 A3,3 0 0,0 783,30.00002329 L770,30 L770,0 L789,0 A543.04508025,543.04508025 0 0,1 989,800 A500,500 0 0,1 1189,1200 L1089,1200 A299.24093786,299.24093786 0 0,0 789,960 L789,940 L859,940 A3,3 0 0,0 858.99999237,934 L859,929 A3,3 0 0,0 858.99999619,923 L789,923 L789,890.00000763 A3,3 0 0,0 783,889.99998434 L770,890 L770,630 L783,630 A3,3 0 0,0 789,630.00007615 L789,610 L858.99999684,610 A3,3 0 1,0 858.99998921,604 L859,599 A3,3 0 0,0 858.99999303,593 L789,593 L789,560.00002289 A3,3 0 1,0 783,560 L770,560 L770,330 L783,330 A3,3 0 0,0 789,330.00007615 L789,300 L858.99999684,300 A3,3 0 1,0 858.99998921,294 L858.99999398,289 A3,3 0 0,0 858.99999619,283 L789,283 L789,259.99997079 A3,3 0 0,0 783,260.00002329 L770,260 L770,100 L783,100 Z "/>
        <path d="M1048.99999619,929 A3,3 0 0,0 1049,923 L978.99999619,923 A3,3 0 0,0 978.99999714,929 L978.99999237,934 A3,3 0 0,0 979,940 L1048.99999237,940 A3,3 0 0,0 1048.99999237,934 L1048.99999619,929 Z "/>
        <path d="M1020,620 L1020,620 L1020,620 L1020,620 L1020,620 Z "/>
    </g>
</svg>
