999
dxfrw 0.6.3
  0
SECTION
  2
HEADER
  9
$ACADVER
  1
AC1021
  9
$DWGCODEPAGE
  3
ANSI_1252
  9
$INSBASE
 10
0
 20
0
 30
0
  9
$EXTMIN
 10
0
 20
-1.4210854715202e-13
 30
0
  9
$EXTMAX
 10
1189
 20
1200
 30
0
  9
$LIMMIN
 10
0
 20
0
  9
$LIMMAX
 10
420
 20
297
  9
$ORTHOMODE
 70
    0
  9
$REGENMODE
 70
    1
  9
$FILLMODE
 70
    1
  9
$QTEXTMODE
 70
    0
  9
$MIRRTEXT
 70
    0
  9
$LTSCALE
 40
1
  9
$ATTMODE
 70
    0
  9
$TEXTSIZE
 40
2.5
  9
$TRACEWID
 40
15.68
  9
$TEXTSTYLE
  7
STANDARD
  9
$CLAYER
  8
0
  9
$CELTYPE
  6
BYLAYER
  9
$CECOLOR
 62
  256
  9
$CELTSCALE
 40
1
  9
$DISPSILH
 70
    0
  9
$DIMSCALE
 40
2.5
  9
$DIMASZ
 40
2.5
  9
$DIMEXO
 40
0.625
  9
$DIMDLI
 40
3.75
  9
$DIMRND
 40
0
  9
$DIMDLE
 40
0
  9
$DIMEXE
 40
1.25
  9
$DIMTP
 40
0
  9
$DIMTM
 40
0
  9
$DIMTXT
 40
2.5
  9
$DIMCEN
 40
2.5
  9
$DIMTSZ
 40
0
  9
$DIMTOL
 70
    0
  9
$DIMLIM
 70
    0
  9
$DIMTIH
 70
    0
  9
$DIMTOH
 70
    0
  9
$DIMSE1
 70
    0
  9
$DIMSE2
 70
    0
  9
$DIMTAD
 70
    1
  9
$DIMZIN
 70
    8
  9
$DIMBLK
  1

  9
$DIMASO
 70
    1
  9
$DIMSHO
 70
    1
  9
$DIMPOST
  1

  9
$DIMAPOST
  1

  9
$DIMALT
 70
    0
  9
$DIMALTD
 70
    3
  9
$DIMALTF
 40
0.03937
  9
$DIMLFAC
 40
1
  9
$DIMTOFL
 70
    1
  9
$DIMTVP
 40
0
  9
$DIMTIX
 70
    0
  9
$DIMSOXD
 70
    0
  9
$DIMSAH
 70
    0
  9
$DIMBLK1
  1

  9
$DIMBLK2
  1

  9
$DIMSTYLE
  2
STANDARD
  9
$DIMCLRD
 70
    0
  9
$DIMCLRE
 70
    0
  9
$DIMCLRT
 70
    0
  9
$DIMTFAC
 40
1
  9
$DIMGAP
 40
0.625
  9
$DIMJUST
 70
    0
  9
$DIMSD1
 70
    0
  9
$DIMSD2
 70
    0
  9
$DIMTOLJ
 70
    0
  9
$DIMTZIN
 70
    8
  9
$DIMALTZ
 70
    0
  9
$DIMALTTZ
 70
    0
  9
$DIMUPT
 70
    0
  9
$DIMDEC
 70
    2
  9
$DIMTDEC
 70
    2
  9
$DIMALTU
 70
    2
  9
$DIMALTTD
 70
    3
  9
$DIMTXSTY
  7
STANDARD
  9
$DIMAUNIT
 70
    0
  9
$DIMADEC
 70
    0
  9
$DIMALTRND
 40
0
  9
$DIMAZIN
 70
    0
  9
$DIMDSEP
 70
   44
  9
$DIMATFIT
 70
    3
  9
$DIMFRAC
 70
    0
  9
$DIMLDRBLK
  1
STANDARD
  9
$DIMLUNIT
 70
    2
  9
$DIMLWD
 70
   -2
  9
$DIMLWE
 70
   -2
  9
$DIMTMOVE
 70
    0
  9
$DIMFXL
 40
1
  9
$DIMFXLON
 70
    0
  9
$DIMJOGANG
 40
0.7854
  9
$DIMTFILL
 70
    0
  9
$DIMTFILLCLR
 70
    0
  9
$DIMARCSYM
 70
    0
  9
$DIMLTYPE
  6

  9
$DIMLTEX1
  6

  9
$DIMLTEX2
  6

  9
$LUNITS
 70
    2
  9
$LUPREC
 70
    4
  9
$SKETCHINC
 40
1
  9
$FILLETRAD
 40
0
  9
$AUNITS
 70
    0
  9
$AUPREC
 70
    2
  9
$MENU
  1
.
  9
$ELEVATION
 40
0
  9
$PELEVATION
 40
0
  9
$THICKNESS
 40
0
  9
$LIMCHECK
 70
    0
  9
$CHAMFERA
 40
0
  9
$CHAMFERB
 40
0
  9
$CHAMFERC
 40
0
  9
$CHAMFERD
 40
0
  9
$SKPOLY
 70
    0
  9
$USRTIMER
 70
    1
  9
$ANGBASE
 50
0
  9
$ANGDIR
 70
    0
  9
$PDMODE
 70
   34
  9
$PDSIZE
 40
0
  9
$PLINEWID
 40
0
  9
$SPLFRAME
 70
    0
  9
$SPLINETYPE
 70
    2
  9
$SPLINESEGS
 70
    8
  9
$HANDSEED
  5
20000
  9
$SURFTAB1
 70
    6
  9
$SURFTAB2
 70
    6
  9
$SURFTYPE
 70
    6
  9
$SURFU
 70
    6
  9
$SURFV
 70
    6
  9
$UCSBASE
  2

  9
$UCSNAME
  2

  9
$UCSORG
 10
0
 20
0
 30
0
  9
$UCSXDIR
 10
1
 20
0
 30
0
  9
$UCSYDIR
 10
0
 20
1
 30
0
  9
$UCSORTHOREF
  2

  9
$UCSORTHOVIEW
 70
    0
  9
$UCSORGTOP
 10
0
 20
0
 30
0
  9
$UCSORGBOTTOM
 10
0
 20
0
 30
0
  9
$UCSORGLEFT
 10
0
 20
0
 30
0
  9
$UCSORGRIGHT
 10
0
 20
0
 30
0
  9
$UCSORGFRONT
 10
0
 20
0
 30
0
  9
$UCSORGBACK
 10
0
 20
0
 30
0
  9
$PUCSBASE
  2

  9
$PUCSNAME
  2

  9
$PUCSORG
 10
0
 20
0
 30
0
  9
$PUCSXDIR
 10
1
 20
0
 30
0
  9
$PUCSYDIR
 10
0
 20
1
 30
0
  9
$PUCSORTHOREF
  2

  9
$PUCSORTHOVIEW
 70
    0
  9
$PUCSORGTOP
 10
0
 20
0
 30
0
  9
$PUCSORGBOTTOM
 10
0
 20
0
 30
0
  9
$PUCSORGLEFT
 10
0
 20
0
 30
0
  9
$PUCSORGRIGHT
 10
0
 20
0
 30
0
  9
$PUCSORGFRONT
 10
0
 20
0
 30
0
  9
$PUCSORGBACK
 10
0
 20
0
 30
0
  9
$USERI1
 70
    0
  9
$USERI2
 70
    0
  9
$USERI3
 70
    0
  9
$USERI4
 70
    0
  9
$USERI5
 70
    0
  9
$USERR1
 40
0
  9
$USERR2
 40
0
  9
$USERR3
 40
0
  9
$USERR4
 40
0
  9
$USERR5
 40
0
  9
$WORLDVIEW
 70
    1
  9
$SHADEDGE
 70
    3
  9
$SHADEDIF
 70
   70
  9
$TILEMODE
 70
    1
  9
$MAXACTVP
 70
   64
  9
$PINSBASE
 10
0
 20
0
 30
0
  9
$PLIMCHECK
 70
    0
  9
$PEXTMIN
 10
0
 20
0
 30
0
  9
$PEXTMAX
 10
0
 20
0
 30
0
  9
$GRIDMODE
 70
    1
  9
$SNAPSTYLE
 70
    0
  9
$PLIMMIN
 10
0
 20
0
  9
$PLIMMAX
 10
210
 20
297
  9
$UNITMODE
 70
    0
  9
$VISRETAIN
 70
    1
  9
$PLINEGEN
 70
    0
  9
$PSLTSCALE
 70
    1
  9
$TREEDEPTH
 70
 3020
  9
$CMLSTYLE
  2
Standard
  9
$CMLJUST
 70
    0
  9
$CMLSCALE
 40
20
  9
$PROXYGRAPHICS
 70
    1
  9
$MEASUREMENT
 70
    1
  9
$CELWEIGHT
370
   -1
  9
$ENDCAPS
280
    0
  9
$JOINSTYLE
280
    0
  9
$LWDISPLAY
290
    0
  9
$INSUNITS
 70
    4
  9
$HYPERLINKBASE
  1

  9
$STYLESHEET
  1

  9
$XEDIT
290
    1
  9
$CEPSNTYPE
380
    0
  9
$PSTYLEMODE
290
    1
  9
$EXTNAMES
290
    1
  9
$PSVPSCALE
 40
1
  9
$OLESTARTUP
290
    0
  9
$SORTENTS
280
  127
  9
$INDEXCTL
280
    0
  9
$HIDETEXT
280
    1
  9
$XCLIPFRAME
290
    0
  9
$HALOGAP
280
    0
  9
$OBSCOLOR
 70
  257
  9
$OBSLTYPE
280
    0
  9
$INTERSECTIONDISPLAY
280
    0
  9
$INTERSECTIONCOLOR
 70
  257
  9
$DIMASSOC
280
    1
  9
$PROJECTNAME
  1

  9
$CAMERADISPLAY
290
    0
  9
$LENSLENGTH
 40
50
  9
$CAMERAHEIGHT
 40
0
  9
$STEPSPERSEC
 40
2
  9
$STEPSIZE
 40
50
  9
$3DDWFPREC
 40
2
  9
$PSOLWIDTH
 40
5
  9
$PSOLHEIGHT
 40
80
  9
$LOFTANG1
 40
1.570796326794897
  9
$LOFTANG2
 40
1.570796326794897
  9
$LOFTMAG1
 40
0
  9
$LOFTMAG2
 40
0
  9
$LOFTPARAM
 70
    7
  9
$LOFTNORMALS
280
    1
  9
$LATITUDE
 40
1
  9
$LONGITUDE
 40
1
  9
$NORTHDIRECTION
 40
0
  9
$TIMEZONE
 70
-8000
  9
$LIGHTGLYPHDISPLAY
280
    1
  9
$TILEMODELIGHTSYNCH
280
    1
  9
$SOLIDHIST
280
    1
  9
$SHOWHIST
280
    1
  9
$DWFFRAME
280
    2
  9
$DGNFRAME
280
    0
  9
$REALWORLDSCALE
290
    1
  9
$INTERFERECOLOR
 62
    1
  9
$CSHADOW
280
    0
  9
$SHADOWPLANELOCATION
 40
0
  0
ENDSEC
  0
SECTION
  2
CLASSES
  0
ENDSEC
  0
SECTION
  2
TABLES
  0
TABLE
  2
VPORT
  5
8
330
0
100
AcDbSymbolTable
 70
    1
  0
VPORT
  5
31
330
2
100
AcDbSymbolTableRecord
100
AcDbViewportTableRecord
  2
*ACTIVE
 70
    0
 10
0
 20
0
 11
1
 21
1
 12
820.1654602252029
 22
778.0488555109357
 13
0
 23
0
 14
10
 24
10
 15
10
 25
10
 16
0
 26
0
 36
1
 17
0
 27
0
 37
0
 40
2271.341103362409
 41
1.042290175666884
 42
50
 43
0
 44
0
 50
0
 51
0
 71
    0
 72
  100
 73
    1
 74
    3
 75
    0
 76
    1
 77
    0
 78
    0
281
    0
 65
    1
110
0
120
0
130
0
111
1
121
0
131
0
112
0
122
1
132
0
 79
    0
146
0
348
10020
 60
    7
 61
    5
292
1
282
    1
141
0
142
0
 63
  250
421
3358443
  0
ENDTAB
  0
TABLE
  2
LTYPE
  5
5
330
0
100
AcDbSymbolTable
 70
    4
  0
LTYPE
  5
14
330
5
100
AcDbSymbolTableRecord
100
AcDbLinetypeTableRecord
  2
ByBlock
 70
    0
  3

 72
   65
 73
    0
 40
0
  0
LTYPE
  5
15
330
5
100
AcDbSymbolTableRecord
100
AcDbLinetypeTableRecord
  2
ByLayer
 70
    0
  3

 72
   65
 73
    0
 40
0
  0
LTYPE
  5
16
330
5
100
AcDbSymbolTableRecord
100
AcDbLinetypeTableRecord
  2
Continuous
 70
    0
  3
Solid line
 72
   65
 73
    0
 40
0
  0
LTYPE
  5
32
330
5
100
AcDbSymbolTableRecord
100
AcDbLinetypeTableRecord
  2
DOT
 70
    0
  3
Dot . . . . . . . . . . . . . . . . . . . . . .
 72
   65
 73
    2
 40
6.35
 49
0
 74
    0
 49
-6.35
 74
    0
  0
LTYPE
  5
33
330
5
100
AcDbSymbolTableRecord
100
AcDbLinetypeTableRecord
  2
DOTTINY
 70
    0
  3
Dot (.15x) .....................................
 72
   65
 73
    2
 40
0.9525
 49
0
 74
    0
 49
-0.9525
 74
    0
  0
LTYPE
  5
34
330
5
100
AcDbSymbolTableRecord
100
AcDbLinetypeTableRecord
  2
DOT2
 70
    0
  3
Dot (.5x) .....................................
 72
   65
 73
    2
 40
3.175
 49
0
 74
    0
 49
-3.175
 74
    0
  0
LTYPE
  5
35
330
5
100
AcDbSymbolTableRecord
100
AcDbLinetypeTableRecord
  2
DOTX2
 70
    0
  3
Dot (2x) .  .  .  .  .  .  .  .  .  .  .  .  .
 72
   65
 73
    2
 40
12.7
 49
0
 74
    0
 49
-12.7
 74
    0
  0
LTYPE
  5
36
330
5
100
AcDbSymbolTableRecord
100
AcDbLinetypeTableRecord
  2
DASHED
 70
    0
  3
Dashed _ _ _ _ _ _ _ _ _ _ _ _ _ _ _ _ _
 72
   65
 73
    2
 40
19.05
 49
12.7
 74
    0
 49
-6.35
 74
    0
  0
LTYPE
  5
37
330
5
100
AcDbSymbolTableRecord
100
AcDbLinetypeTableRecord
  2
DASHEDTINY
 70
    0
  3
Dashed (.15x) _ _ _ _ _ _ _ _ _ _ _ _ _ _ _ _ _
 72
   65
 73
    2
 40
2.8575
 49
1.905
 74
    0
 49
-0.9525
 74
    0
  0
LTYPE
  5
38
330
5
100
AcDbSymbolTableRecord
100
AcDbLinetypeTableRecord
  2
DASHED2
 70
    0
  3
Dashed (.5x) _ _ _ _ _ _ _ _ _ _ _ _ _ _ _ _ _
 72
   65
 73
    2
 40
9.524999999999999
 49
6.35
 74
    0
 49
-3.175
 74
    0
  0
LTYPE
  5
39
330
5
100
AcDbSymbolTableRecord
100
AcDbLinetypeTableRecord
  2
DASHEDX2
 70
    0
  3
Dashed (2x) ____  ____  ____  ____  ____  ___
 72
   65
 73
    2
 40
38.09999999999999
 49
25.4
 74
    0
 49
-12.7
 74
    0
  0
LTYPE
  5
3A
330
5
100
AcDbSymbolTableRecord
100
AcDbLinetypeTableRecord
  2
DASHDOT
 70
    0
  3
Dash dot __ . __ . __ . __ . __ . __ . __ . __
 72
   65
 73
    4
 40
25.4
 49
12.7
 74
    0
 49
-6.35
 74
    0
 49
0
 74
    0
 49
-6.35
 74
    0
  0
LTYPE
  5
3B
330
5
100
AcDbSymbolTableRecord
100
AcDbLinetypeTableRecord
  2
DASHDOTTINY
 70
    0
  3
Dash dot (.15x) _._._._._._._._._._._._._._._.
 72
   65
 73
    4
 40
3.81
 49
1.905
 74
    0
 49
-0.9525
 74
    0
 49
0
 74
    0
 49
-0.9525
 74
    0
  0
LTYPE
  5
3C
330
5
100
AcDbSymbolTableRecord
100
AcDbLinetypeTableRecord
  2
DASHDOT2
 70
    0
  3
Dash dot (.5x) _._._._._._._._._._._._._._._.
 72
   65
 73
    4
 40
12.7
 49
6.35
 74
    0
 49
-3.175
 74
    0
 49
0
 74
    0
 49
-3.175
 74
    0
  0
LTYPE
  5
3D
330
5
100
AcDbSymbolTableRecord
100
AcDbLinetypeTableRecord
  2
DASHDOTX2
 70
    0
  3
Dash dot (2x) ____  .  ____  .  ____  .  ___
 72
   65
 73
    4
 40
50.8
 49
25.4
 74
    0
 49
-12.7
 74
    0
 49
0
 74
    0
 49
-12.7
 74
    0
  0
LTYPE
  5
3E
330
5
100
AcDbSymbolTableRecord
100
AcDbLinetypeTableRecord
  2
DIVIDE
 70
    0
  3
Divide ____ . . ____ . . ____ . . ____ . . ____
 72
   65
 73
    6
 40
31.75
 49
12.7
 74
    0
 49
-6.35
 74
    0
 49
0
 74
    0
 49
-6.35
 74
    0
 49
0
 74
    0
 49
-6.35
 74
    0
  0
LTYPE
  5
3F
330
5
100
AcDbSymbolTableRecord
100
AcDbLinetypeTableRecord
  2
DIVIDETINY
 70
    0
  3
Divide (.15x) __..__..__..__..__..__..__..__.._
 72
   65
 73
    6
 40
4.7625
 49
1.905
 74
    0
 49
-0.9525
 74
    0
 49
0
 74
    0
 49
-0.9525
 74
    0
 49
0
 74
    0
 49
-0.9525
 74
    0
  0
LTYPE
  5
40
330
5
100
AcDbSymbolTableRecord
100
AcDbLinetypeTableRecord
  2
DIVIDE2
 70
    0
  3
Divide (.5x) __..__..__..__..__..__..__..__.._
 72
   65
 73
    6
 40
15.875
 49
6.35
 74
    0
 49
-3.175
 74
    0
 49
0
 74
    0
 49
-3.175
 74
    0
 49
0
 74
    0
 49
-3.175
 74
    0
  0
LTYPE
  5
41
330
5
100
AcDbSymbolTableRecord
100
AcDbLinetypeTableRecord
  2
DIVIDEX2
 70
    0
  3
Divide (2x) ________  .  .  ________  .  .  _
 72
   65
 73
    6
 40
63.5
 49
25.4
 74
    0
 49
-12.7
 74
    0
 49
0
 74
    0
 49
-12.7
 74
    0
 49
0
 74
    0
 49
-12.7
 74
    0
  0
LTYPE
  5
42
330
5
100
AcDbSymbolTableRecord
100
AcDbLinetypeTableRecord
  2
BORDER
 70
    0
  3
Border __ __ . __ __ . __ __ . __ __ . __ __ .
 72
   65
 73
    6
 40
44.45
 49
12.7
 74
    0
 49
-6.35
 74
    0
 49
12.7
 74
    0
 49
-6.35
 74
    0
 49
0
 74
    0
 49
-6.35
 74
    0
  0
LTYPE
  5
43
330
5
100
AcDbSymbolTableRecord
100
AcDbLinetypeTableRecord
  2
BORDERTINY
 70
    0
  3
Border (.15x) __.__.__.__.__.__.__.__.__.__.__.
 72
   65
 73
    6
 40
6.6675
 49
1.905
 74
    0
 49
-0.9525
 74
    0
 49
1.905
 74
    0
 49
-0.9525
 74
    0
 49
0
 74
    0
 49
-0.9525
 74
    0
  0
LTYPE
  5
44
330
5
100
AcDbSymbolTableRecord
100
AcDbLinetypeTableRecord
  2
BORDER2
 70
    0
  3
Border (.5x) __.__.__.__.__.__.__.__.__.__.__.
 72
   65
 73
    6
 40
22.225
 49
6.35
 74
    0
 49
-3.175
 74
    0
 49
6.35
 74
    0
 49
-3.175
 74
    0
 49
0
 74
    0
 49
-3.175
 74
    0
  0
LTYPE
  5
45
330
5
100
AcDbSymbolTableRecord
100
AcDbLinetypeTableRecord
  2
BORDERX2
 70
    0
  3
Border (2x) ____  ____  .  ____  ____  .  ___
 72
   65
 73
    6
 40
88.89999999999999
 49
25.4
 74
    0
 49
-12.7
 74
    0
 49
25.4
 74
    0
 49
-12.7
 74
    0
 49
0
 74
    0
 49
-12.7
 74
    0
  0
LTYPE
  5
46
330
5
100
AcDbSymbolTableRecord
100
AcDbLinetypeTableRecord
  2
CENTER
 70
    0
  3
Center ____ _ ____ _ ____ _ ____ _ ____ _ ____
 72
   65
 73
    4
 40
50.8
 49
31.75
 74
    0
 49
-6.35
 74
    0
 49
6.35
 74
    0
 49
-6.35
 74
    0
  0
LTYPE
  5
47
330
5
100
AcDbSymbolTableRecord
100
AcDbLinetypeTableRecord
  2
CENTERTINY
 70
    0
  3
Center (.15x) ___ _ ___ _ ___ _ ___ _ ___ _ ___
 72
   65
 73
    4
 40
7.619999999999999
 49
4.7625
 74
    0
 49
-0.9525
 74
    0
 49
0.9525
 74
    0
 49
-0.9525
 74
    0
  0
LTYPE
  5
48
330
5
100
AcDbSymbolTableRecord
100
AcDbLinetypeTableRecord
  2
CENTER2
 70
    0
  3
Center (.5x) ___ _ ___ _ ___ _ ___ _ ___ _ ___
 72
   65
 73
    4
 40
28.575
 49
19.05
 74
    0
 49
-3.175
 74
    0
 49
3.175
 74
    0
 49
-3.175
 74
    0
  0
LTYPE
  5
49
330
5
100
AcDbSymbolTableRecord
100
AcDbLinetypeTableRecord
  2
CENTERX2
 70
    0
  3
Center (2x) ________  __  ________  __  _____
 72
   65
 73
    4
 40
101.6
 49
63.5
 74
    0
 49
-12.7
 74
    0
 49
12.7
 74
    0
 49
-12.7
 74
    0
  0
ENDTAB
  0
TABLE
  2
LAYER
  5
2
330
0
100
AcDbSymbolTable
 70
    1
  0
LAYER
  5
10
330
2
100
AcDbSymbolTableRecord
100
AcDbLayerTableRecord
  2
0
 70
    0
 62
    7
  6
CONTINUOUS
370
    0
390
F
  0
LAYER
  5
4A
330
2
100
AcDbSymbolTableRecord
100
AcDbLayerTableRecord
  2
tabs
 70
    0
 62
    1
  6
CONTINUOUS
370
    0
390
F
  0
ENDTAB
  0
TABLE
  2
STYLE
  5
3
330
0
100
AcDbSymbolTable
 70
    3
  0
STYLE
  5
4B
330
2
100
AcDbSymbolTableRecord
100
AcDbTextStyleTableRecord
  2
Standard
 70
    0
 40
0
 41
1
 50
0
 71
    0
 42
1
  3
txt
  4

  0
ENDTAB
  0
TABLE
  2
VIEW
  5
6
330
0
100
AcDbSymbolTable
 70
    0
  0
ENDTAB
  0
TABLE
  2
UCS
  5
7
330
0
100
AcDbSymbolTable
 70
    0
  0
ENDTAB
  0
TABLE
  2
APPID
  5
9
330
0
100
AcDbSymbolTable
 70
    1
  0
APPID
  5
12
330
9
100
AcDbSymbolTableRecord
100
AcDbRegAppTableRecord
  2
ACAD
 70
    0
  0
APPID
  5
4C
330
9
100
AcDbSymbolTableRecord
100
AcDbRegAppTableRecord
  2
LibreCad
 70
    0
  0
ENDTAB
  0
TABLE
  2
DIMSTYLE
  5
A
330
0
100
AcDbSymbolTable
 70
    1
100
AcDbDimStyleTable
 71
    1
  0
DIMSTYLE
105
4D
330
A
100
AcDbSymbolTableRecord
100
AcDbDimStyleTableRecord
  2
Standard
 70
    0
 40
2.5
 41
2.5
 42
0.625
 43
0.38
 44
1.25
 45
0
 46
0
 47
0
 48
0
 49
1
140
2.5
141
0.09
142
0
143
25.4
144
1
145
0
146
1
147
0.625
148
0
 71
    0
 72
    0
 73
    0
 74
    1
 75
    0
 76
    0
 77
    0
 78
    8
 79
    0
170
    0
171
    2
172
    0
173
    0
174
    0
175
    0
176
    0
177
    0
178
    0
179
    0
271
    2
272
    4
273
    2
274
    2
275
    0
276
    0
277
    2
278
   44
279
    0
280
    0
281
    0
282
    0
283
    1
284
    0
285
    0
286
    0
288
    0
289
    3
340
STANDARD
341

371
   -2
372
   -2
  0
ENDTAB
  0
TABLE
  2
BLOCK_RECORD
  5
1
330
0
100
AcDbSymbolTable
 70
    2
  0
BLOCK_RECORD
  5
1F
330
1
100
AcDbSymbolTableRecord
100
AcDbBlockTableRecord
  2
*Model_Space
 70
    0
280
    1
281
    0
  0
BLOCK_RECORD
  5
1E
330
1
100
AcDbSymbolTableRecord
100
AcDbBlockTableRecord
  2
*Paper_Space
 70
    0
280
    1
281
    0
  0
BLOCK_RECORD
  5
4E
330
1
100
AcDbSymbolTableRecord
100
AcDbBlockTableRecord
  2
Bottom Shelf
 70
    0
280
    1
281
    0
  0
ENDTAB
  0
ENDSEC
  0
SECTION
  2
BLOCKS
  0
BLOCK
  5
20
330
1F
100
AcDbEntity
  8
0
100
AcDbBlockBegin
  2
*Model_Space
 70
    0
 10
0
 20
0
 30
0
  3
*Model_Space
  1

  0
ENDBLK
  5
21
330
1F
100
AcDbEntity
  8
0
100
AcDbBlockEnd
  0
BLOCK
  5
1C
330
1B
100
AcDbEntity
  8
0
100
AcDbBlockBegin
  2
*Paper_Space
 70
    0
 10
0
 20
0
 30
0
  3
*Paper_Space
  1

  0
ENDBLK
  5
1D
330
1F
100
AcDbEntity
  8
0
100
AcDbBlockEnd
  0
BLOCK
  5
4F
330
4E
100
AcDbEntity
  8
0
100
AcDbBlockBegin
  2
Bottom Shelf
 70
    0
 10
0
 20
0
  3
Bottom Shelf
  1

  0
LWPOLYLINE
  5
51
100
AcDbEntity
  8
0
  6
ByLayer
 62
  256
370
   -1
100
AcDbPolyline
 90
   23
 70
    1
 43
0
 10
300.0000000000001
 20
100.0000152587888
 42
1
 10
305.9999999999807
 20
100
 10
319
 20
100
 10
319
 20
30
 10
305.9999999999807
 20
29.99999999999994
 42
1.000000000000001
 10
300
 20
30
 10
300.0000000000002
 20
-1.13686837721616e-13
 42
-0.414213562373095
 10
-1.13686837721616e-13
 20
300.0000000000003
 10
40
 20
300
 42
0.9999999999999999
 10
40
 20
306.0000000000024
 10
40
 20
319
 10
110
 20
319
 10
110
 20
306
 42
0.9999999999999999
 10
110
 20
300
 10
230.0000053947965
 20
300
 42
1.000000000000005
 10
230
 20
305.9999999999804
 10
230
 20
319
 10
300
 20
319
 10
319
 20
319
 10
319
 20
300
 10
319
 20
230
 10
305.9999946052035
 20
229.9999999999999
 42
1
 10
300
 20
230
  0
ENDBLK
  5
50
330
4E
100
AcDbEntity
  8
0
100
AcDbBlockEnd
  0
ENDSEC
  0
SECTION
  2
ENTITIES
  0
LWPOLYLINE
  5
52
100
AcDbEntity
  8
0
  6
ByLayer
 62
  256
370
   -1
100
AcDbPolyline
 90
    1
 70
    1
 43
0
 10
0
 20
0
 42
1.633123935319537e+16
  0
LWPOLYLINE
  5
53
100
AcDbEntity
  8
0
  6
ByLayer
 62
  256
370
   -1
100
AcDbPolyline
 90
    1
 70
    1
 43
0
 10
0
 20
800
 42
1.633123935319537e+16
  0
LWPOLYLINE
  5
54
100
AcDbEntity
  8
0
  6
ByLayer
 62
  256
370
   -1
100
AcDbPolyline
 90
    1
 70
    1
 43
0
 10
0
 20
400
 42
1.633123935319537e+16
  0
LWPOLYLINE
  5
55
100
AcDbEntity
  8
0
  6
ByLayer
 62
  256
370
   -1
100
AcDbPolyline
 90
   23
 70
    1
 43
0
 10
406.9999999999809
 20
529
 10
420
 20
529
 10
420
 20
599
 10
406.9999999999807
 20
599
 42
-0.9999999999999999
 10
401
 20
599
 10
401.0000000000001
 20
628.9999999999998
 42
0.4142135623730949
 10
100.9999999999997
 20
328.9999999999997
 10
141
 20
329
 42
-0.9999999999999999
 10
141
 20
322.9999999999976
 10
141
 20
310
 10
211
 20
310
 10
211
 20
323
 42
-0.9999999999999999
 10
211
 20
329
 10
331.0000053947965
 20
329
 42
-0.9999999999999999
 10
331
 20
323.0000000000196
 10
331
 20
310
 10
401
 20
310
 10
420
 20
310
 10
420
 20
329
 10
420
 20
399
 10
406.9999946052035
 20
399
 42
-0.9999999999999999
 10
401
 20
399
 10
401
 20
528.9999847412112
 42
-0.9999999999999999
  0
LWPOLYLINE
  5
56
100
AcDbEntity
  8
0
  6
ByLayer
 62
  256
370
   -1
100
AcDbPolyline
 90
    8
 70
    1
 43
0
 10
539.9999847412108
 20
266.0000000000001
 10
539.9999885559079
 20
271.0000000000001
 42
0.9999999999999999
 10
539.9999923706049
 20
277.0000000000001
 10
469.9999885559077
 20
276.9999999999902
 42
0.9999999999999999
 10
469.9999895095821
 20
271.0000000000098
 10
469.9999847412107
 20
266.0000000000001
 42
0.9999999999999997
 10
469.9999923706049
 20
260.0000000000001
 10
539.9999847412108
 20
259.9999999999997
 42
0.9999999999999999
  0
LWPOLYLINE
  5
57
100
AcDbEntity
  8
0
  6
ByLayer
 62
  256
370
   -1
100
AcDbPolyline
 90
    8
 70
    1
 43
0
 10
540.000003160199
 20
596
 10
540.000006974896
 20
601
 42
0.9999999999999999
 10
540.000010789593
 20
607
 10
470.0000069748959
 20
606.9999999999902
 42
0.9999999999999994
 10
470.0000079285702
 20
601.0000000000098
 10
470.0000031601988
 20
596
 42
0.9999999999999997
 10
470.000010789593
 20
590
 10
540.000003160199
 20
589.9999999999998
 42
0.9999999999999999
  0
LWPOLYLINE
  5
58
100
AcDbEntity
  8
0
  6
ByLayer
 62
  256
370
   -1
100
AcDbPolyline
 90
    8
 70
    1
 43
0
 10
540.0000069748962
 20
900
 42
0.9999999999999999
 10
540.0000069748962
 20
906
 10
540.0000031601992
 20
911
 42
0.9999999999999999
 10
540.0000069748962
 20
917
 10
480.0000031601992
 20
916.9999999999902
 42
0.9999999999999999
 10
480.0000069748962
 20
911
 10
479.9999961853032
 20
906
 42
0.9999999999999997
 10
480.0000038146974
 20
900
  0
LWPOLYLINE
  5
59
100
AcDbEntity
  8
0
  6
ByLayer
 62
  256
370
   -1
100
AcDbPolyline
 90
   46
 70
    1
 43
0
 10
660.0000069748961
 20
606.9999999999161
 42
1.000000000000019
 10
660.0000060212217
 20
600.9999999999259
 10
660.0000107895933
 20
595.9999999999225
 42
1.000000000000019
 10
660.0000031601988
 20
590
 10
749
 20
590
 10
749
 20
570
 10
735.9999999999807
 20
570
 42
0.9999999999999808
 10
730
 20
570.0000152587892
 10
730.0000000000002
 20
310.0000152587888
 42
0.9999999999999903
 10
735.9999999999807
 20
310
 10
749
 20
310
 10
749
 20
277
 10
660.0000038146972
 20
276.9999999999902
 42
0.9999999999999808
 10
660
 20
271
 10
660.0000076293944
 20
265.9999999999225
 42
0.9999999999999806
 10
660
 20
260
 10
749
 20
260
 10
749
 20
240
 10
735.9999999999807
 20
239.9999999999999
 42
0.9999999999999999
 10
730
 20
239.9999999999999
 42
0.3633416547566613
 10
430
 20
9.237055564881302e-14
 10
330.0000000000003
 20
7.380242957688631e-13
 42
-0.2360679774997894
 10
530
 20
400.0000000000002
 42
-0.4599349224704117
 10
729.9999999999999
 20
1200
 10
730.0000000000002
 20
1170.000015258789
 42
1
 10
735.9999999999807
 20
1170
 10
749
 20
1170
 10
749
 20
1100
 10
735.9999999999807
 20
1100
 42
0.9999999999999999
 10
730
 20
1100
 10
730.0000000000002
 20
940.0000152587888
 42
0.9999999999999999
 10
735.9999999999807
 20
940
 10
749
 20
940.0000000000001
 10
749
 20
917
 10
660.0000038146973
 20
916.9999999999902
 42
0.9999999999999997
 10
660
 20
911
 10
660.0000107895933
 20
905.9999999999225
 42
1.000000000000019
 10
660.0000031601988
 20
900
 10
749
 20
900
 10
749
 20
870
 10
735.9999999999807
 20
870
 42
1.000000000000019
 10
730
 20
869.9999999999999
 10
730.0000000000002
 20
640.0000152587888
 42
0.9999999999999999
 10
735.9999999999807
 20
640
 10
749
 20
640
 10
749
 20
607
  0
LINE
  5
5A
100
AcDbEntity
  8
0
  6
ByLayer
 62
  256
370
   -1
100
AcDbLine
 10
770
 20
310
 11
783.0000000000894
 21
310.000015660336
  0
LINE
  5
5B
100
AcDbEntity
  8
0
  6
ByLayer
 62
  256
370
   -1
100
AcDbLine
 10
770
 20
1170
 11
782.9999999999211
 21
1169.999976710269
  0
LINE
  5
5C
100
AcDbEntity
  8
0
  6
ByLayer
 62
  256
370
   -1
100
AcDbLine
 10
782.9999999999116
 20
640
 11
770
 21
640
  0
LWPOLYLINE
  5
5D
100
AcDbEntity
  8
0
  6
ByLayer
 62
  256
370
   -1
100
AcDbPolyline
 90
    8
 70
    1
 43
0
 10
1039
 20
906
 10
1038.999996185303
 20
911
 42
0.9999999999999626
 10
1039
 20
917
 10
978.999996185303
 20
916.9999999999902
 42
0.9999999999999999
 10
979
 20
911
 10
978.999989210407
 20
906
 42
1.000000000000019
 10
978.9999968398012
 20
900
 10
1039
 20
900
 42
0.9999999999999999
  0
LWPOLYLINE
  5
5E
100
AcDbEntity
  8
0
  6
ByLayer
 62
  256
370
   -1
100
AcDbPolyline
 90
    8
 70
    1
 43
0
 10
978.9999939787784
 20
601.0000000000031
 10
978.999989210407
 20
596
 42
1.000000000000019
 10
978.9999968398012
 20
590
 10
1048.999989210407
 20
589.9999999999998
 42
0.9999999999999999
 10
1048.999996839801
 20
595.9999999999611
 10
1048.99998539571
 20
601.0000000000132
 42
0.9999999999999621
 10
1049
 20
607
 10
978.999996185303
 20
606.9999999999902
 42
1.000000000000019
  0
LWPOLYLINE
  5
5F
100
AcDbEntity
  8
0
  6
ByLayer
 62
  256
370
   -1
100
AcDbPolyline
 90
   45
 70
    1
 43
0
 10
783.0000000000193
 20
1100
 42
1
 10
788.9999999994391
 20
1099.999923852276
 10
788.9999999999998
 20
1170.000029208581
 42
0.9999999999999997
 10
782.9999999999211
 20
1169.999976710269
 10
770
 20
1170
 10
770
 20
1200
 10
789
 20
1200
 42
-0.4599349224704118
 10
988.9999999999998
 20
400.0000000000009
 42
-0.2360679774997897
 10
1189
 20
2.842170943040401e-13
 10
1089
 20
-1.4210854715202e-13
 42
0.363341654756661
 10
789.0000000000001
 20
239.9999999999996
 10
789.0000000000251
 20
260
 10
859
 20
260
 42
0.9999999999999812
 10
858.9999923706056
 20
265.9999999999227
 10
859
 20
271
 42
0.9999999999999812
 10
858.9999961853028
 20
276.9999999999905
 10
789
 20
277
 10
788.9999999999998
 20
309.9999923706055
 42
0.9999999999999901
 10
783.0000000000894
 20
310.000015660336
 10
770
 20
310
 10
770
 20
570
 10
783.0000000000193
 20
570
 42
0.9999999999999806
 10
788.9999999994391
 20
569.9999238522759
 10
789
 20
590
 10
858.9999968398012
 20
590
 42
1.00000000000002
 10
858.9999892104067
 20
595.9999999999227
 10
859
 20
600.9999999999999
 42
0.9999999999999812
 10
858.9999930251039
 20
606.9999999999355
 10
789
 20
607
 10
788.9999999999998
 20
639.9999771118172
 42
1.000000000000019
 10
782.9999999999116
 20
640
 10
770
 20
640
 10
770
 20
870
 10
783.0000000000193
 20
870
 42
0.9999999999999806
 10
788.9999999994391
 20
869.9999238522759
 10
789
 20
900
 10
858.9999968398012
 20
900
 42
1.00000000000002
 10
858.9999892104067
 20
905.9999999999225
 10
858.9999939787782
 20
910.9999999999836
 42
0.9999999999999812
 10
858.9999961853027
 20
916.9999999999905
 10
789
 20
917
 10
788.9999999999999
 20
940.0000292085809
 42
0.9999999999999997
 10
782.9999999999212
 20
939.9999767102696
 10
770
 20
939.9999999999999
 10
770
 20
1100
  0
LWPOLYLINE
  5
60
100
AcDbEntity
  8
0
  6
ByLayer
 62
  256
370
   -1
100
AcDbPolyline
 90
    8
 70
    1
 43
0
 10
1048.999996185303
 20
271
 42
0.9999999999999626
 10
1049
 20
277
 10
978.9999961853028
 20
276.9999999999902
 42
0.9999999999999994
 10
978.9999971389772
 20
271.0000000000098
 10
978.9999923706058
 20
266
 42
0.9999999999999808
 10
979
 20
260
 10
1048.999992370606
 20
259.9999999999998
 42
0.9999999999999999
 10
1048.999992370606
 20
266
  0
LWPOLYLINE
  5
61
100
AcDbEntity
  8
0
  6
ByLayer
 62
  256
370
   -1
100
AcDbPolyline
 90
    4
 70
    1
 43
0
 10
1020
 20
580
 10
1020
 20
580
 10
1020
 20
580
 10
1020
 20
580
  0
LWPOLYLINE
  5
62
100
AcDbEntity
  8
tabs
  6
ByLayer
 62
  256
370
   -1
100
AcDbPolyline
 90
    4
 70
    1
 43
0
 10
1000
 20
930
 10
1010
 20
930
 10
1010
 20
890
 10
1000
 20
890
  0
LWPOLYLINE
  5
63
100
AcDbEntity
  8
tabs
  6
ByLayer
 62
  256
370
   -1
100
AcDbPolyline
 90
    4
 70
    1
 43
0
 10
1000
 20
610
 10
1010
 20
610
 10
1010
 20
580
 10
1000
 20
580
  0
LWPOLYLINE
  5
64
100
AcDbEntity
  8
tabs
  6
ByLayer
 62
  256
370
   -1
100
AcDbPolyline
 90
    4
 70
    1
 43
0
 10
1000
 20
280
 10
1010
 20
280
 10
1010
 20
250
 10
1000
 20
250
  0
LWPOLYLINE
  5
65
100
AcDbEntity
  8
tabs
  6
ByLayer
 62
  256
370
   -1
100
AcDbPolyline
 90
    4
 70
    1
 43
0
 10
490
 20
280
 10
500
 20
280
 10
500
 20
250
 10
490
 20
250
  0
LWPOLYLINE
  5
66
100
AcDbEntity
  8
tabs
  6
ByLayer
 62
  256
370
   -1
100
AcDbPolyline
 90
    4
 70
    1
 43
0
 10
490
 20
610
 10
500
 20
610
 10
500
 20
580
 10
490
 20
580
  0
LWPOLYLINE
  5
67
100
AcDbEntity
  8
tabs
  6
ByLayer
 62
  256
370
   -1
100
AcDbPolyline
 90
    4
 70
    1
 43
0
 10
490
 20
920
 10
500
 20
920
 10
500
 20
890
 10
490
 20
890
  0
LWPOLYLINE
  5
68
100
AcDbEntity
  8
tabs
  6
ByLayer
 62
  256
370
   -1
100
AcDbPolyline
 90
    4
 70
    1
 43
0
 10
550
 20
1070
 10
990
 20
1070
 10
990
 20
1060
 10
550
 20
1060
  0
LWPOLYLINE
  5
69
100
AcDbEntity
  8
tabs
  6
ByLayer
 62
  256
370
   -1
100
AcDbPolyline
 90
    4
 70
    1
 43
0
 10
450
 20
520
 10
1070
 20
520
 10
1070
 20
510
 10
450
 20
510
  0
LWPOLYLINE
  5
6A
100
AcDbEntity
  8
tabs
  6
ByLayer
 62
  256
370
   -1
100
AcDbPolyline
 90
    4
 70
    1
 43
0
 10
340
 20
150
 10
1190
 20
150
 10
1190
 20
140
 10
340
 20
140
  0
LWPOLYLINE
  5
6B
100
AcDbEntity
  8
tabs
  6
ByLayer
 62
  256
370
   -1
100
AcDbPolyline
 90
    4
 70
    1
 43
0
 10
10
 20
750
 10
310
 20
750
 10
310
 20
740
 10
10
 20
740
  0
LWPOLYLINE
  5
6C
100
AcDbEntity
  8
tabs
  6
ByLayer
 62
  256
370
   -1
100
AcDbPolyline
 90
    4
 70
    1
 43
0
 10
110
 20
450
 10
430
 20
450
 10
430
 20
440
 10
110
 20
440
  0
LWPOLYLINE
  5
6D
100
AcDbEntity
  8
tabs
  6
ByLayer
 62
  256
370
   -1
100
AcDbPolyline
 90
    4
 70
    1
 43
0
 10
10
 20
190
 10
310
 20
190
 10
310
 20
180
 10
10
 20
180
  0
LWPOLYLINE
  5
6E
100
AcDbEntity
  8
tabs
  6
ByLayer
 62
  256
370
   -1
100
AcDbPolyline
 90
    4
 70
    1
 43
0
 10
130
 20
20
 10
120
 20
20
 10
120
 20
310
 10
130
 20
310
  0
LWPOLYLINE
  5
6F
100
AcDbEntity
  8
tabs
  6
ByLayer
 62
  256
370
   -1
100
AcDbPolyline
 90
    4
 70
    1
 43
0
 10
320
 20
630
 10
310
 20
630
 10
310
 20
320
 10
320
 20
320
  0
LWPOLYLINE
  5
70
100
AcDbEntity
  8
tabs
  6
ByLayer
 62
  256
370
   -1
100
AcDbPolyline
 90
    4
 70
    1
 43
0
 10
150
 20
790
 10
160
 20
790
 10
160
 20
530
 10
150
 20
530
  0
LWPOLYLINE
  5
71
100
AcDbEntity
  8
tabs
  6
ByLayer
 62
  256
370
   -1
100
AcDbPolyline
 90
    4
 70
    1
 43
0
 10
10
 20
1070
 10
310
 20
1070
 10
310
 20
1060
 10
10
 20
1060
  0
LWPOLYLINE
  5
72
100
AcDbEntity
  8
tabs
  6
ByLayer
 62
  256
370
   -1
100
AcDbPolyline
 90
    4
 70
    1
 43
0
 10
20
 20
850
 10
320
 20
850
 10
320
 20
840
 10
20
 20
840
  0
LWPOLYLINE
  5
73
100
AcDbEntity
  8
0
  6
ByLayer
 62
  256
370
   -1
100
AcDbPolyline
 90
  110
 70
    1
 43
0
 10
47.00130000000015
 20
1127.852
 10
40.80342000000016
 20
1121.1752
 10
35.29884000000015
 20
1113.8708
 10
30.55926000000015
 20
1105.9412
 10
26.64318000000015
 20
1097.3858
 10
23.61586800000016
 20
1088.2196
 10
21.53904000000016
 20
1078.4378
 10
20.48435340000015
 20
1068.05
 10
20.50714020000015
 20
1057.0574
 10
21.67901400000015
 20
1045.469
 10
24.05857800000015
 20
1033.2854
 10
27.71094000000015
 20
1020.5108
 10
32.70114000000015
 20
1007.1518
 10
39.09438000000016
 20
993.2102
 10
44.87892000000015
 20
982.2595999999999
 10
46.95576000000015
 20
978.692
 10
46.54554000000016
 20
981.26
 10
46.02150000000016
 20
989.0726
 10
46.38282000000016
 20
998.8027999999999
 10
47.67516000000015
 20
1007.8292
 10
49.53384000000015
 20
1016.0978
 10
51.59442000000016
 20
1023.545
 10
53.49864000000017
 20
1030.1174
 10
54.88212000000016
 20
1035.7616
 10
55.39974000000016
 20
1039.2554
 10
55.38348000000016
 20
1040.4134
 10
55.70574000000016
 20
1037.7476
 10
56.96226000000016
 20
1029.779
 10
59.00646000000015
 20
1018.832
 10
61.29492000000015
 20
1007.5166
 10
63.61914000000016
 20
995.7686
 10
65.76108000000013
 20
983.5291999999999
 10
67.50906000000015
 20
970.736
 10
68.64516000000015
 20
957.3344
 10
68.99676000000017
 20
946.7773999999999
 10
68.95764000000014
 20
943.2583999999999
 10
70.05792000000015
 20
945.9116
 10
73.15692000000016
 20
953.9581999999999
 10
77.15100000000015
 20
965.1403999999999
 10
80.82960000000017
 20
976.2146
 10
84.08460000000017
 20
986.5951999999999
 10
86.80260000000015
 20
995.6935999999998
 10
88.88280000000016
 20
1002.92
 10
90.20760000000016
 20
1007.6894
 10
90.67620000000015
 20
1009.4078
 10
90.67620000000015
 20
1009.4078
 10
90.31860000000016
 20
1007.3834
 10
89.47200000000015
 20
1001.2568
 10
88.73640000000016
 20
992.5393999999999
 10
88.57020000000014
 20
983.0017999999999
 10
89.06820000000016
 20
972.389
 10
90.32820000000015
 20
960.4526
 10
92.45400000000015
 20
946.931
 10
95.53620000000015
 20
931.5692
 10
98.57700000000015
 20
918.461
 10
99.67680000000016
 20
914.1116
 10
99.91140000000016
 20
915.2804
 10
100.6992000000001
 20
918.7670000000001
 10
102.0174000000002
 20
924.0884
 10
103.5570000000002
 20
929.7986
 10
105.2400000000002
 20
935.6095999999999
 10
106.9980000000002
 20
941.2436
 10
108.7524000000002
 20
946.4192
 10
110.4324000000002
 20
950.8501999999999
 10
111.5358000000002
 20
953.4277999999999
 10
111.9624000000002
 20
954.2582
 10
112.5192000000002
 20
952.1912
 10
113.9058000000002
 20
945.902
 10
115.1166000000002
 20
938.1541999999999
 10
115.7382000000001
 20
930.857
 10
115.9242000000002
 20
923.8352
 10
115.8168000000001
 20
916.9243999999999
 10
115.5624000000002
 20
909.9542
 10
115.3080000000002
 20
902.7668
 10
115.2042000000002
 20
895.1894
 10
115.3902000000001
 20
887.0576
 10
116.0184000000002
 20
878.2003999999999
 10
117.2358000000002
 20
868.4509999999999
 10
119.1822000000002
 20
857.6499799999999
 10
122.0106000000002
 20
845.62208
 10
125.8680000000002
 20
832.20404
 10
130
 20
820
 10
130
 20
870
 42
-0.9999999999999999
 10
135.9999999999994
 20
870
 10
150
 20
870
 10
150
 20
900
 10
135.9999999999976
 20
899.9999961853027
 42
-0.9999999999999994
 10
130
 20
900
 10
130
 20
990
 42
-0.9999999999999999
 10
135.9999999999976
 20
990
 10
150
 20
990
 10
150
 20
1020
 10
135.9999999999976
 20
1019.999996185303
 42
-0.9999999999999999
 10
130
 20
1020
 10
130
 20
1100
 42
-0.9999999999999999
 10
136.0000000000024
 20
1100
 10
150
 20
1100
 10
150
 20
1130
 10
135.9999999999976
 20
1129.999996185303
 42
-0.9999999999999903
 10
130
 20
1130
 10
130
 20
1160
 10
123.5796000000002
 20
1158.8708
 10
113.9934000000002
 20
1158.0602
 10
104.5272000000001
 20
1156.5824
 10
95.24340000000015
 20
1154.4368
 10
86.21040000000016
 20
1151.6342
 10
77.48634000000015
 20
1148.171
 10
69.13998000000015
 20
1144.0592
 10
61.23630000000016
 20
1139.297
 10
53.83398000000015
 20
1133.897
  0
LWPOLYLINE
  5
74
100
AcDbEntity
  8
0
  6
ByLayer
 62
  256
370
   -1
100
AcDbPolyline
 90
  127
 70
    1
 43
0
 10
216.0930000000002
 20
922.1228
 10
218.6838000000001
 20
927.6043999999999
 10
221.3634000000002
 20
933.5354
 10
223.4532000000002
 20
938.4607999999998
 10
224.1138000000002
 20
940.1143999999999
 10
224.4456000000001
 20
938.2585999999999
 10
225.7122000000002
 20
932.7284
 10
227.4048000000001
 20
926.5862
 10
228.9642000000001
 20
920.8112
 10
230.1714000000002
 20
914.5286
 10
230.8098000000002
 20
906.8654
 10
230.6598000000001
 20
896.9431999999999
 10
229.5018000000001
 20
883.8865999999999
 10
227.7858000000002
 20
871.0742
 10
227.1114000000001
 20
866.8202
 10
227.6130000000002
 20
868.0699999999999
 10
229.2306000000002
 20
871.7678
 10
231.5226000000001
 20
876.6536
 10
233.9352000000001
 20
881.5658
 10
236.4060000000002
 20
886.5884
 10
238.8822000000001
 20
891.8131999999999
 10
241.3116000000001
 20
897.3212
 10
243.6288000000002
 20
903.2
 10
245.7876000000002
 20
909.5378000000001
 10
247.7208000000002
 20
916.4162
 10
249.3840000000001
 20
923.9228000000001
 10
250.7124000000001
 20
932.1416
 10
251.6496000000002
 20
941.1661999999999
 10
252.1452000000002
 20
951.0745999999999
 10
252.1416000000002
 20
961.9567999999999
 10
251.5782000000002
 20
973.8968
 10
250.7574000000002
 20
983.7175999999999
 10
250.4034000000001
 20
986.9792
 10
250.4034000000001
 20
986.9792
 10
250.8360000000001
 20
985.205
 10
252.0600000000002
 20
980.3449999999999
 10
253.9518000000002
 20
973.1095999999999
 10
256.3860000000002
 20
964.1995999999999
 10
259.2408000000001
 20
954.3266
 10
262.3980000000001
 20
944.1961999999999
 10
265.7280000000002
 20
934.5085999999999
 10
268.1988000000001
 20
928.0735999999999
 10
269.1174000000001
 20
925.97
 10
269.1534000000001
 20
929.7404
 10
269.5338000000002
 20
941.0384
 10
270.3996000000002
 20
953.9323999999999
 10
271.6110000000002
 20
965.1434
 10
273.0690000000002
 20
975.1436
 10
274.6638000000002
 20
984.4208
 10
276.2982000000002
 20
993.4508
 10
277.8642000000002
 20
1002.7154
 10
278.9574000000001
 20
1010.1962
 10
279.2640000000001
 20
1012.6958
 10
279.2442000000001
 20
1011.6902
 10
279.5406000000002
 20
1008.6524
 10
280.3674000000001
 20
1004.609
 10
281.4930000000002
 20
1000.3028
 10
282.6660000000002
 20
995.4494
 10
283.6356000000002
 20
989.7794
 10
284.1534000000001
 20
983.0174
 10
283.9710000000001
 20
974.8892
 10
283.2192000000001
 20
967.5458
 10
282.8352000000002
 20
965.1176
 10
282.8352000000002
 20
965.1176
 10
283.4310000000002
 20
966.3932
 10
285.0450000000002
 20
970.0489999999999
 10
287.4114000000002
 20
975.8504
 10
290.2596000000001
 20
983.5453999999999
 10
293.3232000000002
 20
992.8939999999999
 10
296.3340000000002
 20
1003.6562
 10
299.0226000000001
 20
1015.5824
 10
301.1256000000002
 20
1028.4344
 10
302.3724000000001
 20
1041.9668
 10
302.4960000000002
 20
1055.9342
 10
301.2330000000002
 20
1070.0978
 10
298.3098000000002
 20
1084.2092
 10
293.4600000000002
 20
1098.0278
 10
286.4184000000001
 20
1111.3082
 10
276.9168000000002
 20
1123.8086
 10
267.9582000000001
 20
1132.6862
 10
264.6900000000002
 20
1135.2836
 10
262.8084000000001
 20
1136.7254
 10
256.9068000000001
 20
1140.7034
 10
248.6646000000002
 20
1145.4104
 10
240.0318000000001
 20
1149.4142
 10
231.0696000000002
 20
1152.7154
 10
221.8452000000001
 20
1155.3194
 10
212.4216000000001
 20
1157.2334
 10
202.8576000000002
 20
1158.461
 10
190
 20
1160
 10
170
 20
1160
 10
170
 20
1130
 10
184
 20
1130.000003814697
 42
-0.9999999999999901
 10
190
 20
1130
 10
190.0000000000024
 20
1099.999992370605
 42
-1.000000000000009
 10
184.0000000000048
 20
1100
 10
170
 20
1100
 10
170
 20
1020
 10
184
 20
1020.000003814697
 42
-0.9999999999999999
 10
190
 20
1020
 10
190
 20
989.9999923706055
 42
-1.000000000000005
 10
184.0000000000024
 20
990
 10
170
 20
990
 10
170
 20
900
 10
184
 20
900.0000038146972
 42
-1.000000000000003
 10
190
 20
900
 10
190.0000000000024
 20
869.9999923706055
 42
-1
 10
184.0000000000073
 20
870
 10
170
 20
870
 10
170
 20
820
 10
190
 20
820
 10
195.5880000000001
 20
804.6747439999999
 10
197.2518000000002
 20
800.52761
 10
197.2518000000002
 20
800.52761
 10
197.2356000000001
 20
805.000268
 10
197.3334000000002
 20
818.4117199999999
 10
197.6982000000002
 20
834.13436
 10
198.3288000000002
 20
847.90388
 10
199.2180000000002
 20
859.919
 10
200.3406000000002
 20
870.3775999999999
 10
201.6888000000001
 20
879.4861999999999
 10
203.2416000000002
 20
887.4349999999999
 10
204.9900000000001
 20
894.4333999999999
 10
206.9130000000001
 20
900.6776
 10
209.0034000000002
 20
906.3674
 10
211.2402000000002
 20
911.7062
 10
213.6060000000002
 20
916.8920000000001
  0
LWPOLYLINE
  5
75
100
AcDbEntity
  8
0
  6
ByLayer
 62
  256
370
   -1
100
AcDbPolyline
 90
   22
 70
    1
 43
0
 10
34.00001525880839
 20
699.9999999999998
 10
21.00001525878884
 20
699.9999999999998
 10
21.00001525878884
 20
769.9999999999998
 10
21.00001525878884
 20
788.9999999999998
 10
40.00001525878884
 20
788.9999999999998
 10
110.0000152587888
 20
788.9999999999998
 10
110.0000152587888
 20
775.9999946052033
 42
0.9999999999999999
 10
110.0000152587888
 20
769.9999999999998
 10
229.9999923706056
 20
770.0000000000098
 42
0.9999999999999999
 10
230
 20
776
 10
230
 20
789
 10
290
 20
789
 10
290.0000152587888
 20
775.9999946052033
 42
1
 10
290
 20
770
 10
300
 20
770
 10
300.0000152587888
 20
769
 42
-0.4142135623730955
 10
40.00001525878848
 20
519.9999999999998
 10
21.00001525878884
 20
519.9999999999998
 10
21.00001525878884
 20
579.9999999999998
 10
34.00001525878884
 20
579.9999999999998
 42
0.9999999999999999
 10
40.00001525878884
 20
579.9999999999998
 10
40.00001525878884
 20
700.0000053947963
 42
0.9999999999999997
  0
LWPOLYLINE
  5
76
100
AcDbEntity
  8
0
  6
ByLayer
 62
  256
370
   -1
100
AcDbPolyline
 90
   22
 70
    1
 43
0
 10
33.00000000001955
 20
210
 10
20
 20
210
 10
20
 20
280
 10
20
 20
299
 10
39
 20
299
 10
109
 20
299
 10
109
 20
285.9999946052035
 42
0.9999999999999999
 10
109
 20
280
 10
228.9999771118167
 20
280.00000000001
 42
0.9999999999999999
 10
228.9999847412112
 20
286.0000000000002
 10
228.9999847412112
 20
299.0000000000002
 10
288.9999847412112
 20
299.0000000000002
 10
289
 20
285.9999946052035
 42
1
 10
288.9999847412112
 20
280.0000000000002
 10
298.9999847412112
 20
280.0000000000002
 10
298.9999999999999
 20
279.0000000000002
 42
-0.4142135623730955
 10
38.99999999999964
 20
30
 10
20
 20
30
 10
20
 20
90
 10
33
 20
90
 42
0.9999999999999999
 10
39
 20
90
 10
39
 20
210.0000053947965
 42
0.9999999999999997
  0
ENDSEC
  0
SECTION
  2
OBJECTS
  0
DICTIONARY
  5
C
330
0
100
AcDbDictionary
281
    1
  3
ACAD_GROUP
350
D
  0
DICTIONARY
  5
D
330
C
100
AcDbDictionary
281
    1
  0
ENDSEC
  0
EOF
