999
dxfrw 0.6.3
  0
SECTION
  2
HEADER
  9
$ACADVER
  1
AC1021
  9
$DWGCODEPAGE
  3
ANSI_1252
  9
$INSBASE
 10
0
 20
0
 30
0
  9
$EXTMIN
 10
0
 20
0
 30
0
  9
$EXTMAX
 10
899.218
 20
960.001
 30
0
  9
$LIMMIN
 10
0
 20
0
  9
$LIMMAX
 10
420
 20
297
  9
$ORTHOMODE
 70
    0
  9
$REGENMODE
 70
    1
  9
$FILLMODE
 70
    0
  9
$QTEXTMODE
 70
    0
  9
$MIRRTEXT
 70
    0
  9
$LTSCALE
 40
1
  9
$ATTMODE
 70
    0
  9
$TEXTSIZE
 40
2.5
  9
$TRACEWID
 40
15.68
  9
$TEXTSTYLE
  7
STANDARD
  9
$CLAYER
  8
0
  9
$CELTYPE
  6
BYLAYER
  9
$CECOLOR
 62
  256
  9
$CELTSCALE
 40
1
  9
$DISPSILH
 70
    0
  9
$DIMSCALE
 40
2.5
  9
$DIMASZ
 40
2.5
  9
$DIMEXO
 40
0.625
  9
$DIMDLI
 40
3.75
  9
$DIMRND
 40
0
  9
$DIMDLE
 40
0
  9
$DIMEXE
 40
1.25
  9
$DIMTP
 40
0
  9
$DIMTM
 40
0
  9
$DIMTXT
 40
2.5
  9
$DIMCEN
 40
2.5
  9
$DIMTSZ
 40
0
  9
$DIMTOL
 70
    0
  9
$DIMLIM
 70
    0
  9
$DIMTIH
 70
    0
  9
$DIMTOH
 70
    0
  9
$DIMSE1
 70
    0
  9
$DIMSE2
 70
    0
  9
$DIMTAD
 70
    1
  9
$DIMZIN
 70
    8
  9
$DIMBLK
  1

  9
$DIMASO
 70
    1
  9
$DIMSHO
 70
    1
  9
$DIMPOST
  1

  9
$DIMAPOST
  1

  9
$DIMALT
 70
    0
  9
$DIMALTD
 70
    3
  9
$DIMALTF
 40
0.03937
  9
$DIMLFAC
 40
1
  9
$DIMTOFL
 70
    1
  9
$DIMTVP
 40
0
  9
$DIMTIX
 70
    0
  9
$DIMSOXD
 70
    0
  9
$DIMSAH
 70
    0
  9
$DIMBLK1
  1

  9
$DIMBLK2
  1

  9
$DIMSTYLE
  2
Standard
  9
$DIMCLRD
 70
    0
  9
$DIMCLRE
 70
    0
  9
$DIMCLRT
 70
    0
  9
$DIMTFAC
 40
1
  9
$DIMGAP
 40
0.625
  9
$DIMJUST
 70
    0
  9
$DIMSD1
 70
    0
  9
$DIMSD2
 70
    0
  9
$DIMTOLJ
 70
    0
  9
$DIMTZIN
 70
    8
  9
$DIMALTZ
 70
    0
  9
$DIMALTTZ
 70
    0
  9
$DIMUPT
 70
    0
  9
$DIMDEC
 70
    2
  9
$DIMTDEC
 70
    2
  9
$DIMALTU
 70
    2
  9
$DIMALTTD
 70
    3
  9
$DIMTXSTY
  7
STANDARD
  9
$DIMAUNIT
 70
    0
  9
$DIMADEC
 70
    0
  9
$DIMALTRND
 40
0
  9
$DIMAZIN
 70
    0
  9
$DIMDSEP
 70
   44
  9
$DIMATFIT
 70
    3
  9
$DIMFRAC
 70
    0
  9
$DIMLDRBLK
  1
STANDARD
  9
$DIMLUNIT
 70
    2
  9
$DIMLWD
 70
   -2
  9
$DIMLWE
 70
   -2
  9
$DIMTMOVE
 70
    0
  9
$DIMFXL
 40
1
  9
$DIMFXLON
 70
    0
  9
$DIMJOGANG
 40
0.7854
  9
$DIMTFILL
 70
    0
  9
$DIMTFILLCLR
 70
    0
  9
$DIMARCSYM
 70
    0
  9
$DIMLTYPE
  6

  9
$DIMLTEX1
  6

  9
$DIMLTEX2
  6

  9
$LUNITS
 70
    2
  9
$LUPREC
 70
    4
  9
$SKETCHINC
 40
1
  9
$FILLETRAD
 40
0
  9
$AUNITS
 70
    0
  9
$AUPREC
 70
    2
  9
$MENU
  1
.
  9
$ELEVATION
 40
0
  9
$PELEVATION
 40
0
  9
$THICKNESS
 40
0
  9
$LIMCHECK
 70
    0
  9
$CHAMFERA
 40
0
  9
$CHAMFERB
 40
0
  9
$CHAMFERC
 40
0
  9
$CHAMFERD
 40
0
  9
$SKPOLY
 70
    0
  9
$USRTIMER
 70
    1
  9
$ANGBASE
 50
0
  9
$ANGDIR
 70
    0
  9
$PDMODE
 70
   34
  9
$PDSIZE
 40
0
  9
$PLINEWID
 40
0
  9
$SPLFRAME
 70
    1
  9
$SPLINETYPE
 70
    2
  9
$SPLINESEGS
 70
    8
  9
$HANDSEED
  5
20000
  9
$SURFTAB1
 70
    6
  9
$SURFTAB2
 70
    6
  9
$SURFTYPE
 70
    6
  9
$SURFU
 70
    6
  9
$SURFV
 70
    6
  9
$UCSBASE
  2

  9
$UCSNAME
  2

  9
$UCSORG
 10
0
 20
0
 30
0
  9
$UCSXDIR
 10
1
 20
0
 30
0
  9
$UCSYDIR
 10
0
 20
1
 30
0
  9
$UCSORTHOREF
  2

  9
$UCSORTHOVIEW
 70
    0
  9
$UCSORGTOP
 10
0
 20
0
 30
0
  9
$UCSORGBOTTOM
 10
0
 20
0
 30
0
  9
$UCSORGLEFT
 10
0
 20
0
 30
0
  9
$UCSORGRIGHT
 10
0
 20
0
 30
0
  9
$UCSORGFRONT
 10
0
 20
0
 30
0
  9
$UCSORGBACK
 10
0
 20
0
 30
0
  9
$PUCSBASE
  2

  9
$PUCSNAME
  2

  9
$PUCSORG
 10
0
 20
0
 30
0
  9
$PUCSXDIR
 10
1
 20
0
 30
0
  9
$PUCSYDIR
 10
0
 20
1
 30
0
  9
$PUCSORTHOREF
  2

  9
$PUCSORTHOVIEW
 70
    0
  9
$PUCSORGTOP
 10
0
 20
0
 30
0
  9
$PUCSORGBOTTOM
 10
0
 20
0
 30
0
  9
$PUCSORGLEFT
 10
0
 20
0
 30
0
  9
$PUCSORGRIGHT
 10
0
 20
0
 30
0
  9
$PUCSORGFRONT
 10
0
 20
0
 30
0
  9
$PUCSORGBACK
 10
0
 20
0
 30
0
  9
$USERI1
 70
    0
  9
$USERI2
 70
    0
  9
$USERI3
 70
    0
  9
$USERI4
 70
    0
  9
$USERI5
 70
    0
  9
$USERR1
 40
0
  9
$USERR2
 40
0
  9
$USERR3
 40
0
  9
$USERR4
 40
0
  9
$USERR5
 40
0
  9
$WORLDVIEW
 70
    1
  9
$SHADEDGE
 70
    3
  9
$SHADEDIF
 70
   70
  9
$TILEMODE
 70
    1
  9
$MAXACTVP
 70
   64
  9
$PINSBASE
 10
0
 20
0
 30
0
  9
$PLIMCHECK
 70
    0
  9
$PEXTMIN
 10
0
 20
0
 30
0
  9
$PEXTMAX
 10
0
 20
0
 30
0
  9
$SNAPSTYLE
 70
    0
  9
$PLIMMIN
 10
0
 20
0
  9
$PLIMMAX
 10
210
 20
297
  9
$UNITMODE
 70
    0
  9
$VISRETAIN
 70
    1
  9
$PLINEGEN
 70
    0
  9
$PSLTSCALE
 70
    1
  9
$TREEDEPTH
 70
 3020
  9
$CMLSTYLE
  2
Standard
  9
$CMLJUST
 70
    0
  9
$CMLSCALE
 40
20
  9
$PROXYGRAPHICS
 70
    1
  9
$MEASUREMENT
 70
    1
  9
$CELWEIGHT
370
   -1
  9
$ENDCAPS
280
    0
  9
$JOINSTYLE
280
    0
  9
$LWDISPLAY
290
    0
  9
$INSUNITS
 70
    4
  9
$HYPERLINKBASE
  1

  9
$STYLESHEET
  1

  9
$XEDIT
290
    1
  9
$CEPSNTYPE
380
    0
  9
$PSTYLEMODE
290
    1
  9
$EXTNAMES
290
    1
  9
$PSVPSCALE
 40
1
  9
$OLESTARTUP
290
    0
  9
$SORTENTS
280
  127
  9
$INDEXCTL
280
    0
  9
$HIDETEXT
280
    1
  9
$XCLIPFRAME
290
    0
  9
$HALOGAP
280
    0
  9
$OBSCOLOR
 70
  257
  9
$OBSLTYPE
280
    0
  9
$INTERSECTIONDISPLAY
280
    0
  9
$INTERSECTIONCOLOR
 70
  257
  9
$DIMASSOC
280
    1
  9
$PROJECTNAME
  1

  9
$CAMERADISPLAY
290
    0
  9
$LENSLENGTH
 40
50
  9
$CAMERAHEIGHT
 40
0
  9
$STEPSPERSEC
 40
2
  9
$STEPSIZE
 40
50
  9
$3DDWFPREC
 40
2
  9
$PSOLWIDTH
 40
5
  9
$PSOLHEIGHT
 40
80
  9
$LOFTANG1
 40
1.570796326794897
  9
$LOFTANG2
 40
1.570796326794897
  9
$LOFTMAG1
 40
0
  9
$LOFTMAG2
 40
0
  9
$LOFTPARAM
 70
    7
  9
$LOFTNORMALS
280
    1
  9
$LATITUDE
 40
1
  9
$LONGITUDE
 40
1
  9
$NORTHDIRECTION
 40
0
  9
$TIMEZONE
 70
-8000
  9
$LIGHTGLYPHDISPLAY
280
    1
  9
$TILEMODELIGHTSYNCH
280
    1
  9
$SOLIDHIST
280
    1
  9
$SHOWHIST
280
    1
  9
$DWFFRAME
280
    2
  9
$DGNFRAME
280
    0
  9
$REALWORLDSCALE
290
    1
  9
$INTERFERECOLOR
 62
    1
  9
$CSHADOW
280
    0
  9
$SHADOWPLANELOCATION
 40
0
  0
ENDSEC
  0
SECTION
  2
CLASSES
  0
ENDSEC
  0
SECTION
  2
TABLES
  0
TABLE
  2
VPORT
  5
8
330
0
100
AcDbSymbolTable
 70
    1
  0
VPORT
  5
31
330
2
100
AcDbSymbolTableRecord
100
AcDbViewportTableRecord
  2
*ACTIVE
 70
    0
 10
0
 20
0
 11
1
 21
1
 12
778.0498843271744
 22
556.7308744608566
 13
0
 23
0
 14
10
 24
10
 15
10
 25
10
 16
0
 26
0
 36
1
 17
0
 27
0
 37
0
 40
1623.710349234035
 41
1.042290175666884
 42
50
 43
0
 44
0
 50
0
 51
0
 71
    0
 72
  100
 73
    1
 74
    3
 75
    0
 76
    1
 77
    0
 78
    0
281
    0
 65
    1
110
0
120
0
130
0
111
1
121
0
131
0
112
0
122
1
132
0
 79
    0
146
0
348
10020
 60
    7
 61
    5
292
1
282
    1
141
0
142
0
 63
  250
421
3358443
  0
ENDTAB
  0
TABLE
  2
LTYPE
  5
5
330
0
100
AcDbSymbolTable
 70
    4
  0
LTYPE
  5
14
330
5
100
AcDbSymbolTableRecord
100
AcDbLinetypeTableRecord
  2
ByBlock
 70
    0
  3

 72
   65
 73
    0
 40
0
  0
LTYPE
  5
15
330
5
100
AcDbSymbolTableRecord
100
AcDbLinetypeTableRecord
  2
ByLayer
 70
    0
  3

 72
   65
 73
    0
 40
0
  0
LTYPE
  5
16
330
5
100
AcDbSymbolTableRecord
100
AcDbLinetypeTableRecord
  2
Continuous
 70
    0
  3
Solid line
 72
   65
 73
    0
 40
0
  0
LTYPE
  5
32
330
5
100
AcDbSymbolTableRecord
100
AcDbLinetypeTableRecord
  2
DOT
 70
    0
  3
Dot . . . . . . . . . . . . . . . . . . . . . .
 72
   65
 73
    2
 40
6.35
 49
0
 74
    0
 49
-6.35
 74
    0
  0
LTYPE
  5
33
330
5
100
AcDbSymbolTableRecord
100
AcDbLinetypeTableRecord
  2
DOTTINY
 70
    0
  3
Dot (.15x) .....................................
 72
   65
 73
    2
 40
0.9525
 49
0
 74
    0
 49
-0.9525
 74
    0
  0
LTYPE
  5
34
330
5
100
AcDbSymbolTableRecord
100
AcDbLinetypeTableRecord
  2
DOT2
 70
    0
  3
Dot (.5x) .....................................
 72
   65
 73
    2
 40
3.175
 49
0
 74
    0
 49
-3.175
 74
    0
  0
LTYPE
  5
35
330
5
100
AcDbSymbolTableRecord
100
AcDbLinetypeTableRecord
  2
DOTX2
 70
    0
  3
Dot (2x) .  .  .  .  .  .  .  .  .  .  .  .  .
 72
   65
 73
    2
 40
12.7
 49
0
 74
    0
 49
-12.7
 74
    0
  0
LTYPE
  5
36
330
5
100
AcDbSymbolTableRecord
100
AcDbLinetypeTableRecord
  2
DASHED
 70
    0
  3
Dashed _ _ _ _ _ _ _ _ _ _ _ _ _ _ _ _ _
 72
   65
 73
    2
 40
19.05
 49
12.7
 74
    0
 49
-6.35
 74
    0
  0
LTYPE
  5
37
330
5
100
AcDbSymbolTableRecord
100
AcDbLinetypeTableRecord
  2
DASHEDTINY
 70
    0
  3
Dashed (.15x) _ _ _ _ _ _ _ _ _ _ _ _ _ _ _ _ _
 72
   65
 73
    2
 40
2.8575
 49
1.905
 74
    0
 49
-0.9525
 74
    0
  0
LTYPE
  5
38
330
5
100
AcDbSymbolTableRecord
100
AcDbLinetypeTableRecord
  2
DASHED2
 70
    0
  3
Dashed (.5x) _ _ _ _ _ _ _ _ _ _ _ _ _ _ _ _ _
 72
   65
 73
    2
 40
9.524999999999999
 49
6.35
 74
    0
 49
-3.175
 74
    0
  0
LTYPE
  5
39
330
5
100
AcDbSymbolTableRecord
100
AcDbLinetypeTableRecord
  2
DASHEDX2
 70
    0
  3
Dashed (2x) ____  ____  ____  ____  ____  ___
 72
   65
 73
    2
 40
38.09999999999999
 49
25.4
 74
    0
 49
-12.7
 74
    0
  0
LTYPE
  5
3A
330
5
100
AcDbSymbolTableRecord
100
AcDbLinetypeTableRecord
  2
DASHDOT
 70
    0
  3
Dash dot __ . __ . __ . __ . __ . __ . __ . __
 72
   65
 73
    4
 40
25.4
 49
12.7
 74
    0
 49
-6.35
 74
    0
 49
0
 74
    0
 49
-6.35
 74
    0
  0
LTYPE
  5
3B
330
5
100
AcDbSymbolTableRecord
100
AcDbLinetypeTableRecord
  2
DASHDOTTINY
 70
    0
  3
Dash dot (.15x) _._._._._._._._._._._._._._._.
 72
   65
 73
    4
 40
3.81
 49
1.905
 74
    0
 49
-0.9525
 74
    0
 49
0
 74
    0
 49
-0.9525
 74
    0
  0
LTYPE
  5
3C
330
5
100
AcDbSymbolTableRecord
100
AcDbLinetypeTableRecord
  2
DASHDOT2
 70
    0
  3
Dash dot (.5x) _._._._._._._._._._._._._._._.
 72
   65
 73
    4
 40
12.7
 49
6.35
 74
    0
 49
-3.175
 74
    0
 49
0
 74
    0
 49
-3.175
 74
    0
  0
LTYPE
  5
3D
330
5
100
AcDbSymbolTableRecord
100
AcDbLinetypeTableRecord
  2
DASHDOTX2
 70
    0
  3
Dash dot (2x) ____  .  ____  .  ____  .  ___
 72
   65
 73
    4
 40
50.8
 49
25.4
 74
    0
 49
-12.7
 74
    0
 49
0
 74
    0
 49
-12.7
 74
    0
  0
LTYPE
  5
3E
330
5
100
AcDbSymbolTableRecord
100
AcDbLinetypeTableRecord
  2
DIVIDE
 70
    0
  3
Divide ____ . . ____ . . ____ . . ____ . . ____
 72
   65
 73
    6
 40
31.75
 49
12.7
 74
    0
 49
-6.35
 74
    0
 49
0
 74
    0
 49
-6.35
 74
    0
 49
0
 74
    0
 49
-6.35
 74
    0
  0
LTYPE
  5
3F
330
5
100
AcDbSymbolTableRecord
100
AcDbLinetypeTableRecord
  2
DIVIDETINY
 70
    0
  3
Divide (.15x) __..__..__..__..__..__..__..__.._
 72
   65
 73
    6
 40
4.7625
 49
1.905
 74
    0
 49
-0.9525
 74
    0
 49
0
 74
    0
 49
-0.9525
 74
    0
 49
0
 74
    0
 49
-0.9525
 74
    0
  0
LTYPE
  5
40
330
5
100
AcDbSymbolTableRecord
100
AcDbLinetypeTableRecord
  2
DIVIDE2
 70
    0
  3
Divide (.5x) __..__..__..__..__..__..__..__.._
 72
   65
 73
    6
 40
15.875
 49
6.35
 74
    0
 49
-3.175
 74
    0
 49
0
 74
    0
 49
-3.175
 74
    0
 49
0
 74
    0
 49
-3.175
 74
    0
  0
LTYPE
  5
41
330
5
100
AcDbSymbolTableRecord
100
AcDbLinetypeTableRecord
  2
DIVIDEX2
 70
    0
  3
Divide (2x) ________  .  .  ________  .  .  _
 72
   65
 73
    6
 40
63.5
 49
25.4
 74
    0
 49
-12.7
 74
    0
 49
0
 74
    0
 49
-12.7
 74
    0
 49
0
 74
    0
 49
-12.7
 74
    0
  0
LTYPE
  5
42
330
5
100
AcDbSymbolTableRecord
100
AcDbLinetypeTableRecord
  2
BORDER
 70
    0
  3
Border __ __ . __ __ . __ __ . __ __ . __ __ .
 72
   65
 73
    6
 40
44.45
 49
12.7
 74
    0
 49
-6.35
 74
    0
 49
12.7
 74
    0
 49
-6.35
 74
    0
 49
0
 74
    0
 49
-6.35
 74
    0
  0
LTYPE
  5
43
330
5
100
AcDbSymbolTableRecord
100
AcDbLinetypeTableRecord
  2
BORDERTINY
 70
    0
  3
Border (.15x) __.__.__.__.__.__.__.__.__.__.__.
 72
   65
 73
    6
 40
6.6675
 49
1.905
 74
    0
 49
-0.9525
 74
    0
 49
1.905
 74
    0
 49
-0.9525
 74
    0
 49
0
 74
    0
 49
-0.9525
 74
    0
  0
LTYPE
  5
44
330
5
100
AcDbSymbolTableRecord
100
AcDbLinetypeTableRecord
  2
BORDER2
 70
    0
  3
Border (.5x) __.__.__.__.__.__.__.__.__.__.__.
 72
   65
 73
    6
 40
22.225
 49
6.35
 74
    0
 49
-3.175
 74
    0
 49
6.35
 74
    0
 49
-3.175
 74
    0
 49
0
 74
    0
 49
-3.175
 74
    0
  0
LTYPE
  5
45
330
5
100
AcDbSymbolTableRecord
100
AcDbLinetypeTableRecord
  2
BORDERX2
 70
    0
  3
Border (2x) ____  ____  .  ____  ____  .  ___
 72
   65
 73
    6
 40
88.89999999999999
 49
25.4
 74
    0
 49
-12.7
 74
    0
 49
25.4
 74
    0
 49
-12.7
 74
    0
 49
0
 74
    0
 49
-12.7
 74
    0
  0
LTYPE
  5
46
330
5
100
AcDbSymbolTableRecord
100
AcDbLinetypeTableRecord
  2
CENTER
 70
    0
  3
Center ____ _ ____ _ ____ _ ____ _ ____ _ ____
 72
   65
 73
    4
 40
50.8
 49
31.75
 74
    0
 49
-6.35
 74
    0
 49
6.35
 74
    0
 49
-6.35
 74
    0
  0
LTYPE
  5
47
330
5
100
AcDbSymbolTableRecord
100
AcDbLinetypeTableRecord
  2
CENTERTINY
 70
    0
  3
Center (.15x) ___ _ ___ _ ___ _ ___ _ ___ _ ___
 72
   65
 73
    4
 40
7.619999999999999
 49
4.7625
 74
    0
 49
-0.9525
 74
    0
 49
0.9525
 74
    0
 49
-0.9525
 74
    0
  0
LTYPE
  5
48
330
5
100
AcDbSymbolTableRecord
100
AcDbLinetypeTableRecord
  2
CENTER2
 70
    0
  3
Center (.5x) ___ _ ___ _ ___ _ ___ _ ___ _ ___
 72
   65
 73
    4
 40
28.575
 49
19.05
 74
    0
 49
-3.175
 74
    0
 49
3.175
 74
    0
 49
-3.175
 74
    0
  0
LTYPE
  5
49
330
5
100
AcDbSymbolTableRecord
100
AcDbLinetypeTableRecord
  2
CENTERX2
 70
    0
  3
Center (2x) ________  __  ________  __  _____
 72
   65
 73
    4
 40
101.6
 49
63.5
 74
    0
 49
-12.7
 74
    0
 49
12.7
 74
    0
 49
-12.7
 74
    0
  0
ENDTAB
  0
TABLE
  2
LAYER
  5
2
330
0
100
AcDbSymbolTable
 70
    1
  0
LAYER
  5
10
330
2
100
AcDbSymbolTableRecord
100
AcDbLayerTableRecord
  2
0
 70
    0
 62
    7
  6
CONTINUOUS
370
   -3
390
F
  0
ENDTAB
  0
TABLE
  2
STYLE
  5
3
330
0
100
AcDbSymbolTable
 70
    3
  0
STYLE
  5
4A
330
2
100
AcDbSymbolTableRecord
100
AcDbTextStyleTableRecord
  2
Standard
 70
    0
 40
0
 41
1
 50
0
 71
    0
 42
1
  3
txt
  4

  0
ENDTAB
  0
TABLE
  2
VIEW
  5
6
330
0
100
AcDbSymbolTable
 70
    0
  0
ENDTAB
  0
TABLE
  2
UCS
  5
7
330
0
100
AcDbSymbolTable
 70
    0
  0
ENDTAB
  0
TABLE
  2
APPID
  5
9
330
0
100
AcDbSymbolTable
 70
    1
  0
APPID
  5
12
330
9
100
AcDbSymbolTableRecord
100
AcDbRegAppTableRecord
  2
ACAD
 70
    0
  0
APPID
  5
4B
330
9
100
AcDbSymbolTableRecord
100
AcDbRegAppTableRecord
  2
LibreCad
 70
    0
  0
ENDTAB
  0
TABLE
  2
DIMSTYLE
  5
A
330
0
100
AcDbSymbolTable
 70
    1
100
AcDbDimStyleTable
 71
    1
  0
DIMSTYLE
105
4C
330
A
100
AcDbSymbolTableRecord
100
AcDbDimStyleTableRecord
  2
Standard
 70
    0
 40
1
 41
2.5
 42
0.625
 43
0.38
 44
1.25
 45
0
 46
0
 47
0
 48
0
 49
1
140
2.5
141
0.09
142
2.5
143
25.4
144
1
145
0
146
1
147
0.625
148
0
 71
    0
 72
    0
 73
    0
 74
    1
 75
    0
 76
    0
 77
    0
 78
    1
 79
    0
170
    0
171
    2
172
    0
173
    0
174
    0
175
    0
176
    0
177
    0
178
    0
179
    0
271
    2
272
    4
273
    2
274
    2
275
    0
276
    0
277
    2
278
    0
279
    0
280
    0
281
    0
282
    0
283
    1
284
    0
285
    0
286
    0
288
    0
289
    3
340
standard
341

371
   -2
372
   -2
  0
ENDTAB
  0
TABLE
  2
BLOCK_RECORD
  5
1
330
0
100
AcDbSymbolTable
 70
    2
  0
BLOCK_RECORD
  5
1F
330
1
100
AcDbSymbolTableRecord
100
AcDbBlockTableRecord
  2
*Model_Space
 70
    0
280
    1
281
    0
  0
BLOCK_RECORD
  5
1E
330
1
100
AcDbSymbolTableRecord
100
AcDbBlockTableRecord
  2
*Paper_Space
 70
    0
280
    1
281
    0
  0
ENDTAB
  0
ENDSEC
  0
SECTION
  2
BLOCKS
  0
BLOCK
  5
20
330
1F
100
AcDbEntity
  8
0
100
AcDbBlockBegin
  2
*Model_Space
 70
    0
 10
0
 20
0
 30
0
  3
*Model_Space
  1

  0
ENDBLK
  5
21
330
1F
100
AcDbEntity
  8
0
100
AcDbBlockEnd
  0
BLOCK
  5
1C
330
1B
100
AcDbEntity
  8
0
100
AcDbBlockBegin
  2
*Paper_Space
 70
    0
 10
0
 20
0
 30
0
  3
*Paper_Space
  1

  0
ENDBLK
  5
1D
330
1F
100
AcDbEntity
  8
0
100
AcDbBlockEnd
  0
ENDSEC
  0
SECTION
  2
ENTITIES
  0
LWPOLYLINE
  5
4D
100
AcDbEntity
  8
0
  6
ByLayer
 62
    0
370
   -1
100
AcDbPolyline
 90
  894
 70
    1
 43
0
 10
324.8
 20
80.0001
 10
324.787
 20
80.2456
 10
324.751
 20
80.48390000000001
 10
324.693
 20
80.71380000000001
 10
324.612
 20
80.93429999999999
 10
324.511
 20
81.1442
 10
324.39
 20
81.3421
 10
324.253
 20
81.52679999999999
 10
324.097
 20
81.6972
 10
323.928
 20
81.85209999999999
 10
323.742
 20
81.9903
 10
323.544
 20
82.1104
 10
323.335
 20
82.2115
 10
323.114
 20
82.29219999999999
 10
322.885
 20
82.3514
 10
322.646
 20
82.3878
 10
322.4
 20
82.40009999999999
 10
322.156
 20
82.3878
 10
321.917
 20
82.3514
 10
321.686
 20
82.29219999999999
 10
321.467
 20
82.2115
 10
321.257
 20
82.11060000000001
 10
321.058
 20
81.9903
 10
320.874
 20
81.8522
 10
320.703
 20
81.6972
 10
320.549
 20
81.52679999999999
 10
320.41
 20
81.3421
 10
320.29
 20
81.1442
 10
320.189
 20
80.93429999999999
 10
320.108
 20
80.7139
 10
320.049
 20
80.48390000000001
 10
320.013
 20
80.2456
 10
320
 20
80.0001
 10
320
 20
24
 10
320.013
 20
23.7547
 10
320.049
 20
23.5164
 10
320.108
 20
23.2864
 10
320.189
 20
23.0658
 10
320.29
 20
22.8561
 10
320.41
 20
22.6582
 10
320.549
 20
22.4735
 10
320.703
 20
22.3029
 10
320.874
 20
22.1481
 10
321.058
 20
22.0099
 10
321.257
 20
21.8897
 10
321.467
 20
21.7886
 10
321.686
 20
21.7079
 10
321.917
 20
21.6487
 10
322.156
 20
21.6124
 10
322.4
 20
21.6
 10
322.646
 20
21.6124
 10
322.885
 20
21.6487
 10
323.114
 20
21.7079
 10
323.335
 20
21.7886
 10
323.544
 20
21.8897
 10
323.742
 20
22.0099
 10
323.928
 20
22.1481
 10
324.097
 20
22.3031
 10
324.253
 20
22.4735
 10
324.39
 20
22.6582
 10
324.511
 20
22.8561
 10
324.612
 20
23.0658
 10
324.693
 20
23.2864
 10
324.751
 20
23.5164
 10
324.787
 20
23.7547
 10
324.8
 20
24
 10
335.2
 20
24
 10
335.2
 20
0
 10
320
 20
0
 10
316.496
 20
1.77229
 10
313.01
 20
3.57497
 10
309.542
 20
5.40788
 10
306.092
 20
7.27094
 10
302.662
 20
9.163959999999999
 10
299.251
 20
11.0867
 10
295.86
 20
13.0392
 10
292.486
 20
15.0211
 10
289.133
 20
17.0322
 10
285.801
 20
19.0726
 10
282.487
 20
21.1418
 10
279.194
 20
23.24
 10
275.922
 20
25.3668
 10
272.669
 20
27.5221
 10
269.439
 20
29.7057
 10
266.228
 20
31.9175
 10
263.037
 20
34.1574
 10
259.869
 20
36.425
 10
256.722
 20
38.7204
 10
253.597
 20
41.0433
 10
250.493
 20
43.3936
 10
247.41
 20
45.7711
 10
244.35
 20
48.1756
 10
241.313
 20
50.6069
 10
238.296
 20
53.0651
 10
235.303
 20
55.5499
 10
232.333
 20
58.061
 10
229.386
 20
60.5983
 10
226.461
 20
63.1617
 10
223.56
 20
65.75109999999999
 10
220.682
 20
68.3663
 10
217.828
 20
71.0069
 10
214.997
 20
73.67310000000001
 10
212.19
 20
76.3646
 10
209.408
 20
79.08110000000001
 10
206.65
 20
81.82259999999999
 10
203.917
 20
84.5889
 10
201.207
 20
87.37990000000001
 10
198.522
 20
90.1951
 10
195.864
 20
93.035
 10
193.229
 20
95.89879999999999
 10
190.621
 20
98.7867
 10
188.036
 20
101.698
 10
185.479
 20
104.634
 10
182.947
 20
107.593
 10
180.44
 20
110.575
 10
177.961
 20
113.58
 10
175.507
 20
116.608
 10
173.081
 20
119.66
 10
170.679
 20
122.734
 10
168.307
 20
125.83
 10
165.96
 20
128.949
 10
163.64
 20
132.09
 10
161.349
 20
135.253
 10
159.085
 20
138.438
 10
156.847
 20
141.646
 10
154.639
 20
144.874
 10
152.458
 20
148.124
 10
150.306
 20
151.394
 10
148.182
 20
154.686
 10
146.086
 20
158
 10
144.019
 20
161.333
 10
141.982
 20
164.688
 10
139.972
 20
168.063
 10
137.994
 20
171.456
 10
136.048
 20
174.864
 10
134.134
 20
178.288
 10
132.252
 20
181.726
 10
130.402
 20
185.181
 10
128.585
 20
188.649
 10
126.799
 20
192.131
 10
125.046
 20
195.628
 10
123.326
 20
199.139
 10
121.637
 20
202.663
 10
119.982
 20
206.201
 10
118.358
 20
209.751
 10
116.768
 20
213.317
 10
115.21
 20
216.893
 10
113.685
 20
220.483
 10
112.193
 20
224.085
 10
110.733
 20
227.699
 10
109.307
 20
231.325
 10
107.913
 20
234.963
 10
106.552
 20
238.611
 10
105.225
 20
242.271
 10
103.93
 20
245.943
 10
102.669
 20
249.624
 10
101.441
 20
253.317
 10
100.246
 20
257.019
 10
99.0851
 20
260.732
 10
97.9572
 20
264.454
 10
96.86279999999999
 20
268.186
 10
95.8018
 20
271.928
 10
94.77460000000001
 20
275.678
 10
93.7808
 20
279.438
 10
92.821
 20
283.206
 10
91.8947
 20
286.982
 10
91.00239999999999
 20
290.767
 10
90.1439
 20
294.56
 10
89.3193
 20
298.36
 10
88.5287
 20
302.168
 10
87.7722
 20
305.983
 10
87.0497
 20
309.806
 10
86.36150000000001
 20
313.635
 10
85.70740000000001
 20
317.471
 10
85.08759999999999
 20
321.313
 10
84.5022
 20
325.161
 10
83.9511
 20
329.015
 10
83.4346
 20
332.875
 10
82.9525
 20
336.74
 10
82.505
 20
340.611
 10
82.0921
 20
344.487
 10
81.71380000000001
 20
348.368
 10
81.3703
 20
352.253
 10
81.0615
 20
356.142
 10
80.7876
 20
360.035
 10
80.5487
 20
363.932
 10
80.3447
 20
367.833
 10
80.1758
 20
371.737
 10
80.0419
 20
375.644
 10
79.9432
 20
379.556
 10
79.8796
 20
383.468
 10
79.85129999999999
 20
387.385
 10
79.8582
 20
391.303
 10
79.9006
 20
395.222
 10
79.9785
 20
399.143
 10
80.0917
 20
403.067
 10
80.24039999999999
 20
406.992
 10
80.4247
 20
410.915
 10
80.6442
 20
414.833
 10
80.899
 20
418.747
 10
81.1889
 20
422.657
 10
81.51390000000001
 20
426.561
 10
81.8738
 20
430.461
 10
82.26860000000001
 20
434.354
 10
82.6983
 20
438.242
 10
83.1628
 20
442.124
 10
83.6619
 20
446
 10
84.1957
 20
449.869
 10
84.76390000000001
 20
453.733
 10
85.36669999999999
 20
457.589
 10
86.0038
 20
461.438
 10
86.6751
 20
465.281
 10
87.38079999999999
 20
469.114
 10
88.1206
 20
472.942
 10
88.8944
 20
476.76
 10
89.7024
 20
480.571
 10
90.544
 20
484.372
 10
91.4196
 20
488.167
 10
92.32899999999999
 20
491.951
 10
93.27209999999999
 20
495.728
 10
94.2488
 20
499.494
 10
95.2589
 20
503.251
 10
96.3026
 20
506.999
 10
97.3797
 20
510.736
 10
98.48999999999999
 20
514.4640000000001
 10
99.6336
 20
518.181
 10
100.81
 20
521.886
 10
102.02
 20
525.582
 10
103.263
 20
529.2670000000001
 10
104.539
 20
532.9400000000001
 10
105.847
 20
536.601
 10
107.189
 20
540.251
 10
108.563
 20
543.89
 10
109.969
 20
547.515
 10
111.409
 20
551.129
 10
112.88
 20
554.731
 10
114.384
 20
558.318
 10
115.921
 20
561.893
 10
117.489
 20
565.454
 10
119.09
 20
569.003
 10
120.723
 20
572.537
 10
122.388
 20
576.058
 10
124.085
 20
579.564
 10
125.813
 20
583.057
 10
127.574
 20
586.533
 10
129.366
 20
589.996
 10
131.19
 20
593.443
 10
133.045
 20
596.876
 10
134.932
 20
600.293
 10
136.85
 20
603.693
 10
138.799
 20
607.078
 10
140.781
 20
610.447
 10
142.792
 20
613.8
 10
144.835
 20
617.135
 10
146.91
 20
620.454
 10
149.014
 20
623.756
 10
151.15
 20
627.04
 10
153.317
 20
630.307
 10
155.514
 20
633.557
 10
157.742
 20
636.787
 10
160
 20
640.001
 10
157.678
 20
641.756
 10
155.371
 20
643.526
 10
153.076
 20
645.313
 10
150.796
 20
647.115
 10
148.529
 20
648.9349999999999
 10
146.278
 20
650.768
 10
144.039
 20
652.6180000000001
 10
141.815
 20
654.4829999999999
 10
139.606
 20
656.365
 10
137.411
 20
658.261
 10
135.23
 20
660.172
 10
133.064
 20
662.1
 10
130.912
 20
664.042
 10
128.775
 20
665.999
 10
126.653
 20
667.971
 10
124.546
 20
669.958
 10
122.453
 20
671.96
 10
120.376
 20
673.976
 10
118.313
 20
676.0069999999999
 10
116.265
 20
678.053
 10
114.233
 20
680.1130000000001
 10
112.216
 20
682.188
 10
110.214
 20
684.276
 10
108.228
 20
686.379
 10
106.257
 20
688.496
 10
104.302
 20
690.628
 10
102.362
 20
692.772
 10
100.438
 20
694.931
 10
98.52930000000001
 20
697.103
 10
96.6367
 20
699.289
 10
94.76009999999999
 20
701.489
 10
92.8994
 20
703.703
 10
91.0549
 20
705.929
 10
89.22629999999999
 20
708.168
 10
87.414
 20
710.422
 10
85.61790000000001
 20
712.688
 10
83.8383
 20
714.967
 10
82.075
 20
717.26
 10
80.3282
 20
719.564
 10
78.5979
 20
721.8819999999999
 10
76.8843
 20
724.213
 10
75.1874
 20
726.556
 10
73.5072
 20
728.9109999999999
 10
71.84399999999999
 20
731.279
 10
70.19759999999999
 20
733.66
 10
68.5682
 20
736.053
 10
66.956
 20
738.457
 10
65.3608
 20
740.874
 10
63.7828
 20
743.303
 10
62.2222
 20
745.744
 10
60.6789
 20
748.196
 10
59.1531
 20
750.6609999999999
 10
57.6447
 20
753.1369999999999
 10
56.1539
 20
755.625
 10
54.6808
 20
758.124
 10
53.2254
 20
760.633
 10
51.7878
 20
763.1559999999999
 10
50.3681
 20
765.689
 10
48.9663
 20
768.232
 10
47.5825
 20
770.787
 10
46.2168
 20
773.353
 10
44.8693
 20
775.931
 10
43.5401
 20
778.518
 10
42.2292
 20
781.115
 10
40.9371
 20
783.724
 10
39.6647
 20
786.3390000000001
 10
38.4117
 20
788.9640000000001
 10
37.1783
 20
791.596
 10
35.9646
 20
794.236
 10
34.7706
 20
796.883
 10
33.596
 20
799.539
 10
32.4413
 20
802.201
 10
31.3063
 20
804.872
 10
30.1908
 20
807.55
 10
29.0953
 20
810.236
 10
28.0196
 20
812.928
 10
26.9636
 20
815.626
 10
25.9275
 20
818.333
 10
24.9112
 20
821.046
 10
23.9149
 20
823.7670000000001
 10
22.9385
 20
826.492
 10
21.9819
 20
829.225
 10
21.0454
 20
831.9640000000001
 10
20.129
 20
834.71
 10
19.2325
 20
837.461
 10
18.3561
 20
840.218
 10
17.4997
 20
842.982
 10
16.6635
 20
845.751
 10
15.8474
 20
848.526
 10
15.0514
 20
851.307
 10
14.2756
 20
854.092
 10
13.5201
 20
856.883
 10
12.7847
 20
859.681
 10
12.0697
 20
862.482
 10
11.3748
 20
865.289
 10
10.7004
 20
868.1
 10
10.0463
 20
870.917
 10
9.41249
 20
873.7380000000001
 10
8.799149999999999
 20
876.564
 10
8.20617
 20
879.393
 10
7.63368
 20
882.228
 10
7.08165
 20
885.067
 10
6.55007
 20
887.91
 10
6.03907
 20
890.7569999999999
 10
5.54861
 20
893.607
 10
5.07872
 20
896.463
 10
4.62944
 20
899.321
 10
4.20079
 20
902.182
 10
3.79281
 20
905.047
 10
3.40549
 20
907.917
 10
3.03885
 20
910.789
 10
2.69299
 20
913.664
 10
2.36783
 20
916.542
 10
2.06353
 20
919.422
 10
1.78
 20
922.307
 10
1.51731
 20
925.193
 10
1.2755
 20
928.082
 10
1.05452
 20
930.974
 10
0.854546
 20
933.8680000000001
 10
0.6754559999999999
 20
936.764
 10
0.517361
 20
939.663
 10
0.380263
 20
942.563
 10
0.26416
 20
945.465
 10
0.169108
 20
948.369
 10
0.0951606
 20
951.275
 10
0.0423178
 20
954.182
 10
0.0105794
 20
957.092
 10
0
 20
960.001
 10
80.0001
 20
960.001
 10
80.5347
 20
957.424
 10
81.0972
 20
954.854
 10
81.6872
 20
952.294
 10
82.3049
 20
949.742
 10
82.9499
 20
947.2
 10
83.6221
 20
944.667
 10
84.3214
 20
942.143
 10
85.0476
 20
939.628
 10
85.801
 20
937.124
 10
86.581
 20
934.631
 10
87.38760000000001
 20
932.146
 10
88.221
 20
929.672
 10
89.0806
 20
927.21
 10
89.9665
 20
924.758
 10
90.87860000000001
 20
922.317
 10
91.8168
 20
919.8869999999999
 10
92.7808
 20
917.4690000000001
 10
93.77079999999999
 20
915.063
 10
94.7864
 20
912.668
 10
95.8276
 20
910.2859999999999
 10
96.8942
 20
907.915
 10
97.98609999999999
 20
905.558
 10
99.1032
 20
903.213
 10
100.246
 20
900.881
 10
101.413
 20
898.561
 10
102.605
 20
896.256
 10
103.822
 20
893.963
 10
105.063
 20
891.683
 10
106.329
 20
889.419
 10
107.619
 20
887.168
 10
108.933
 20
884.931
 10
110.272
 20
882.708
 10
111.635
 20
880.501
 10
113.021
 20
878.308
 10
114.431
 20
876.131
 10
115.865
 20
873.968
 10
117.322
 20
871.821
 10
118.803
 20
869.689
 10
120.307
 20
867.574
 10
121.834
 20
865.474
 10
123.385
 20
863.39
 10
124.958
 20
861.322
 10
126.554
 20
859.272
 10
128.172
 20
857.239
 10
129.813
 20
855.222
 10
131.477
 20
853.222
 10
133.163
 20
851.24
 10
134.871
 20
849.276
 10
136.601
 20
847.329
 10
138.353
 20
845.4
 10
140.128
 20
843.49
 10
141.922
 20
841.599
 10
143.74
 20
839.725
 10
145.579
 20
837.869
 10
147.439
 20
836.035
 10
149.319
 20
834.218
 10
151.222
 20
832.421
 10
153.146
 20
830.643
 10
155.09
 20
828.885
 10
157.054
 20
827.147
 10
159.04
 20
825.431
 10
161.046
 20
823.7329999999999
 10
163.072
 20
822.056
 10
165.119
 20
820.4
 10
167.185
 20
818.7670000000001
 10
169.265
 20
817.158
 10
171.361
 20
815.574
 10
173.472
 20
814.014
 10
175.599
 20
812.478
 10
177.74
 20
810.967
 10
179.897
 20
809.481
 10
182.068
 20
808.019
 10
184.253
 20
806.583
 10
186.453
 20
805.171
 10
188.665
 20
803.785
 10
190.892
 20
802.422
 10
193.132
 20
801.086
 10
195.385
 20
799.775
 10
197.651
 20
798.489
 10
199.931
 20
797.228
 10
202.222
 20
795.9930000000001
 10
204.526
 20
794.783
 10
206.842
 20
793.599
 10
209.169
 20
792.4400000000001
 10
211.508
 20
791.308
 10
213.86
 20
790.201
 10
216.222
 20
789.121
 10
218.594
 20
788.0650000000001
 10
220.978
 20
787.0359999999999
 10
223.372
 20
786.033
 10
225.778
 20
785.057
 10
228.192
 20
784.106
 10
230.617
 20
783.182
 10
233.051
 20
782.283
 10
235.494
 20
781.412
 10
237.947
 20
780.568
 10
240.41
 20
779.75
 10
242.881
 20
778.958
 10
245.36
 20
778.194
 10
247.847
 20
777.456
 10
250.343
 20
776.746
 10
252.847
 20
776.061
 10
255.358
 20
775.404
 10
257.878
 20
774.775
 10
260.404
 20
774.172
 10
262.936
 20
773.597
 10
265.476
 20
773.05
 10
268.024
 20
772.529
 10
270.576
 20
772.0359999999999
 10
273.135
 20
771.571
 10
275.7
 20
771.133
 10
278.271
 20
770.724
 10
280.847
 20
770.342
 10
283.429
 20
769.9880000000001
 10
286.015
 20
769.662
 10
288.607
 20
769.364
 10
291.203
 20
769.0940000000001
 10
293.803
 20
768.853
 10
296.408
 20
768.639
 10
299.017
 20
768.454
 10
301.629
 20
768.297
 10
304.244
 20
768.168
 10
306.864
 20
768.069
 10
309.486
 20
767.997
 10
312.111
 20
767.956
 10
314.737
 20
767.942
 10
317.368
 20
767.957
 10
320
 20
768.001
 10
320
 20
752.001
 10
264
 20
752.001
 10
263.756
 20
751.989
 10
263.517
 20
751.953
 10
263.286
 20
751.893
 10
263.067
 20
751.813
 10
262.857
 20
751.711
 10
262.658
 20
751.592
 10
262.474
 20
751.453
 10
262.303
 20
751.299
 10
262.149
 20
751.128
 10
262.01
 20
750.943
 10
261.89
 20
750.744
 10
261.789
 20
750.535
 10
261.708
 20
750.3150000000001
 10
261.649
 20
750.085
 10
261.612
 20
749.846
 10
261.6
 20
749.601
 10
261.612
 20
749.356
 10
261.649
 20
749.1180000000001
 10
261.708
 20
748.8869999999999
 10
261.789
 20
748.667
 10
261.89
 20
748.457
 10
262.01
 20
748.26
 10
262.149
 20
748.075
 10
262.303
 20
747.904
 10
262.474
 20
747.749
 10
262.658
 20
747.611
 10
262.857
 20
747.49
 10
263.067
 20
747.39
 10
263.286
 20
747.3099999999999
 10
263.517
 20
747.25
 10
263.756
 20
747.2140000000001
 10
264
 20
747.201
 10
264
 20
743.201
 10
263.756
 20
743.189
 10
263.517
 20
743.153
 10
263.286
 20
743.093
 10
263.067
 20
743.0119999999999
 10
262.857
 20
742.9109999999999
 10
262.658
 20
742.792
 10
262.474
 20
742.653
 10
262.303
 20
742.499
 10
262.149
 20
742.328
 10
262.01
 20
742.143
 10
261.89
 20
741.944
 10
261.789
 20
741.735
 10
261.708
 20
741.515
 10
261.649
 20
741.285
 10
261.612
 20
741.046
 10
261.6
 20
740.801
 10
261.612
 20
740.556
 10
261.649
 20
740.318
 10
261.708
 20
740.088
 10
261.789
 20
739.867
 10
261.89
 20
739.657
 10
262.01
 20
739.46
 10
262.149
 20
739.275
 10
262.303
 20
739.104
 10
262.474
 20
738.949
 10
262.658
 20
738.811
 10
262.857
 20
738.6900000000001
 10
263.067
 20
738.59
 10
263.286
 20
738.508
 10
263.517
 20
738.45
 10
263.756
 20
738.414
 10
264
 20
738.401
 10
320
 20
738.401
 10
320
 20
712.001
 10
320.013
 20
711.756
 10
320.049
 20
711.518
 10
320.108
 20
711.287
 10
320.189
 20
711.067
 10
320.29
 20
710.857
 10
320.41
 20
710.66
 10
320.549
 20
710.475
 10
320.703
 20
710.304
 10
320.874
 20
710.149
 10
321.058
 20
710.011
 10
321.257
 20
709.89
 10
321.467
 20
709.79
 10
321.686
 20
709.708
 10
321.917
 20
709.65
 10
322.156
 20
709.614
 10
322.4
 20
709.601
 10
322.646
 20
709.614
 10
322.885
 20
709.65
 10
323.114
 20
709.708
 10
323.335
 20
709.79
 10
323.544
 20
709.89
 10
323.742
 20
710.011
 10
323.928
 20
710.149
 10
324.097
 20
710.304
 10
324.253
 20
710.475
 10
324.39
 20
710.66
 10
324.511
 20
710.857
 10
324.612
 20
711.067
 10
324.693
 20
711.287
 10
324.751
 20
711.518
 10
324.787
 20
711.756
 10
324.8
 20
712.001
 10
335.2
 20
712.001
 10
335.2
 20
504.001
 10
324.8
 20
504.001
 10
324.787
 20
504.246
 10
324.751
 20
504.485
 10
324.693
 20
504.714
 10
324.612
 20
504.935
 10
324.511
 20
505.144
 10
324.39
 20
505.343
 10
324.253
 20
505.528
 10
324.097
 20
505.697
 10
323.928
 20
505.853
 10
323.742
 20
505.99
 10
323.544
 20
506.111
 10
323.335
 20
506.213
 10
323.114
 20
506.293
 10
322.885
 20
506.351
 10
322.646
 20
506.389
 10
322.4
 20
506.401
 10
322.156
 20
506.389
 10
321.917
 20
506.351
 10
321.686
 20
506.293
 10
321.467
 20
506.213
 10
321.257
 20
506.111
 10
321.058
 20
505.99
 10
320.874
 20
505.853
 10
320.703
 20
505.697
 10
320.549
 20
505.528
 10
320.41
 20
505.343
 10
320.29
 20
505.144
 10
320.189
 20
504.935
 10
320.108
 20
504.714
 10
320.049
 20
504.485
 10
320.013
 20
504.246
 10
320
 20
504.001
 10
320
 20
488.001
 10
264
 20
488.001
 10
263.756
 20
487.989
 10
263.517
 20
487.951
 10
263.286
 20
487.893
 10
263.067
 20
487.813
 10
262.857
 20
487.711
 10
262.658
 20
487.59
 10
262.474
 20
487.453
 10
262.303
 20
487.297
 10
262.149
 20
487.128
 10
262.01
 20
486.943
 10
261.89
 20
486.744
 10
261.789
 20
486.535
 10
261.708
 20
486.314
 10
261.649
 20
486.085
 10
261.612
 20
485.846
 10
261.6
 20
485.601
 10
261.612
 20
485.356
 10
261.649
 20
485.117
 10
261.708
 20
484.887
 10
261.789
 20
484.667
 10
261.89
 20
484.457
 10
262.01
 20
484.258
 10
262.149
 20
484.074
 10
262.303
 20
483.904
 10
262.474
 20
483.749
 10
262.658
 20
483.611
 10
262.857
 20
483.49
 10
263.067
 20
483.389
 10
263.286
 20
483.308
 10
263.517
 20
483.25
 10
263.756
 20
483.213
 10
264
 20
483.2
 10
264
 20
479.2
 10
263.763
 20
479.189
 10
263.531
 20
479.154
 10
263.303
 20
479.097
 10
263.082
 20
479.018
 10
262.871
 20
478.918
 10
262.669
 20
478.797
 10
262.479
 20
478.657
 10
262.303
 20
478.497
 10
262.144
 20
478.322
 10
262.004
 20
478.132
 10
261.883
 20
477.931
 10
261.783
 20
477.719
 10
261.704
 20
477.499
 10
261.647
 20
477.271
 10
261.612
 20
477.037
 10
261.6
 20
476.8
 10
261.612
 20
476.564
 10
261.647
 20
476.331
 10
261.704
 20
476.103
 10
261.783
 20
475.882
 10
261.883
 20
475.671
 10
262.004
 20
475.469
 10
262.144
 20
475.279
 10
262.303
 20
475.104
 10
262.479
 20
474.944
 10
262.669
 20
474.804
 10
262.871
 20
474.683
 10
263.082
 20
474.583
 10
263.303
 20
474.504
 10
263.531
 20
474.447
 10
263.763
 20
474.412
 10
264
 20
474.4
 10
320
 20
474.4
 10
320
 20
448
 10
320.013
 20
447.756
 10
320.049
 20
447.517
 10
320.108
 20
447.287
 10
320.189
 20
447.067
 10
320.29
 20
446.857
 10
320.41
 20
446.658
 10
320.549
 20
446.474
 10
320.703
 20
446.304
 10
320.874
 20
446.149
 10
321.058
 20
446.011
 10
321.257
 20
445.89
 10
321.467
 20
445.789
 10
321.686
 20
445.708
 10
321.917
 20
445.65
 10
322.156
 20
445.612
 10
322.4
 20
445.6
 10
322.638
 20
445.612
 10
322.871
 20
445.647
 10
323.099
 20
445.704
 10
323.319
 20
445.783
 10
323.531
 20
445.883
 10
323.732
 20
446.004
 10
323.921
 20
446.144
 10
324.097
 20
446.304
 10
324.257
 20
446.479
 10
324.397
 20
446.669
 10
324.518
 20
446.871
 10
324.618
 20
447.082
 10
324.697
 20
447.303
 10
324.754
 20
447.531
 10
324.789
 20
447.764
 10
324.8
 20
448
 10
335.2
 20
448
 10
335.2
 20
264
 10
324.8
 20
264
 10
324.787
 20
264.246
 10
324.751
 20
264.485
 10
324.693
 20
264.714
 10
324.612
 20
264.935
 10
324.511
 20
265.144
 10
324.39
 20
265.342
 10
324.253
 20
265.526
 10
324.097
 20
265.697
 10
323.928
 20
265.853
 10
323.742
 20
265.99
 10
323.544
 20
266.111
 10
323.335
 20
266.213
 10
323.114
 20
266.293
 10
322.885
 20
266.351
 10
322.646
 20
266.388
 10
322.4
 20
266.4
 10
322.156
 20
266.388
 10
321.917
 20
266.351
 10
321.686
 20
266.293
 10
321.467
 20
266.213
 10
321.257
 20
266.111
 10
321.058
 20
265.99
 10
320.874
 20
265.853
 10
320.703
 20
265.697
 10
320.549
 20
265.526
 10
320.41
 20
265.342
 10
320.29
 20
265.144
 10
320.189
 20
264.935
 10
320.108
 20
264.714
 10
320.049
 20
264.485
 10
320.013
 20
264.246
 10
320
 20
264
 10
320
 20
240
 10
264
 20
240
 10
263.763
 20
239.989
 10
263.531
 20
239.954
 10
263.303
 20
239.897
 10
263.082
 20
239.818
 10
262.871
 20
239.718
 10
262.669
 20
239.597
 10
262.479
 20
239.457
 10
262.303
 20
239.297
 10
262.144
 20
239.121
 10
262.004
 20
238.932
 10
261.883
 20
238.731
 10
261.783
 20
238.519
 10
261.704
 20
238.299
 10
261.647
 20
238.071
 10
261.612
 20
237.838
 10
261.6
 20
237.6
 10
261.612
 20
237.362
 10
261.647
 20
237.131
 10
261.704
 20
236.903
 10
261.783
 20
236.682
 10
261.883
 20
236.471
 10
262.004
 20
236.269
 10
262.144
 20
236.079
 10
262.303
 20
235.903
 10
262.479
 20
235.744
 10
262.669
 20
235.604
 10
262.871
 20
235.483
 10
263.082
 20
235.383
 10
263.303
 20
235.304
 10
263.531
 20
235.247
 10
263.763
 20
235.213
 10
264
 20
235.2
 10
264
 20
231.2
 10
263.756
 20
231.188
 10
263.517
 20
231.151
 10
263.286
 20
231.093
 10
263.067
 20
231.011
 10
262.857
 20
230.911
 10
262.658
 20
230.79
 10
262.474
 20
230.653
 10
262.303
 20
230.497
 10
262.149
 20
230.326
 10
262.01
 20
230.142
 10
261.89
 20
229.944
 10
261.789
 20
229.735
 10
261.708
 20
229.514
 10
261.649
 20
229.285
 10
261.612
 20
229.046
 10
261.6
 20
228.8
 10
261.612
 20
228.556
 10
261.649
 20
228.317
 10
261.708
 20
228.086
 10
261.789
 20
227.867
 10
261.89
 20
227.657
 10
262.01
 20
227.458
 10
262.149
 20
227.274
 10
262.303
 20
227.103
 10
262.474
 20
226.949
 10
262.658
 20
226.81
 10
262.857
 20
226.69
 10
263.067
 20
226.589
 10
263.286
 20
226.508
 10
263.517
 20
226.449
 10
263.756
 20
226.413
 10
264
 20
226.4
 10
320
 20
226.4
 10
320
 20
208
 10
320.013
 20
207.756
 10
320.049
 20
207.517
 10
320.108
 20
207.286
 10
320.189
 20
207.067
 10
320.29
 20
206.857
 10
320.41
 20
206.658
 10
320.549
 20
206.474
 10
320.703
 20
206.303
 10
320.874
 20
206.149
 10
321.058
 20
206.01
 10
321.257
 20
205.89
 10
321.467
 20
205.789
 10
321.686
 20
205.708
 10
321.917
 20
205.649
 10
322.156
 20
205.612
 10
322.4
 20
205.6
 10
322.646
 20
205.612
 10
322.885
 20
205.649
 10
323.114
 20
205.708
 10
323.335
 20
205.789
 10
323.544
 20
205.89
 10
323.742
 20
206.01
 10
323.928
 20
206.149
 10
324.097
 20
206.303
 10
324.253
 20
206.474
 10
324.39
 20
206.658
 10
324.511
 20
206.857
 10
324.612
 20
207.067
 10
324.693
 20
207.286
 10
324.751
 20
207.517
 10
324.787
 20
207.756
 10
324.8
 20
208
 10
335.2
 20
208
 10
335.2
 20
80.0001
 10
324.8
 20
80.0001
  0
LWPOLYLINE
  5
4E
100
AcDbEntity
  8
0
  6
ByLayer
 62
    0
370
   -1
100
AcDbPolyline
 90
  133
 70
    1
 43
0
 10
120
 20
235.2
 10
120
 20
231.2
 10
119.763
 20
231.189
 10
119.53
 20
231.154
 10
119.302
 20
231.097
 10
119.082
 20
231.018
 10
118.87
 20
230.918
 10
118.669
 20
230.797
 10
118.479
 20
230.657
 10
118.303
 20
230.497
 10
118.144
 20
230.321
 10
118.003
 20
230.132
 10
117.883
 20
229.931
 10
117.783
 20
229.719
 10
117.704
 20
229.499
 10
117.647
 20
229.271
 10
117.612
 20
229.037
 10
117.6
 20
228.8
 10
117.612
 20
228.563
 10
117.647
 20
228.331
 10
117.704
 20
228.103
 10
117.783
 20
227.882
 10
117.883
 20
227.671
 10
118.003
 20
227.469
 10
118.144
 20
227.279
 10
118.303
 20
227.103
 10
118.479
 20
226.944
 10
118.669
 20
226.804
 10
118.87
 20
226.683
 10
119.082
 20
226.583
 10
119.302
 20
226.504
 10
119.53
 20
226.447
 10
119.763
 20
226.413
 10
120
 20
226.4
 10
168
 20
226.4
 10
168.246
 20
226.413
 10
168.483
 20
226.449
 10
168.714
 20
226.508
 10
168.935
 20
226.589
 10
169.144
 20
226.69
 10
169.342
 20
226.81
 10
169.526
 20
226.949
 10
169.697
 20
227.103
 10
169.853
 20
227.274
 10
169.99
 20
227.458
 10
170.111
 20
227.657
 10
170.211
 20
227.867
 10
170.293
 20
228.086
 10
170.351
 20
228.317
 10
170.388
 20
228.556
 10
170.4
 20
228.8
 10
170.388
 20
229.046
 10
170.351
 20
229.285
 10
170.292
 20
229.514
 10
170.211
 20
229.735
 10
170.111
 20
229.944
 10
169.99
 20
230.142
 10
169.853
 20
230.326
 10
169.697
 20
230.497
 10
169.526
 20
230.653
 10
169.342
 20
230.79
 10
169.144
 20
230.911
 10
168.935
 20
231.011
 10
168.714
 20
231.093
 10
168.483
 20
231.151
 10
168.246
 20
231.188
 10
168
 20
231.2
 10
168
 20
235.2
 10
168.246
 20
235.213
 10
168.483
 20
235.249
 10
168.714
 20
235.308
 10
168.935
 20
235.389
 10
169.144
 20
235.49
 10
169.342
 20
235.61
 10
169.526
 20
235.749
 10
169.697
 20
235.903
 10
169.853
 20
236.074
 10
169.99
 20
236.258
 10
170.111
 20
236.457
 10
170.211
 20
236.667
 10
170.293
 20
236.886
 10
170.351
 20
237.117
 10
170.388
 20
237.356
 10
170.4
 20
237.6
 10
170.388
 20
237.846
 10
170.351
 20
238.085
 10
170.293
 20
238.314
 10
170.211
 20
238.535
 10
170.111
 20
238.744
 10
169.99
 20
238.942
 10
169.853
 20
239.126
 10
169.697
 20
239.297
 10
169.526
 20
239.453
 10
169.342
 20
239.59
 10
169.144
 20
239.711
 10
168.935
 20
239.811
 10
168.714
 20
239.893
 10
168.483
 20
239.951
 10
168.246
 20
239.987
 10
168
 20
240
 10
120
 20
240
 10
119.755
 20
239.987
 10
119.516
 20
239.951
 10
119.287
 20
239.893
 10
119.066
 20
239.811
 10
118.856
 20
239.711
 10
118.658
 20
239.59
 10
118.473
 20
239.453
 10
118.303
 20
239.297
 10
118.148
 20
239.126
 10
118.01
 20
238.942
 10
117.89
 20
238.744
 10
117.789
 20
238.535
 10
117.708
 20
238.314
 10
117.649
 20
238.085
 10
117.612
 20
237.846
 10
117.6
 20
237.6
 10
117.612
 20
237.356
 10
117.649
 20
237.117
 10
117.708
 20
236.886
 10
117.789
 20
236.667
 10
117.89
 20
236.457
 10
118.01
 20
236.258
 10
118.148
 20
236.074
 10
118.303
 20
235.903
 10
118.473
 20
235.749
 10
118.658
 20
235.61
 10
118.856
 20
235.49
 10
119.066
 20
235.389
 10
119.287
 20
235.308
 10
119.516
 20
235.249
 10
119.755
 20
235.213
 10
120
 20
235.2
  0
LWPOLYLINE
  5
4F
100
AcDbEntity
  8
0
  6
ByLayer
 62
    0
370
   -1
100
AcDbPolyline
 90
  133
 70
    1
 43
0
 10
168
 20
479.2
 10
168
 20
483.2
 10
168.246
 20
483.213
 10
168.483
 20
483.25
 10
168.714
 20
483.308
 10
168.935
 20
483.389
 10
169.144
 20
483.49
 10
169.342
 20
483.611
 10
169.526
 20
483.749
 10
169.697
 20
483.904
 10
169.853
 20
484.074
 10
169.99
 20
484.258
 10
170.111
 20
484.457
 10
170.211
 20
484.667
 10
170.293
 20
484.887
 10
170.351
 20
485.117
 10
170.388
 20
485.356
 10
170.4
 20
485.601
 10
170.388
 20
485.846
 10
170.351
 20
486.085
 10
170.293
 20
486.314
 10
170.211
 20
486.535
 10
170.111
 20
486.744
 10
169.99
 20
486.943
 10
169.853
 20
487.128
 10
169.697
 20
487.297
 10
169.526
 20
487.453
 10
169.342
 20
487.59
 10
169.144
 20
487.711
 10
168.935
 20
487.813
 10
168.714
 20
487.893
 10
168.483
 20
487.951
 10
168.246
 20
487.989
 10
168
 20
488.001
 10
112
 20
488.001
 10
111.755
 20
487.989
 10
111.516
 20
487.951
 10
111.287
 20
487.893
 10
111.066
 20
487.813
 10
110.856
 20
487.711
 10
110.658
 20
487.59
 10
110.473
 20
487.453
 10
110.303
 20
487.297
 10
110.148
 20
487.128
 10
110.01
 20
486.943
 10
109.89
 20
486.744
 10
109.789
 20
486.535
 10
109.708
 20
486.314
 10
109.649
 20
486.085
 10
109.613
 20
485.846
 10
109.6
 20
485.601
 10
109.613
 20
485.356
 10
109.649
 20
485.117
 10
109.708
 20
484.887
 10
109.789
 20
484.667
 10
109.89
 20
484.457
 10
110.01
 20
484.258
 10
110.148
 20
484.074
 10
110.303
 20
483.904
 10
110.473
 20
483.749
 10
110.658
 20
483.611
 10
110.856
 20
483.49
 10
111.066
 20
483.389
 10
111.287
 20
483.308
 10
111.516
 20
483.25
 10
111.755
 20
483.213
 10
112
 20
483.2
 10
112
 20
479.2
 10
111.763
 20
479.189
 10
111.53
 20
479.154
 10
111.302
 20
479.097
 10
111.082
 20
479.018
 10
110.87
 20
478.918
 10
110.669
 20
478.797
 10
110.479
 20
478.657
 10
110.303
 20
478.497
 10
110.144
 20
478.322
 10
110.003
 20
478.132
 10
109.883
 20
477.931
 10
109.783
 20
477.719
 10
109.704
 20
477.499
 10
109.647
 20
477.271
 10
109.612
 20
477.037
 10
109.6
 20
476.8
 10
109.612
 20
476.564
 10
109.647
 20
476.331
 10
109.704
 20
476.103
 10
109.783
 20
475.882
 10
109.883
 20
475.671
 10
110.003
 20
475.469
 10
110.144
 20
475.279
 10
110.303
 20
475.104
 10
110.479
 20
474.944
 10
110.669
 20
474.804
 10
110.87
 20
474.683
 10
111.082
 20
474.583
 10
111.302
 20
474.504
 10
111.53
 20
474.447
 10
111.763
 20
474.412
 10
112
 20
474.4
 10
168
 20
474.4
 10
168.237
 20
474.412
 10
168.471
 20
474.447
 10
168.699
 20
474.504
 10
168.918
 20
474.583
 10
169.131
 20
474.683
 10
169.332
 20
474.804
 10
169.521
 20
474.944
 10
169.697
 20
475.104
 10
169.857
 20
475.279
 10
169.997
 20
475.469
 10
170.118
 20
475.671
 10
170.218
 20
475.882
 10
170.296
 20
476.103
 10
170.354
 20
476.331
 10
170.389
 20
476.564
 10
170.4
 20
476.8
 10
170.389
 20
477.037
 10
170.354
 20
477.271
 10
170.296
 20
477.499
 10
170.218
 20
477.719
 10
170.118
 20
477.931
 10
169.997
 20
478.132
 10
169.857
 20
478.322
 10
169.697
 20
478.497
 10
169.521
 20
478.657
 10
169.332
 20
478.797
 10
169.131
 20
478.918
 10
168.918
 20
479.018
 10
168.699
 20
479.097
 10
168.471
 20
479.154
 10
168.237
 20
479.189
 10
168
 20
479.2
  0
LWPOLYLINE
  5
50
100
AcDbEntity
  8
0
  6
ByLayer
 62
    0
370
   -1
100
AcDbPolyline
 90
  133
 70
    1
 43
0
 10
112
 20
743.201
 10
111.755
 20
743.189
 10
111.516
 20
743.153
 10
111.287
 20
743.093
 10
111.066
 20
743.0119999999999
 10
110.856
 20
742.9109999999999
 10
110.658
 20
742.792
 10
110.473
 20
742.653
 10
110.303
 20
742.499
 10
110.148
 20
742.328
 10
110.01
 20
742.143
 10
109.89
 20
741.944
 10
109.789
 20
741.735
 10
109.708
 20
741.515
 10
109.649
 20
741.285
 10
109.613
 20
741.046
 10
109.6
 20
740.801
 10
109.613
 20
740.556
 10
109.649
 20
740.318
 10
109.708
 20
740.088
 10
109.789
 20
739.867
 10
109.89
 20
739.657
 10
110.01
 20
739.46
 10
110.148
 20
739.275
 10
110.303
 20
739.104
 10
110.473
 20
738.949
 10
110.658
 20
738.811
 10
110.856
 20
738.6900000000001
 10
111.066
 20
738.59
 10
111.287
 20
738.508
 10
111.516
 20
738.45
 10
111.755
 20
738.414
 10
112
 20
738.401
 10
168
 20
738.401
 10
168.246
 20
738.414
 10
168.483
 20
738.45
 10
168.714
 20
738.508
 10
168.935
 20
738.59
 10
169.144
 20
738.6900000000001
 10
169.342
 20
738.811
 10
169.526
 20
738.949
 10
169.697
 20
739.104
 10
169.853
 20
739.275
 10
169.99
 20
739.46
 10
170.111
 20
739.657
 10
170.211
 20
739.867
 10
170.293
 20
740.088
 10
170.351
 20
740.318
 10
170.388
 20
740.556
 10
170.4
 20
740.801
 10
170.388
 20
741.046
 10
170.351
 20
741.285
 10
170.293
 20
741.515
 10
170.211
 20
741.735
 10
170.111
 20
741.944
 10
169.99
 20
742.143
 10
169.853
 20
742.328
 10
169.697
 20
742.499
 10
169.526
 20
742.653
 10
169.342
 20
742.792
 10
169.144
 20
742.9109999999999
 10
168.935
 20
743.0119999999999
 10
168.714
 20
743.093
 10
168.483
 20
743.153
 10
168.246
 20
743.189
 10
168
 20
743.201
 10
168
 20
747.201
 10
168.246
 20
747.2140000000001
 10
168.483
 20
747.25
 10
168.714
 20
747.3099999999999
 10
168.935
 20
747.39
 10
169.144
 20
747.49
 10
169.342
 20
747.611
 10
169.526
 20
747.749
 10
169.697
 20
747.904
 10
169.853
 20
748.075
 10
169.99
 20
748.26
 10
170.111
 20
748.457
 10
170.211
 20
748.667
 10
170.293
 20
748.8869999999999
 10
170.351
 20
749.1180000000001
 10
170.388
 20
749.356
 10
170.4
 20
749.601
 10
170.388
 20
749.846
 10
170.351
 20
750.085
 10
170.293
 20
750.3150000000001
 10
170.211
 20
750.535
 10
170.111
 20
750.744
 10
169.99
 20
750.943
 10
169.853
 20
751.128
 10
169.697
 20
751.299
 10
169.526
 20
751.453
 10
169.342
 20
751.592
 10
169.144
 20
751.711
 10
168.935
 20
751.813
 10
168.714
 20
751.893
 10
168.483
 20
751.953
 10
168.246
 20
751.989
 10
168
 20
752.001
 10
112
 20
752.001
 10
111.755
 20
751.989
 10
111.516
 20
751.953
 10
111.287
 20
751.893
 10
111.066
 20
751.813
 10
110.856
 20
751.711
 10
110.658
 20
751.592
 10
110.473
 20
751.453
 10
110.303
 20
751.299
 10
110.148
 20
751.128
 10
110.01
 20
750.943
 10
109.89
 20
750.744
 10
109.789
 20
750.535
 10
109.708
 20
750.3150000000001
 10
109.649
 20
750.085
 10
109.613
 20
749.846
 10
109.6
 20
749.601
 10
109.613
 20
749.356
 10
109.649
 20
749.1180000000001
 10
109.708
 20
748.8869999999999
 10
109.789
 20
748.667
 10
109.89
 20
748.457
 10
110.01
 20
748.26
 10
110.148
 20
748.075
 10
110.303
 20
747.904
 10
110.473
 20
747.749
 10
110.658
 20
747.611
 10
110.856
 20
747.49
 10
111.066
 20
747.39
 10
111.287
 20
747.3099999999999
 10
111.516
 20
747.25
 10
111.755
 20
747.2140000000001
 10
112
 20
747.201
 10
112
 20
743.201
  0
LWPOLYLINE
  5
51
100
AcDbEntity
  8
0
  6
ByLayer
 62
    0
370
   -1
100
AcDbPolyline
 90
  926
 70
    1
 43
0
 10
431.8
 20
474.4
 10
432.037
 20
474.412
 10
432.271
 20
474.447
 10
432.499
 20
474.504
 10
432.719
 20
474.583
 10
432.931
 20
474.683
 10
433.132
 20
474.804
 10
433.322
 20
474.944
 10
433.497
 20
475.104
 10
433.657
 20
475.279
 10
433.797
 20
475.469
 10
433.918
 20
475.671
 10
434.018
 20
475.882
 10
434.097
 20
476.103
 10
434.154
 20
476.331
 10
434.189
 20
476.564
 10
434.2
 20
476.8
 10
434.189
 20
477.037
 10
434.154
 20
477.271
 10
434.097
 20
477.499
 10
434.018
 20
477.719
 10
433.918
 20
477.931
 10
433.797
 20
478.132
 10
433.657
 20
478.322
 10
433.497
 20
478.497
 10
433.322
 20
478.657
 10
433.132
 20
478.797
 10
432.931
 20
478.918
 10
432.719
 20
479.018
 10
432.499
 20
479.097
 10
432.271
 20
479.154
 10
432.037
 20
479.189
 10
431.8
 20
479.2
 10
431.8
 20
483.2
 10
432.037
 20
483.213
 10
432.271
 20
483.247
 10
432.499
 20
483.304
 10
432.719
 20
483.383
 10
432.931
 20
483.483
 10
433.132
 20
483.604
 10
433.322
 20
483.744
 10
433.497
 20
483.904
 10
433.657
 20
484.079
 10
433.797
 20
484.269
 10
433.918
 20
484.471
 10
434.018
 20
484.682
 10
434.097
 20
484.903
 10
434.154
 20
485.131
 10
434.189
 20
485.364
 10
434.2
 20
485.601
 10
434.189
 20
485.838
 10
434.154
 20
486.071
 10
434.097
 20
486.299
 10
434.018
 20
486.519
 10
433.918
 20
486.731
 10
433.797
 20
486.932
 10
433.657
 20
487.122
 10
433.497
 20
487.297
 10
433.322
 20
487.457
 10
433.132
 20
487.597
 10
432.931
 20
487.718
 10
432.719
 20
487.818
 10
432.499
 20
487.897
 10
432.271
 20
487.954
 10
432.037
 20
487.989
 10
431.8
 20
488.001
 10
360.6
 20
488.001
 10
360.6
 20
504.001
 10
371
 20
504.001
 10
371.013
 20
503.756
 10
371.049
 20
503.517
 10
371.108
 20
503.287
 10
371.189
 20
503.067
 10
371.29
 20
502.857
 10
371.41
 20
502.658
 10
371.549
 20
502.474
 10
371.703
 20
502.304
 10
371.874
 20
502.149
 10
372.058
 20
502.011
 10
372.257
 20
501.89
 10
372.467
 20
501.789
 10
372.686
 20
501.708
 10
372.917
 20
501.65
 10
373.156
 20
501.613
 10
373.4
 20
501.601
 10
373.646
 20
501.613
 10
373.885
 20
501.65
 10
374.114
 20
501.708
 10
374.335
 20
501.789
 10
374.544
 20
501.89
 10
374.742
 20
502.011
 10
374.928
 20
502.149
 10
375.097
 20
502.304
 10
375.253
 20
502.474
 10
375.39
 20
502.658
 10
375.511
 20
502.857
 10
375.612
 20
503.067
 10
375.693
 20
503.287
 10
375.751
 20
503.517
 10
375.787
 20
503.756
 10
375.8
 20
504.001
 10
375.8
 20
712.001
 10
375.789
 20
712.239
 10
375.754
 20
712.471
 10
375.697
 20
712.699
 10
375.618
 20
712.919
 10
375.518
 20
713.131
 10
375.397
 20
713.332
 10
375.257
 20
713.522
 10
375.097
 20
713.699
 10
374.922
 20
713.857
 10
374.732
 20
713.997
 10
374.531
 20
714.1180000000001
 10
374.319
 20
714.218
 10
374.099
 20
714.297
 10
373.871
 20
714.354
 10
373.638
 20
714.389
 10
373.4
 20
714.401
 10
373.156
 20
714.389
 10
372.917
 20
714.353
 10
372.686
 20
714.293
 10
372.467
 20
714.213
 10
372.257
 20
714.111
 10
372.058
 20
713.992
 10
371.874
 20
713.853
 10
371.703
 20
713.699
 10
371.549
 20
713.528
 10
371.41
 20
713.343
 10
371.29
 20
713.144
 10
371.189
 20
712.9349999999999
 10
371.108
 20
712.715
 10
371.049
 20
712.485
 10
371.013
 20
712.246
 10
371
 20
712.001
 10
360.6
 20
712.001
 10
360.6
 20
738.401
 10
431.8
 20
738.401
 10
432.046
 20
738.414
 10
432.285
 20
738.45
 10
432.514
 20
738.508
 10
432.735
 20
738.59
 10
432.944
 20
738.6900000000001
 10
433.143
 20
738.811
 10
433.328
 20
738.949
 10
433.497
 20
739.104
 10
433.653
 20
739.275
 10
433.79
 20
739.46
 10
433.911
 20
739.657
 10
434.013
 20
739.867
 10
434.093
 20
740.088
 10
434.151
 20
740.318
 10
434.189
 20
740.556
 10
434.2
 20
740.801
 10
434.189
 20
741.046
 10
434.151
 20
741.285
 10
434.093
 20
741.515
 10
434.013
 20
741.735
 10
433.911
 20
741.944
 10
433.79
 20
742.143
 10
433.653
 20
742.328
 10
433.497
 20
742.499
 10
433.328
 20
742.653
 10
433.143
 20
742.792
 10
432.944
 20
742.9109999999999
 10
432.735
 20
743.0119999999999
 10
432.514
 20
743.093
 10
432.285
 20
743.153
 10
432.046
 20
743.189
 10
431.8
 20
743.201
 10
431.8
 20
747.201
 10
432.046
 20
747.2140000000001
 10
432.285
 20
747.25
 10
432.514
 20
747.3099999999999
 10
432.735
 20
747.39
 10
432.944
 20
747.49
 10
433.143
 20
747.611
 10
433.328
 20
747.749
 10
433.497
 20
747.904
 10
433.653
 20
748.075
 10
433.79
 20
748.26
 10
433.911
 20
748.457
 10
434.013
 20
748.667
 10
434.093
 20
748.8869999999999
 10
434.151
 20
749.1180000000001
 10
434.189
 20
749.356
 10
434.2
 20
749.601
 10
434.189
 20
749.846
 10
434.151
 20
750.085
 10
434.093
 20
750.3150000000001
 10
434.013
 20
750.535
 10
433.911
 20
750.744
 10
433.79
 20
750.943
 10
433.653
 20
751.128
 10
433.497
 20
751.299
 10
433.328
 20
751.453
 10
433.143
 20
751.592
 10
432.944
 20
751.711
 10
432.735
 20
751.813
 10
432.514
 20
751.893
 10
432.285
 20
751.953
 10
432.046
 20
751.989
 10
431.8
 20
752.001
 10
360.6
 20
752.001
 10
360.6
 20
768.001
 10
371
 20
768.001
 10
371.013
 20
767.756
 10
371.049
 20
767.518
 10
371.108
 20
767.287
 10
371.189
 20
767.067
 10
371.29
 20
766.857
 10
371.41
 20
766.66
 10
371.549
 20
766.475
 10
371.703
 20
766.304
 10
371.874
 20
766.149
 10
372.058
 20
766.011
 10
372.257
 20
765.89
 10
372.467
 20
765.79
 10
372.686
 20
765.71
 10
372.917
 20
765.65
 10
373.156
 20
765.614
 10
373.4
 20
765.601
 10
373.646
 20
765.614
 10
373.885
 20
765.65
 10
374.114
 20
765.71
 10
374.335
 20
765.79
 10
374.544
 20
765.89
 10
374.742
 20
766.011
 10
374.928
 20
766.149
 10
375.097
 20
766.304
 10
375.253
 20
766.475
 10
375.39
 20
766.66
 10
375.511
 20
766.857
 10
375.612
 20
767.067
 10
375.693
 20
767.287
 10
375.751
 20
767.518
 10
375.787
 20
767.756
 10
375.8
 20
768.001
 10
378.433
 20
767.957
 10
381.063
 20
767.942
 10
383.69
 20
767.956
 10
386.315
 20
767.997
 10
388.938
 20
768.069
 10
391.557
 20
768.168
 10
394.172
 20
768.297
 10
396.785
 20
768.454
 10
399.393
 20
768.639
 10
401.997
 20
768.853
 10
404.599
 20
769.0940000000001
 10
407.194
 20
769.364
 10
409.786
 20
769.662
 10
412.372
 20
769.9880000000001
 10
414.954
 20
770.342
 10
417.531
 20
770.724
 10
420.1
 20
771.133
 10
422.665
 20
771.571
 10
425.225
 20
772.0359999999999
 10
427.778
 20
772.529
 10
430.324
 20
773.05
 10
432.864
 20
773.597
 10
435.397
 20
774.172
 10
437.924
 20
774.775
 10
440.443
 20
775.404
 10
442.954
 20
776.061
 10
445.457
 20
776.746
 10
447.953
 20
777.456
 10
450.442
 20
778.194
 10
452.921
 20
778.958
 10
455.392
 20
779.75
 10
457.853
 20
780.568
 10
460.306
 20
781.412
 10
462.75
 20
782.283
 10
465.185
 20
783.182
 10
467.608
 20
784.106
 10
470.024
 20
785.057
 10
472.428
 20
786.033
 10
474.822
 20
787.0359999999999
 10
477.207
 20
788.0650000000001
 10
479.579
 20
789.121
 10
481.942
 20
790.201
 10
484.292
 20
791.308
 10
486.632
 20
792.4400000000001
 10
488.96
 20
793.599
 10
491.275
 20
794.783
 10
493.579
 20
795.9930000000001
 10
495.871
 20
797.228
 10
498.15
 20
798.489
 10
500.415
 20
799.775
 10
502.669
 20
801.086
 10
504.908
 20
802.422
 10
507.136
 20
803.785
 10
509.349
 20
805.171
 10
511.547
 20
806.583
 10
513.7329999999999
 20
808.019
 10
515.904
 20
809.481
 10
518.0599999999999
 20
810.967
 10
520.201
 20
812.478
 10
522.329
 20
814.014
 10
524.4400000000001
 20
815.574
 10
526.5359999999999
 20
817.158
 10
528.617
 20
818.7670000000001
 10
530.682
 20
820.4
 10
532.728
 20
822.056
 10
534.754
 20
823.7329999999999
 10
536.761
 20
825.431
 10
538.746
 20
827.147
 10
540.711
 20
828.885
 10
542.6559999999999
 20
830.643
 10
544.579
 20
832.421
 10
546.481
 20
834.218
 10
548.3630000000001
 20
836.035
 10
550.222
 20
837.869
 10
552.061
 20
839.725
 10
553.878
 20
841.599
 10
555.674
 20
843.49
 10
557.447
 20
845.4
 10
559.2
 20
847.329
 10
560.929
 20
849.276
 10
562.6369999999999
 20
851.24
 10
564.324
 20
853.222
 10
565.9880000000001
 20
855.222
 10
567.629
 20
857.239
 10
569.247
 20
859.272
 10
570.843
 20
861.322
 10
572.417
 20
863.39
 10
573.967
 20
865.474
 10
575.4930000000001
 20
867.574
 10
576.997
 20
869.689
 10
578.478
 20
871.821
 10
579.936
 20
873.968
 10
581.369
 20
876.131
 10
582.7809999999999
 20
878.308
 10
584.167
 20
880.501
 10
585.529
 20
882.708
 10
586.8680000000001
 20
884.931
 10
588.182
 20
887.168
 10
589.472
 20
889.419
 10
590.7380000000001
 20
891.683
 10
591.979
 20
893.963
 10
593.196
 20
896.256
 10
594.389
 20
898.561
 10
595.556
 20
900.881
 10
596.697
 20
903.213
 10
597.8150000000001
 20
905.558
 10
598.907
 20
907.915
 10
599.974
 20
910.2859999999999
 10
601.014
 20
912.668
 10
602.0309999999999
 20
915.063
 10
603.019
 20
917.4690000000001
 10
603.985
 20
919.8869999999999
 10
604.922
 20
922.317
 10
605.835
 20
924.758
 10
606.721
 20
927.21
 10
607.581
 20
929.672
 10
608.414
 20
932.146
 10
609.2190000000001
 20
934.631
 10
610
 20
937.124
 10
610.753
 20
939.628
 10
611.479
 20
942.143
 10
612.179
 20
944.667
 10
612.851
 20
947.2
 10
613.496
 20
949.742
 10
614.114
 20
952.294
 10
614.704
 20
954.854
 10
615.2670000000001
 20
957.424
 10
615.801
 20
960.001
 10
695.801
 20
960.001
 10
695.79
 20
957.092
 10
695.758
 20
954.182
 10
695.706
 20
951.275
 10
695.6319999999999
 20
948.369
 10
695.5359999999999
 20
945.465
 10
695.421
 20
942.563
 10
695.283
 20
939.663
 10
695.125
 20
936.764
 10
694.946
 20
933.8680000000001
 10
694.746
 20
930.974
 10
694.525
 20
928.082
 10
694.283
 20
925.193
 10
694.021
 20
922.307
 10
693.7380000000001
 20
919.422
 10
693.433
 20
916.542
 10
693.1079999999999
 20
913.664
 10
692.7619999999999
 20
910.789
 10
692.396
 20
907.917
 10
692.008
 20
905.047
 10
691.6
 20
902.182
 10
691.171
 20
899.321
 10
690.722
 20
896.463
 10
690.253
 20
893.607
 10
689.7619999999999
 20
890.7569999999999
 10
689.251
 20
887.91
 10
688.7190000000001
 20
885.067
 10
688.167
 20
882.228
 10
687.5940000000001
 20
879.393
 10
687.001
 20
876.564
 10
686.389
 20
873.7380000000001
 10
685.754
 20
870.917
 10
685.1
 20
868.1
 10
684.426
 20
865.289
 10
683.732
 20
862.482
 10
683.0170000000001
 20
859.681
 10
682.2809999999999
 20
856.883
 10
681.525
 20
854.092
 10
680.75
 20
851.307
 10
679.954
 20
848.526
 10
679.1369999999999
 20
845.751
 10
678.301
 20
842.982
 10
677.444
 20
840.218
 10
676.568
 20
837.461
 10
675.672
 20
834.71
 10
674.756
 20
831.9640000000001
 10
673.819
 20
829.225
 10
672.8630000000001
 20
826.492
 10
671.886
 20
823.7670000000001
 10
670.89
 20
821.046
 10
669.874
 20
818.333
 10
668.838
 20
815.626
 10
667.782
 20
812.928
 10
666.706
 20
810.236
 10
665.61
 20
807.55
 10
664.494
 20
804.872
 10
663.36
 20
802.201
 10
662.206
 20
799.539
 10
661.0309999999999
 20
796.883
 10
659.836
 20
794.236
 10
658.622
 20
791.596
 10
657.389
 20
788.9640000000001
 10
656.136
 20
786.3390000000001
 10
654.864
 20
783.724
 10
653.572
 20
781.115
 10
652.261
 20
778.518
 10
650.932
 20
775.931
 10
649.585
 20
773.353
 10
648.218
 20
770.787
 10
646.835
 20
768.232
 10
645.433
 20
765.689
 10
644.0119999999999
 20
763.1559999999999
 10
642.575
 20
760.633
 10
641.121
 20
758.124
 10
639.647
 20
755.625
 10
638.157
 20
753.1369999999999
 10
636.647
 20
750.6609999999999
 10
635.122
 20
748.196
 10
633.579
 20
745.744
 10
632.018
 20
743.303
 10
630.4400000000001
 20
740.874
 10
628.8440000000001
 20
738.457
 10
627.2329999999999
 20
736.053
 10
625.603
 20
733.66
 10
623.957
 20
731.279
 10
622.293
 20
728.9109999999999
 10
620.614
 20
726.556
 10
618.917
 20
724.213
 10
617.203
 20
721.8819999999999
 10
615.472
 20
719.564
 10
613.726
 20
717.26
 10
611.963
 20
714.967
 10
610.183
 20
712.688
 10
608.3869999999999
 20
710.422
 10
606.575
 20
708.168
 10
604.746
 20
705.929
 10
602.901
 20
703.703
 10
601.04
 20
701.489
 10
599.164
 20
699.289
 10
597.272
 20
697.103
 10
595.364
 20
694.931
 10
593.439
 20
692.772
 10
591.5
 20
690.628
 10
589.544
 20
688.496
 10
587.574
 20
686.379
 10
585.586
 20
684.276
 10
583.585
 20
682.188
 10
581.568
 20
680.1130000000001
 10
579.5359999999999
 20
678.053
 10
577.4880000000001
 20
676.0069999999999
 10
575.425
 20
673.976
 10
573.347
 20
671.96
 10
571.256
 20
669.958
 10
569.147
 20
667.971
 10
567.025
 20
665.999
 10
564.889
 20
664.042
 10
562.7380000000001
 20
662.1
 10
560.571
 20
660.172
 10
558.39
 20
658.261
 10
556.194
 20
656.365
 10
553.985
 20
654.4829999999999
 10
551.761
 20
652.6180000000001
 10
549.524
 20
650.768
 10
547.271
 20
648.9349999999999
 10
545.006
 20
647.115
 10
542.725
 20
645.313
 10
540.431
 20
643.526
 10
538.122
 20
641.756
 10
535.801
 20
640.001
 10
538.0599999999999
 20
636.787
 10
540.287
 20
633.557
 10
542.485
 20
630.307
 10
544.651
 20
627.04
 10
546.787
 20
623.756
 10
548.8920000000001
 20
620.454
 10
550.965
 20
617.135
 10
553.008
 20
613.8
 10
555.021
 20
610.447
 10
557.001
 20
607.078
 10
558.951
 20
603.693
 10
560.869
 20
600.293
 10
562.756
 20
596.876
 10
564.611
 20
593.443
 10
566.4349999999999
 20
589.996
 10
568.228
 20
586.533
 10
569.9880000000001
 20
583.057
 10
571.717
 20
579.564
 10
573.412
 20
576.058
 10
575.078
 20
572.537
 10
576.711
 20
569.003
 10
578.311
 20
565.454
 10
579.881
 20
561.893
 10
581.417
 20
558.318
 10
582.921
 20
554.731
 10
584.3920000000001
 20
551.129
 10
585.832
 20
547.515
 10
587.239
 20
543.89
 10
588.6130000000001
 20
540.251
 10
589.954
 20
536.601
 10
591.2619999999999
 20
532.9400000000001
 10
592.537
 20
529.2670000000001
 10
593.7809999999999
 20
525.582
 10
594.99
 20
521.886
 10
596.167
 20
518.181
 10
597.311
 20
514.4640000000001
 10
598.421
 20
510.736
 10
599.499
 20
506.999
 10
600.542
 20
503.251
 10
601.553
 20
499.494
 10
602.529
 20
495.728
 10
603.472
 20
491.951
 10
604.3819999999999
 20
488.167
 10
605.2569999999999
 20
484.372
 10
606.099
 20
480.571
 10
606.907
 20
476.76
 10
607.681
 20
472.942
 10
608.421
 20
469.114
 10
609.126
 20
465.281
 10
609.797
 20
461.438
 10
610.4349999999999
 20
457.589
 10
611.037
 20
453.733
 10
611.606
 20
449.869
 10
612.139
 20
446
 10
612.6369999999999
 20
442.124
 10
613.103
 20
438.242
 10
613.532
 20
434.354
 10
613.928
 20
430.461
 10
614.287
 20
426.561
 10
614.6130000000001
 20
422.657
 10
614.901
 20
418.747
 10
615.157
 20
414.833
 10
615.376
 20
410.915
 10
615.561
 20
406.992
 10
615.71
 20
403.067
 10
615.822
 20
399.143
 10
615.9
 20
395.222
 10
615.943
 20
391.303
 10
615.95
 20
387.385
 10
615.921
 20
383.468
 10
615.8579999999999
 20
379.556
 10
615.76
 20
375.644
 10
615.625
 20
371.737
 10
615.456
 20
367.833
 10
615.253
 20
363.932
 10
615.014
 20
360.035
 10
614.739
 20
356.142
 10
614.431
 20
352.253
 10
614.088
 20
348.368
 10
613.708
 20
344.487
 10
613.296
 20
340.611
 10
612.849
 20
336.74
 10
612.367
 20
332.875
 10
611.85
 20
329.015
 10
611.299
 20
325.161
 10
610.7140000000001
 20
321.313
 10
610.093
 20
317.471
 10
609.439
 20
313.635
 10
608.751
 20
309.806
 10
608.029
 20
305.983
 10
607.272
 20
302.168
 10
606.482
 20
298.36
 10
605.657
 20
294.56
 10
604.799
 20
290.767
 10
603.9059999999999
 20
286.982
 10
602.981
 20
283.206
 10
602.019
 20
279.438
 10
601.026
 20
275.678
 10
599.999
 20
271.928
 10
598.939
 20
268.186
 10
597.8440000000001
 20
264.454
 10
596.715
 20
260.732
 10
595.554
 20
257.019
 10
594.36
 20
253.317
 10
593.1319999999999
 20
249.624
 10
591.871
 20
245.943
 10
590.576
 20
242.271
 10
589.249
 20
238.611
 10
587.8869999999999
 20
234.963
 10
586.494
 20
231.325
 10
585.068
 20
227.699
 10
583.6079999999999
 20
224.085
 10
582.117
 20
220.483
 10
580.59
 20
216.893
 10
579.033
 20
213.317
 10
577.443
 20
209.751
 10
575.819
 20
206.201
 10
574.164
 20
202.663
 10
572.475
 20
199.139
 10
570.754
 20
195.628
 10
569.001
 20
192.131
 10
567.217
 20
188.649
 10
565.399
 20
185.181
 10
563.549
 20
181.726
 10
561.667
 20
178.288
 10
559.753
 20
174.864
 10
557.807
 20
171.456
 10
555.828
 20
168.063
 10
553.819
 20
164.688
 10
551.782
 20
161.333
 10
549.715
 20
158
 10
547.619
 20
154.686
 10
545.496
 20
151.394
 10
543.343
 20
148.124
 10
541.162
 20
144.874
 10
538.953
 20
141.646
 10
536.717
 20
138.438
 10
534.453
 20
135.253
 10
532.1609999999999
 20
132.09
 10
529.842
 20
128.949
 10
527.494
 20
125.83
 10
525.121
 20
122.734
 10
522.721
 20
119.66
 10
520.293
 20
116.608
 10
517.84
 20
113.58
 10
515.36
 20
110.575
 10
512.854
 20
107.593
 10
510.322
 20
104.634
 10
507.764
 20
101.698
 10
505.181
 20
98.7867
 10
502.572
 20
95.89879999999999
 10
499.938
 20
93.035
 10
497.278
 20
90.1951
 10
494.593
 20
87.37990000000001
 10
491.885
 20
84.5889
 10
489.151
 20
81.82259999999999
 10
486.393
 20
79.08110000000001
 10
483.61
 20
76.3646
 10
480.804
 20
73.67310000000001
 10
477.974
 20
71.0069
 10
475.119
 20
68.3663
 10
472.242
 20
65.75109999999999
 10
469.34
 20
63.1617
 10
466.415
 20
60.5983
 10
463.468
 20
58.061
 10
460.497
 20
55.5499
 10
457.504
 20
53.0651
 10
454.489
 20
50.6069
 10
451.451
 20
48.1756
 10
448.39
 20
45.7711
 10
445.308
 20
43.3936
 10
442.204
 20
41.0433
 10
439.079
 20
38.7204
 10
435.932
 20
36.425
 10
432.763
 20
34.1574
 10
429.574
 20
31.9175
 10
426.362
 20
29.7057
 10
423.131
 20
27.5221
 10
419.879
 20
25.3668
 10
416.606
 20
23.24
 10
413.313
 20
21.1418
 10
410
 20
19.0726
 10
406.667
 20
17.0322
 10
403.314
 20
15.0211
 10
399.942
 20
13.0392
 10
396.55
 20
11.0867
 10
393.139
 20
9.163959999999999
 10
389.708
 20
7.27094
 10
386.26
 20
5.40788
 10
382.792
 20
3.57497
 10
379.306
 20
1.77229
 10
375.8
 20
0
 10
375.8
 20
24
 10
375.789
 20
24.2372
 10
375.754
 20
24.4704
 10
375.697
 20
24.6981
 10
375.618
 20
24.9185
 10
375.518
 20
25.1301
 10
375.397
 20
25.3315
 10
375.257
 20
25.5211
 10
375.097
 20
25.6971
 10
374.922
 20
25.8565
 10
374.732
 20
25.9968
 10
374.531
 20
26.1174
 10
374.319
 20
26.2174
 10
374.099
 20
26.2962
 10
373.871
 20
26.3535
 10
373.638
 20
26.3883
 10
373.4
 20
26.4
 10
373.156
 20
26.3876
 10
372.917
 20
26.3513
 10
372.686
 20
26.2922
 10
372.467
 20
26.2114
 10
372.257
 20
26.1104
 10
372.058
 20
25.9901
 10
371.874
 20
25.8519
 10
371.703
 20
25.6971
 10
371.549
 20
25.5267
 10
371.41
 20
25.3419
 10
371.29
 20
25.144
 10
371.189
 20
24.9343
 10
371.108
 20
24.7138
 10
371.049
 20
24.4837
 10
371.013
 20
24.2454
 10
371
 20
24
 10
360.6
 20
24
 10
360.6
 20
80.0001
 10
371
 20
80.0001
 10
371.013
 20
79.7547
 10
371.049
 20
79.5164
 10
371.108
 20
79.2865
 10
371.189
 20
79.066
 10
371.29
 20
78.8561
 10
371.41
 20
78.65819999999999
 10
371.549
 20
78.4735
 10
371.703
 20
78.3031
 10
371.874
 20
78.1482
 10
372.058
 20
78.01000000000001
 10
372.257
 20
77.8899
 10
372.467
 20
77.78879999999999
 10
372.686
 20
77.7081
 10
372.917
 20
77.6489
 10
373.156
 20
77.6125
 10
373.4
 20
77.6001
 10
373.646
 20
77.6125
 10
373.885
 20
77.6489
 10
374.114
 20
77.7081
 10
374.335
 20
77.78879999999999
 10
374.544
 20
77.8899
 10
374.742
 20
78.01000000000001
 10
374.928
 20
78.1482
 10
375.097
 20
78.3031
 10
375.253
 20
78.4735
 10
375.39
 20
78.65819999999999
 10
375.511
 20
78.8561
 10
375.612
 20
79.066
 10
375.693
 20
79.2865
 10
375.751
 20
79.5164
 10
375.787
 20
79.7547
 10
375.8
 20
80.0001
 10
375.8
 20
208
 10
375.789
 20
208.237
 10
375.754
 20
208.471
 10
375.697
 20
208.699
 10
375.618
 20
208.918
 10
375.518
 20
209.131
 10
375.397
 20
209.332
 10
375.257
 20
209.521
 10
375.097
 20
209.697
 10
374.922
 20
209.857
 10
374.732
 20
209.997
 10
374.531
 20
210.118
 10
374.319
 20
210.218
 10
374.099
 20
210.297
 10
373.871
 20
210.354
 10
373.638
 20
210.389
 10
373.4
 20
210.4
 10
373.156
 20
210.388
 10
372.917
 20
210.351
 10
372.686
 20
210.293
 10
372.467
 20
210.211
 10
372.257
 20
210.111
 10
372.058
 20
209.99
 10
371.874
 20
209.853
 10
371.703
 20
209.697
 10
371.549
 20
209.526
 10
371.41
 20
209.342
 10
371.29
 20
209.144
 10
371.189
 20
208.935
 10
371.108
 20
208.714
 10
371.049
 20
208.483
 10
371.013
 20
208.246
 10
371
 20
208
 10
360.6
 20
208
 10
360.6
 20
226.4
 10
431.8
 20
226.4
 10
432.046
 20
226.413
 10
432.285
 20
226.449
 10
432.514
 20
226.508
 10
432.735
 20
226.589
 10
432.944
 20
226.69
 10
433.143
 20
226.81
 10
433.328
 20
226.949
 10
433.497
 20
227.103
 10
433.653
 20
227.274
 10
433.79
 20
227.458
 10
433.911
 20
227.657
 10
434.013
 20
227.867
 10
434.093
 20
228.086
 10
434.151
 20
228.317
 10
434.189
 20
228.556
 10
434.2
 20
228.8
 10
434.189
 20
229.046
 10
434.151
 20
229.283
 10
434.093
 20
229.514
 10
434.013
 20
229.735
 10
433.911
 20
229.944
 10
433.79
 20
230.142
 10
433.653
 20
230.326
 10
433.497
 20
230.497
 10
433.328
 20
230.653
 10
433.143
 20
230.79
 10
432.944
 20
230.911
 10
432.735
 20
231.011
 10
432.514
 20
231.093
 10
432.285
 20
231.151
 10
432.046
 20
231.188
 10
431.8
 20
231.2
 10
431.8
 20
235.2
 10
432.046
 20
235.213
 10
432.285
 20
235.249
 10
432.514
 20
235.308
 10
432.735
 20
235.389
 10
432.944
 20
235.49
 10
433.143
 20
235.61
 10
433.328
 20
235.749
 10
433.497
 20
235.903
 10
433.653
 20
236.074
 10
433.79
 20
236.258
 10
433.911
 20
236.457
 10
434.013
 20
236.667
 10
434.093
 20
236.886
 10
434.151
 20
237.117
 10
434.189
 20
237.356
 10
434.2
 20
237.6
 10
434.189
 20
237.846
 10
434.151
 20
238.085
 10
434.093
 20
238.314
 10
434.013
 20
238.535
 10
433.911
 20
238.744
 10
433.79
 20
238.942
 10
433.653
 20
239.126
 10
433.497
 20
239.297
 10
433.328
 20
239.453
 10
433.143
 20
239.59
 10
432.944
 20
239.711
 10
432.735
 20
239.811
 10
432.514
 20
239.893
 10
432.285
 20
239.951
 10
432.046
 20
239.987
 10
431.8
 20
240
 10
360.6
 20
240
 10
360.6
 20
264
 10
371
 20
264
 10
371.013
 20
263.763
 10
371.047
 20
263.531
 10
371.104
 20
263.303
 10
371.183
 20
263.082
 10
371.283
 20
262.871
 10
371.404
 20
262.669
 10
371.544
 20
262.479
 10
371.703
 20
262.303
 10
371.879
 20
262.144
 10
372.069
 20
262.004
 10
372.271
 20
261.883
 10
372.482
 20
261.783
 10
372.703
 20
261.704
 10
372.931
 20
261.647
 10
373.164
 20
261.612
 10
373.4
 20
261.6
 10
373.638
 20
261.612
 10
373.871
 20
261.647
 10
374.099
 20
261.704
 10
374.319
 20
261.783
 10
374.531
 20
261.883
 10
374.732
 20
262.004
 10
374.922
 20
262.144
 10
375.097
 20
262.303
 10
375.257
 20
262.479
 10
375.397
 20
262.669
 10
375.518
 20
262.871
 10
375.618
 20
263.082
 10
375.697
 20
263.303
 10
375.754
 20
263.531
 10
375.789
 20
263.763
 10
375.8
 20
264
 10
375.8
 20
448
 10
375.789
 20
448.237
 10
375.754
 20
448.471
 10
375.697
 20
448.699
 10
375.618
 20
448.919
 10
375.518
 20
449.131
 10
375.397
 20
449.332
 10
375.257
 20
449.522
 10
375.097
 20
449.697
 10
374.922
 20
449.857
 10
374.732
 20
449.997
 10
374.531
 20
450.118
 10
374.319
 20
450.218
 10
374.099
 20
450.297
 10
373.871
 20
450.354
 10
373.638
 20
450.389
 10
373.4
 20
450.4
 10
373.156
 20
450.389
 10
372.917
 20
450.351
 10
372.686
 20
450.293
 10
372.467
 20
450.213
 10
372.257
 20
450.111
 10
372.058
 20
449.99
 10
371.874
 20
449.853
 10
371.703
 20
449.697
 10
371.549
 20
449.528
 10
371.41
 20
449.343
 10
371.29
 20
449.144
 10
371.189
 20
448.935
 10
371.108
 20
448.714
 10
371.049
 20
448.485
 10
371.013
 20
448.246
 10
371
 20
448
 10
360.6
 20
448
 10
360.6
 20
474.4
 10
431.8
 20
474.4
  0
LWPOLYLINE
  5
52
100
AcDbEntity
  8
0
  6
ByLayer
 62
    0
370
   -1
100
AcDbPolyline
 90
  133
 70
    1
 43
0
 10
527.801
 20
747.201
 10
527.801
 20
743.201
 10
527.564
 20
743.189
 10
527.331
 20
743.154
 10
527.103
 20
743.097
 10
526.8819999999999
 20
743.018
 10
526.671
 20
742.918
 10
526.4690000000001
 20
742.797
 10
526.279
 20
742.657
 10
526.104
 20
742.499
 10
525.944
 20
742.322
 10
525.804
 20
742.133
 10
525.683
 20
741.932
 10
525.583
 20
741.7190000000001
 10
525.504
 20
741.499
 10
525.447
 20
741.272
 10
525.412
 20
741.039
 10
525.401
 20
740.801
 10
525.412
 20
740.564
 10
525.447
 20
740.331
 10
525.504
 20
740.103
 10
525.583
 20
739.883
 10
525.683
 20
739.671
 10
525.804
 20
739.4690000000001
 10
525.944
 20
739.2809999999999
 10
526.104
 20
739.104
 10
526.279
 20
738.944
 10
526.4690000000001
 20
738.804
 10
526.671
 20
738.683
 10
526.8819999999999
 20
738.583
 10
527.103
 20
738.504
 10
527.331
 20
738.447
 10
527.564
 20
738.412
 10
527.801
 20
738.401
 10
583.801
 20
738.401
 10
584.046
 20
738.414
 10
584.285
 20
738.45
 10
584.514
 20
738.508
 10
584.735
 20
738.59
 10
584.944
 20
738.6900000000001
 10
585.143
 20
738.811
 10
585.328
 20
738.949
 10
585.497
 20
739.104
 10
585.653
 20
739.275
 10
585.79
 20
739.46
 10
585.9109999999999
 20
739.657
 10
586.0119999999999
 20
739.867
 10
586.093
 20
740.088
 10
586.151
 20
740.318
 10
586.189
 20
740.556
 10
586.201
 20
740.801
 10
586.189
 20
741.046
 10
586.151
 20
741.285
 10
586.093
 20
741.515
 10
586.0119999999999
 20
741.735
 10
585.9109999999999
 20
741.944
 10
585.79
 20
742.143
 10
585.653
 20
742.328
 10
585.497
 20
742.499
 10
585.328
 20
742.653
 10
585.143
 20
742.792
 10
584.944
 20
742.9109999999999
 10
584.735
 20
743.0119999999999
 10
584.514
 20
743.093
 10
584.285
 20
743.153
 10
584.046
 20
743.189
 10
583.801
 20
743.201
 10
583.801
 20
747.201
 10
584.046
 20
747.2140000000001
 10
584.285
 20
747.25
 10
584.514
 20
747.3099999999999
 10
584.735
 20
747.39
 10
584.944
 20
747.49
 10
585.143
 20
747.611
 10
585.328
 20
747.749
 10
585.497
 20
747.904
 10
585.653
 20
748.075
 10
585.79
 20
748.26
 10
585.9109999999999
 20
748.457
 10
586.0119999999999
 20
748.667
 10
586.093
 20
748.8869999999999
 10
586.151
 20
749.1180000000001
 10
586.189
 20
749.356
 10
586.201
 20
749.601
 10
586.189
 20
749.846
 10
586.151
 20
750.085
 10
586.093
 20
750.3150000000001
 10
586.0119999999999
 20
750.535
 10
585.9109999999999
 20
750.744
 10
585.79
 20
750.943
 10
585.653
 20
751.128
 10
585.497
 20
751.299
 10
585.328
 20
751.453
 10
585.143
 20
751.592
 10
584.944
 20
751.711
 10
584.735
 20
751.813
 10
584.514
 20
751.893
 10
584.285
 20
751.953
 10
584.046
 20
751.989
 10
583.801
 20
752.001
 10
527.801
 20
752.001
 10
527.556
 20
751.989
 10
527.317
 20
751.953
 10
527.088
 20
751.893
 10
526.867
 20
751.813
 10
526.657
 20
751.711
 10
526.458
 20
751.592
 10
526.274
 20
751.453
 10
526.104
 20
751.299
 10
525.949
 20
751.128
 10
525.811
 20
750.943
 10
525.6900000000001
 20
750.744
 10
525.5890000000001
 20
750.535
 10
525.508
 20
750.3150000000001
 10
525.45
 20
750.085
 10
525.412
 20
749.846
 10
525.401
 20
749.601
 10
525.412
 20
749.356
 10
525.45
 20
749.1180000000001
 10
525.508
 20
748.8869999999999
 10
525.5890000000001
 20
748.667
 10
525.6900000000001
 20
748.457
 10
525.811
 20
748.26
 10
525.949
 20
748.075
 10
526.104
 20
747.904
 10
526.274
 20
747.749
 10
526.458
 20
747.611
 10
526.657
 20
747.49
 10
526.867
 20
747.39
 10
527.088
 20
747.3099999999999
 10
527.317
 20
747.25
 10
527.556
 20
747.2140000000001
 10
527.801
 20
747.201
  0
LWPOLYLINE
  5
53
100
AcDbEntity
  8
0
  6
ByLayer
 62
    0
370
   -1
100
AcDbPolyline
 90
  133
 70
    1
 43
0
 10
527.801
 20
483.2
 10
527.801
 20
479.2
 10
527.564
 20
479.189
 10
527.331
 20
479.154
 10
527.103
 20
479.097
 10
526.8819999999999
 20
479.018
 10
526.671
 20
478.918
 10
526.4690000000001
 20
478.797
 10
526.279
 20
478.657
 10
526.104
 20
478.497
 10
525.944
 20
478.322
 10
525.804
 20
478.132
 10
525.683
 20
477.931
 10
525.583
 20
477.719
 10
525.504
 20
477.499
 10
525.447
 20
477.271
 10
525.412
 20
477.037
 10
525.401
 20
476.8
 10
525.412
 20
476.564
 10
525.447
 20
476.331
 10
525.504
 20
476.103
 10
525.583
 20
475.882
 10
525.683
 20
475.671
 10
525.804
 20
475.469
 10
525.944
 20
475.279
 10
526.104
 20
475.104
 10
526.279
 20
474.944
 10
526.4690000000001
 20
474.804
 10
526.671
 20
474.683
 10
526.8819999999999
 20
474.583
 10
527.103
 20
474.504
 10
527.331
 20
474.447
 10
527.564
 20
474.412
 10
527.801
 20
474.4
 10
583.801
 20
474.4
 10
584.046
 20
474.412
 10
584.285
 20
474.45
 10
584.514
 20
474.508
 10
584.735
 20
474.589
 10
584.944
 20
474.69
 10
585.143
 20
474.811
 10
585.328
 20
474.949
 10
585.497
 20
475.104
 10
585.653
 20
475.274
 10
585.79
 20
475.458
 10
585.9109999999999
 20
475.657
 10
586.0119999999999
 20
475.867
 10
586.093
 20
476.088
 10
586.151
 20
476.317
 10
586.189
 20
476.556
 10
586.201
 20
476.8
 10
586.189
 20
477.046
 10
586.151
 20
477.285
 10
586.093
 20
477.514
 10
586.0119999999999
 20
477.735
 10
585.9109999999999
 20
477.944
 10
585.79
 20
478.143
 10
585.653
 20
478.328
 10
585.497
 20
478.497
 10
585.328
 20
478.653
 10
585.143
 20
478.79
 10
584.944
 20
478.911
 10
584.735
 20
479.012
 10
584.514
 20
479.093
 10
584.285
 20
479.151
 10
584.046
 20
479.189
 10
583.801
 20
479.2
 10
583.801
 20
483.2
 10
584.046
 20
483.213
 10
584.285
 20
483.25
 10
584.514
 20
483.308
 10
584.735
 20
483.389
 10
584.944
 20
483.49
 10
585.143
 20
483.611
 10
585.328
 20
483.749
 10
585.497
 20
483.904
 10
585.653
 20
484.074
 10
585.79
 20
484.258
 10
585.9109999999999
 20
484.457
 10
586.0119999999999
 20
484.667
 10
586.093
 20
484.887
 10
586.151
 20
485.117
 10
586.189
 20
485.356
 10
586.201
 20
485.601
 10
586.189
 20
485.846
 10
586.151
 20
486.085
 10
586.093
 20
486.314
 10
586.0119999999999
 20
486.535
 10
585.9109999999999
 20
486.744
 10
585.79
 20
486.943
 10
585.653
 20
487.128
 10
585.497
 20
487.297
 10
585.328
 20
487.453
 10
585.143
 20
487.59
 10
584.944
 20
487.711
 10
584.735
 20
487.813
 10
584.514
 20
487.893
 10
584.285
 20
487.951
 10
584.046
 20
487.989
 10
583.801
 20
488.001
 10
527.801
 20
488.001
 10
527.556
 20
487.989
 10
527.317
 20
487.951
 10
527.088
 20
487.893
 10
526.867
 20
487.813
 10
526.657
 20
487.711
 10
526.458
 20
487.59
 10
526.274
 20
487.453
 10
526.104
 20
487.297
 10
525.949
 20
487.128
 10
525.811
 20
486.943
 10
525.6900000000001
 20
486.744
 10
525.5890000000001
 20
486.535
 10
525.508
 20
486.314
 10
525.45
 20
486.085
 10
525.412
 20
485.846
 10
525.401
 20
485.601
 10
525.412
 20
485.356
 10
525.45
 20
485.117
 10
525.508
 20
484.887
 10
525.5890000000001
 20
484.667
 10
525.6900000000001
 20
484.457
 10
525.811
 20
484.258
 10
525.949
 20
484.074
 10
526.104
 20
483.904
 10
526.274
 20
483.749
 10
526.458
 20
483.611
 10
526.657
 20
483.49
 10
526.867
 20
483.389
 10
527.088
 20
483.308
 10
527.317
 20
483.25
 10
527.556
 20
483.213
 10
527.801
 20
483.2
  0
LWPOLYLINE
  5
54
100
AcDbEntity
  8
0
  6
ByLayer
 62
    0
370
   -1
100
AcDbPolyline
 90
  133
 70
    1
 43
0
 10
527.801
 20
240
 10
527.556
 20
239.987
 10
527.317
 20
239.951
 10
527.088
 20
239.893
 10
526.867
 20
239.811
 10
526.657
 20
239.711
 10
526.458
 20
239.59
 10
526.274
 20
239.453
 10
526.104
 20
239.297
 10
525.949
 20
239.126
 10
525.811
 20
238.942
 10
525.6900000000001
 20
238.744
 10
525.5890000000001
 20
238.535
 10
525.508
 20
238.314
 10
525.45
 20
238.085
 10
525.412
 20
237.846
 10
525.401
 20
237.6
 10
525.412
 20
237.356
 10
525.45
 20
237.117
 10
525.508
 20
236.886
 10
525.5890000000001
 20
236.667
 10
525.6900000000001
 20
236.457
 10
525.811
 20
236.258
 10
525.949
 20
236.074
 10
526.104
 20
235.903
 10
526.274
 20
235.749
 10
526.458
 20
235.61
 10
526.657
 20
235.49
 10
526.867
 20
235.389
 10
527.088
 20
235.308
 10
527.317
 20
235.249
 10
527.556
 20
235.213
 10
527.801
 20
235.2
 10
527.801
 20
231.2
 10
527.564
 20
231.189
 10
527.331
 20
231.154
 10
527.103
 20
231.097
 10
526.8819999999999
 20
231.018
 10
526.671
 20
230.918
 10
526.4690000000001
 20
230.797
 10
526.279
 20
230.657
 10
526.104
 20
230.497
 10
525.944
 20
230.321
 10
525.804
 20
230.132
 10
525.683
 20
229.931
 10
525.583
 20
229.719
 10
525.504
 20
229.499
 10
525.447
 20
229.271
 10
525.412
 20
229.037
 10
525.401
 20
228.8
 10
525.412
 20
228.563
 10
525.447
 20
228.331
 10
525.504
 20
228.103
 10
525.583
 20
227.882
 10
525.683
 20
227.671
 10
525.804
 20
227.469
 10
525.944
 20
227.279
 10
526.104
 20
227.103
 10
526.279
 20
226.944
 10
526.4690000000001
 20
226.804
 10
526.671
 20
226.683
 10
526.8819999999999
 20
226.583
 10
527.103
 20
226.504
 10
527.331
 20
226.447
 10
527.564
 20
226.413
 10
527.801
 20
226.4
 10
575.801
 20
226.4
 10
576.046
 20
226.413
 10
576.285
 20
226.449
 10
576.514
 20
226.508
 10
576.735
 20
226.589
 10
576.944
 20
226.69
 10
577.143
 20
226.81
 10
577.328
 20
226.949
 10
577.497
 20
227.103
 10
577.653
 20
227.274
 10
577.79
 20
227.458
 10
577.9109999999999
 20
227.657
 10
578.0119999999999
 20
227.867
 10
578.093
 20
228.086
 10
578.151
 20
228.317
 10
578.189
 20
228.556
 10
578.201
 20
228.8
 10
578.189
 20
229.046
 10
578.151
 20
229.285
 10
578.093
 20
229.514
 10
578.0119999999999
 20
229.735
 10
577.9109999999999
 20
229.944
 10
577.79
 20
230.142
 10
577.653
 20
230.326
 10
577.497
 20
230.497
 10
577.328
 20
230.653
 10
577.143
 20
230.79
 10
576.944
 20
230.911
 10
576.735
 20
231.011
 10
576.514
 20
231.093
 10
576.285
 20
231.151
 10
576.046
 20
231.188
 10
575.801
 20
231.2
 10
575.801
 20
235.2
 10
576.046
 20
235.213
 10
576.285
 20
235.249
 10
576.514
 20
235.308
 10
576.735
 20
235.389
 10
576.944
 20
235.49
 10
577.143
 20
235.61
 10
577.328
 20
235.749
 10
577.497
 20
235.903
 10
577.653
 20
236.074
 10
577.79
 20
236.258
 10
577.9109999999999
 20
236.457
 10
578.0119999999999
 20
236.667
 10
578.093
 20
236.886
 10
578.151
 20
237.117
 10
578.189
 20
237.356
 10
578.201
 20
237.6
 10
578.189
 20
237.846
 10
578.151
 20
238.085
 10
578.093
 20
238.314
 10
578.0119999999999
 20
238.535
 10
577.9109999999999
 20
238.744
 10
577.79
 20
238.942
 10
577.653
 20
239.126
 10
577.497
 20
239.297
 10
577.328
 20
239.453
 10
577.143
 20
239.59
 10
576.944
 20
239.711
 10
576.735
 20
239.811
 10
576.514
 20
239.893
 10
576.285
 20
239.951
 10
576.046
 20
239.987
 10
575.801
 20
240
 10
527.801
 20
240
  0
LWPOLYLINE
  5
55
100
AcDbEntity
  8
0
  6
ByLayer
 62
    0
370
   -1
100
AcDbPolyline
 90
  335
 70
    1
 43
0
 10
644.011
 20
99.2225
 10
644
 20
98.9854
 10
643.965
 20
98.7522
 10
643.908
 20
98.52460000000001
 10
643.829
 20
98.304
 10
643.729
 20
98.0924
 10
643.6079999999999
 20
97.89100000000001
 10
643.468
 20
97.7015
 10
643.308
 20
97.5254
 10
643.1319999999999
 20
97.3661
 10
642.943
 20
97.2257
 10
642.742
 20
97.1053
 10
642.5309999999999
 20
97.00530000000001
 10
642.3099999999999
 20
96.92619999999999
 10
642.082
 20
96.869
 10
641.849
 20
96.8343
 10
641.611
 20
96.82250000000001
 10
641.367
 20
96.83499999999999
 10
641.128
 20
96.87130000000001
 10
640.897
 20
96.93040000000001
 10
640.678
 20
97.0111
 10
640.468
 20
97.1122
 10
640.269
 20
97.2324
 10
640.085
 20
97.3706
 10
639.914
 20
97.5256
 10
639.76
 20
97.696
 10
639.621
 20
97.8807
 10
639.501
 20
98.07859999999999
 10
639.4
 20
98.28830000000001
 10
639.319
 20
98.5089
 10
639.26
 20
98.7389
 10
639.224
 20
98.9772
 10
639.211
 20
99.2225
 10
628.811
 20
99.2225
 10
628.811
 20
43.2225
 10
639.211
 20
43.2225
 10
639.224
 20
43.4678
 10
639.26
 20
43.7061
 10
639.319
 20
43.9361
 10
639.4
 20
44.1567
 10
639.501
 20
44.3664
 10
639.621
 20
44.5643
 10
639.76
 20
44.749
 10
639.914
 20
44.9196
 10
640.085
 20
45.0744
 10
640.269
 20
45.2125
 10
640.468
 20
45.3328
 10
640.678
 20
45.4339
 10
640.897
 20
45.5146
 10
641.128
 20
45.5738
 10
641.367
 20
45.6101
 10
641.611
 20
45.6225
 10
641.857
 20
45.6101
 10
642.0940000000001
 20
45.5738
 10
642.325
 20
45.5146
 10
642.546
 20
45.4339
 10
642.756
 20
45.3328
 10
642.953
 20
45.2125
 10
643.1369999999999
 20
45.0744
 10
643.308
 20
44.9196
 10
643.4640000000001
 20
44.749
 10
643.601
 20
44.5643
 10
643.722
 20
44.3664
 10
643.822
 20
44.1567
 10
643.904
 20
43.9361
 10
643.963
 20
43.7061
 10
643.999
 20
43.4678
 10
644.011
 20
43.2225
 10
644.011
 20
12.0224
 10
646.9930000000001
 20
12.0409
 10
649.971
 20
12.0964
 10
652.944
 20
12.1885
 10
655.912
 20
12.3174
 10
658.876
 20
12.4828
 10
661.833
 20
12.6846
 10
664.7859999999999
 20
12.9226
 10
667.732
 20
13.1968
 10
670.672
 20
13.5071
 10
673.606
 20
13.8532
 10
676.533
 20
14.2351
 10
679.453
 20
14.6526
 10
682.364
 20
15.1057
 10
685.268
 20
15.594
 10
688.164
 20
16.1178
 10
691.051
 20
16.6765
 10
693.931
 20
17.2704
 10
696.8
 20
17.899
 10
699.6609999999999
 20
18.5625
 10
702.511
 20
19.2606
 10
705.353
 20
19.9931
 10
708.183
 20
20.76
 10
711.003
 20
21.5613
 10
713.813
 20
22.3965
 10
716.61
 20
23.2657
 10
719.396
 20
24.1689
 10
722.171
 20
25.1057
 10
724.933
 20
26.0761
 10
727.683
 20
27.08
 10
730.421
 20
28.1174
 10
733.144
 20
29.1878
 10
735.856
 20
30.2914
 10
738.553
 20
31.4279
 10
741.236
 20
32.5972
 10
743.9059999999999
 20
33.7993
 10
746.5599999999999
 20
35.034
 10
749.199
 20
36.3011
 10
751.824
 20
37.6007
 10
754.432
 20
38.9324
 10
757.025
 20
40.296
 10
759.603
 20
41.6917
 10
762.162
 20
43.1192
 10
764.707
 20
44.5783
 10
767.2329999999999
 20
46.0692
 10
769.7430000000001
 20
47.5914
 10
772.235
 20
49.1449
 10
774.708
 20
50.7296
 10
777.164
 20
52.3453
 10
779.601
 20
53.9919
 10
782.019
 20
55.6694
 10
784.418
 20
57.3775
 10
786.797
 20
59.1163
 10
789.157
 20
60.8854
 10
791.496
 20
62.6847
 10
793.8150000000001
 20
64.51439999999999
 10
796.114
 20
66.374
 10
798.39
 20
68.26349999999999
 10
800.647
 20
70.1828
 10
802.881
 20
72.1317
 10
805.093
 20
74.1101
 10
807.283
 20
76.1181
 10
809.451
 20
78.1553
 10
811.596
 20
80.22150000000001
 10
813.717
 20
82.3168
 10
815.813
 20
84.4383
 10
817.879
 20
86.5831
 10
819.917
 20
88.75060000000001
 10
821.924
 20
90.94070000000001
 10
823.903
 20
93.15309999999999
 10
825.851
 20
95.3874
 10
827.771
 20
97.6433
 10
829.66
 20
99.9207
 10
831.519
 20
102.219
 10
833.35
 20
104.538
 10
835.149
 20
106.878
 10
836.918
 20
109.237
 10
838.657
 20
111.617
 10
840.365
 20
114.015
 10
842.042
 20
116.433
 10
843.689
 20
118.87
 10
845.304
 20
121.326
 10
846.889
 20
123.8
 10
848.443
 20
126.292
 10
849.965
 20
128.801
 10
851.456
 20
131.328
 10
852.915
 20
133.872
 10
854.343
 20
136.432
 10
855.7380000000001
 20
139.008
 10
857.101
 20
141.601
 10
858.433
 20
144.211
 10
859.7329999999999
 20
146.835
 10
861
 20
149.475
 10
862.235
 20
152.129
 10
863.438
 20
154.799
 10
864.607
 20
157.482
 10
865.7430000000001
 20
160.179
 10
866.846
 20
162.889
 10
867.917
 20
165.614
 10
868.954
 20
168.351
 10
869.958
 20
171.101
 10
870.929
 20
173.864
 10
871.865
 20
176.638
 10
872.768
 20
179.425
 10
873.6369999999999
 20
182.222
 10
874.474
 20
185.032
 10
875.274
 20
187.851
 10
876.042
 20
190.682
 10
876.774
 20
193.522
 10
877.472
 20
196.374
 10
878.135
 20
199.233
 10
878.764
 20
202.104
 10
879.3579999999999
 20
204.982
 10
879.917
 20
207.869
 10
880.4400000000001
 20
210.765
 10
880.929
 20
213.669
 10
881.3819999999999
 20
216.582
 10
881.799
 20
219.501
 10
882.181
 20
222.428
 10
882.528
 20
225.361
 10
882.838
 20
228.301
 10
883.111
 20
231.249
 10
883.35
 20
234.2
 10
883.551
 20
237.158
 10
883.717
 20
240.122
 10
883.846
 20
243.09
 10
883.938
 20
246.064
 10
883.9930000000001
 20
249.042
 10
884.0119999999999
 20
252.022
 10
852.011
 20
252.022
 10
851.7670000000001
 20
252.035
 10
851.528
 20
252.071
 10
851.299
 20
252.131
 10
851.078
 20
252.211
 10
850.8680000000001
 20
252.313
 10
850.669
 20
252.433
 10
850.485
 20
252.571
 10
850.3150000000001
 20
252.726
 10
850.16
 20
252.896
 10
850.022
 20
253.081
 10
849.901
 20
253.279
 10
849.8
 20
253.489
 10
849.7190000000001
 20
253.71
 10
849.6609999999999
 20
253.939
 10
849.624
 20
254.178
 10
849.611
 20
254.422
 10
849.624
 20
254.668
 10
849.6609999999999
 20
254.907
 10
849.7190000000001
 20
255.136
 10
849.8
 20
255.357
 10
849.901
 20
255.567
 10
850.022
 20
255.765
 10
850.16
 20
255.95
 10
850.3150000000001
 20
256.119
 10
850.485
 20
256.275
 10
850.669
 20
256.412
 10
850.8680000000001
 20
256.533
 10
851.078
 20
256.635
 10
851.299
 20
256.715
 10
851.528
 20
256.774
 10
851.7670000000001
 20
256.81
 10
852.011
 20
256.822
 10
852.011
 20
267.222
 10
796.011
 20
267.222
 10
796.011
 20
256.822
 10
796.2569999999999
 20
256.81
 10
796.496
 20
256.774
 10
796.725
 20
256.715
 10
796.946
 20
256.635
 10
797.1559999999999
 20
256.533
 10
797.354
 20
256.412
 10
797.539
 20
256.275
 10
797.708
 20
256.119
 10
797.864
 20
255.95
 10
798.001
 20
255.765
 10
798.122
 20
255.567
 10
798.224
 20
255.357
 10
798.304
 20
255.136
 10
798.3630000000001
 20
254.907
 10
798.399
 20
254.668
 10
798.4109999999999
 20
254.422
 10
798.399
 20
254.178
 10
798.3630000000001
 20
253.939
 10
798.304
 20
253.71
 10
798.224
 20
253.489
 10
798.122
 20
253.279
 10
798.001
 20
253.081
 10
797.864
 20
252.896
 10
797.708
 20
252.726
 10
797.539
 20
252.571
 10
797.354
 20
252.433
 10
797.1559999999999
 20
252.313
 10
796.946
 20
252.211
 10
796.725
 20
252.131
 10
796.496
 20
252.071
 10
796.2569999999999
 20
252.035
 10
796.011
 20
252.022
 10
700.011
 20
252.022
 10
699.775
 20
252.035
 10
699.542
 20
252.069
 10
699.314
 20
252.126
 10
699.093
 20
252.206
 10
698.8819999999999
 20
252.306
 10
698.681
 20
252.426
 10
698.49
 20
252.567
 10
698.314
 20
252.726
 10
698.1559999999999
 20
252.901
 10
698.015
 20
253.092
 10
697.894
 20
253.293
 10
697.794
 20
253.504
 10
697.715
 20
253.725
 10
697.658
 20
253.953
 10
697.624
 20
254.186
 10
697.611
 20
254.422
 10
697.624
 20
254.66
 10
697.658
 20
254.893
 10
697.715
 20
255.121
 10
697.794
 20
255.342
 10
697.894
 20
255.553
 10
698.015
 20
255.754
 10
698.1559999999999
 20
255.944
 10
698.314
 20
256.119
 10
698.49
 20
256.279
 10
698.681
 20
256.419
 10
698.8819999999999
 20
256.54
 10
699.093
 20
256.64
 10
699.314
 20
256.719
 10
699.542
 20
256.776
 10
699.775
 20
256.811
 10
700.011
 20
256.822
 10
700.011
 20
267.222
 10
628.811
 20
267.222
 10
628.811
 20
196.022
 10
639.211
 20
196.022
 10
639.224
 20
196.268
 10
639.26
 20
196.507
 10
639.319
 20
196.736
 10
639.4
 20
196.957
 10
639.501
 20
197.167
 10
639.621
 20
197.364
 10
639.76
 20
197.55
 10
639.914
 20
197.719
 10
640.085
 20
197.875
 10
640.269
 20
198.013
 10
640.468
 20
198.133
 10
640.678
 20
198.235
 10
640.897
 20
198.315
 10
641.128
 20
198.374
 10
641.367
 20
198.41
 10
641.611
 20
198.422
 10
641.857
 20
198.41
 10
642.0940000000001
 20
198.374
 10
642.325
 20
198.315
 10
642.546
 20
198.235
 10
642.756
 20
198.133
 10
642.953
 20
198.013
 10
643.1369999999999
 20
197.875
 10
643.308
 20
197.719
 10
643.4640000000001
 20
197.55
 10
643.601
 20
197.364
 10
643.722
 20
197.167
 10
643.822
 20
196.957
 10
643.904
 20
196.736
 10
643.963
 20
196.507
 10
643.999
 20
196.268
 10
644.011
 20
196.022
 10
644.011
 20
99.2225
  0
LWPOLYLINE
  5
56
100
AcDbEntity
  8
0
  6
ByLayer
 62
    0
370
   -1
100
AcDbPolyline
 90
  271
 70
    1
 43
0
 10
797.893
 20
507.571
 10
797.893
 20
517.971
 10
869.093
 20
517.971
 10
869.093
 20
446.771
 10
858.693
 20
446.771
 10
858.681
 20
447.015
 10
858.644
 20
447.254
 10
858.585
 20
447.485
 10
858.504
 20
447.704
 10
858.403
 20
447.914
 10
858.283
 20
448.112
 10
858.144
 20
448.297
 10
857.99
 20
448.468
 10
857.819
 20
448.622
 10
857.635
 20
448.761
 10
857.436
 20
448.881
 10
857.226
 20
448.982
 10
857.0069999999999
 20
449.063
 10
856.776
 20
449.122
 10
856.537
 20
449.158
 10
856.293
 20
449.171
 10
856.047
 20
449.158
 10
855.8099999999999
 20
449.122
 10
855.579
 20
449.063
 10
855.3579999999999
 20
448.982
 10
855.149
 20
448.881
 10
854.951
 20
448.761
 10
854.7670000000001
 20
448.622
 10
854.596
 20
448.468
 10
854.4400000000001
 20
448.297
 10
854.303
 20
448.112
 10
854.182
 20
447.914
 10
854.082
 20
447.704
 10
854
 20
447.485
 10
853.942
 20
447.254
 10
853.9059999999999
 20
447.015
 10
853.893
 20
446.771
 10
853.893
 20
350.771
 10
853.9059999999999
 20
350.525
 10
853.942
 20
350.286
 10
854
 20
350.057
 10
854.082
 20
349.836
 10
854.182
 20
349.626
 10
854.303
 20
349.429
 10
854.4400000000001
 20
349.243
 10
854.596
 20
349.074
 10
854.7670000000001
 20
348.918
 10
854.951
 20
348.781
 10
855.149
 20
348.66
 10
855.3579999999999
 20
348.558
 10
855.579
 20
348.478
 10
855.8099999999999
 20
348.419
 10
856.047
 20
348.383
 10
856.293
 20
348.371
 10
856.537
 20
348.383
 10
856.776
 20
348.419
 10
857.0069999999999
 20
348.478
 10
857.226
 20
348.558
 10
857.436
 20
348.66
 10
857.635
 20
348.781
 10
857.819
 20
348.918
 10
857.99
 20
349.074
 10
858.144
 20
349.243
 10
858.283
 20
349.428
 10
858.403
 20
349.626
 10
858.504
 20
349.836
 10
858.585
 20
350.057
 10
858.644
 20
350.286
 10
858.681
 20
350.525
 10
858.693
 20
350.771
 10
869.093
 20
350.771
 10
869.093
 20
302.771
 10
858.693
 20
302.771
 10
858.681
 20
303.015
 10
858.644
 20
303.254
 10
858.585
 20
303.483
 10
858.504
 20
303.704
 10
858.403
 20
303.914
 10
858.283
 20
304.112
 10
858.144
 20
304.297
 10
857.99
 20
304.467
 10
857.819
 20
304.622
 10
857.635
 20
304.76
 10
857.436
 20
304.881
 10
857.226
 20
304.982
 10
857.0069999999999
 20
305.063
 10
856.776
 20
305.122
 10
856.537
 20
305.158
 10
856.293
 20
305.171
 10
856.047
 20
305.158
 10
855.8099999999999
 20
305.122
 10
855.579
 20
305.063
 10
855.3579999999999
 20
304.982
 10
855.149
 20
304.881
 10
854.951
 20
304.76
 10
854.7670000000001
 20
304.622
 10
854.596
 20
304.467
 10
854.4400000000001
 20
304.297
 10
854.303
 20
304.112
 10
854.182
 20
303.914
 10
854.082
 20
303.704
 10
854
 20
303.483
 10
853.942
 20
303.254
 10
853.9059999999999
 20
303.015
 10
853.893
 20
302.771
 10
853.893
 20
294.771
 10
853.093
 20
294.771
 10
849.744
 20
294.871
 10
846.403
 20
295.025
 10
843.0650000000001
 20
295.235
 10
839.736
 20
295.499
 10
836.414
 20
295.817
 10
833.1
 20
296.189
 10
829.794
 20
296.615
 10
826.499
 20
297.094
 10
823.2140000000001
 20
297.628
 10
819.939
 20
298.215
 10
816.675
 20
298.856
 10
813.422
 20
299.549
 10
810.183
 20
300.294
 10
806.957
 20
301.093
 10
803.744
 20
301.943
 10
800.547
 20
302.847
 10
797.364
 20
303.801
 10
794.197
 20
304.808
 10
791.047
 20
305.868
 10
787.914
 20
306.978
 10
784.799
 20
308.139
 10
781.701
 20
309.351
 10
778.624
 20
310.615
 10
775.5650000000001
 20
311.929
 10
772.526
 20
313.294
 10
769.51
 20
314.71
 10
766.514
 20
316.175
 10
763.54
 20
317.69
 10
760.59
 20
319.256
 10
757.662
 20
320.869
 10
754.76
 20
322.535
 10
751.8819999999999
 20
324.247
 10
749.032
 20
326.008
 10
746.215
 20
327.814
 10
743.431
 20
329.662
 10
740.679
 20
331.556
 10
737.961
 20
333.493
 10
735.278
 20
335.472
 10
732.628
 20
337.494
 10
730.014
 20
339.557
 10
727.4349999999999
 20
341.662
 10
724.8920000000001
 20
343.808
 10
722.385
 20
345.994
 10
719.915
 20
348.221
 10
717.4829999999999
 20
350.486
 10
715.0890000000001
 20
352.79
 10
712.732
 20
355.133
 10
710.414
 20
357.515
 10
708.136
 20
359.933
 10
705.897
 20
362.389
 10
703.697
 20
364.881
 10
701.539
 20
367.408
 10
699.422
 20
369.972
 10
697.346
 20
372.571
 10
695.313
 20
375.204
 10
693.321
 20
377.872
 10
691.372
 20
380.572
 10
689.467
 20
383.307
 10
687.606
 20
386.074
 10
685.787
 20
388.872
 10
684.015
 20
391.703
 10
682.287
 20
394.565
 10
680.606
 20
397.458
 10
678.9690000000001
 20
400.381
 10
677.3819999999999
 20
403.331
 10
675.8440000000001
 20
406.303
 10
674.3579999999999
 20
409.296
 10
672.922
 20
412.311
 10
671.5359999999999
 20
415.349
 10
670.201
 20
418.404
 10
668.918
 20
421.479
 10
667.686
 20
424.574
 10
666.506
 20
427.686
 10
665.376
 20
430.817
 10
664.299
 20
433.963
 10
663.272
 20
437.125
 10
662.299
 20
440.304
 10
661.378
 20
443.497
 10
660.508
 20
446.704
 10
659.692
 20
449.925
 10
658.926
 20
453.158
 10
658.215
 20
456.404
 10
657.557
 20
459.662
 10
656.953
 20
462.931
 10
656.4
 20
466.21
 10
655.901
 20
469.499
 10
655.457
 20
472.796
 10
655.067
 20
476.101
 10
654.729
 20
479.415
 10
654.446
 20
482.736
 10
654.217
 20
486.063
 10
654.043
 20
489.396
 10
653.922
 20
492.733
 10
653.8579999999999
 20
496.075
 10
653.847
 20
499.421
 10
653.893
 20
502.771
 10
653.893
 20
517.971
 10
701.893
 20
517.971
 10
701.893
 20
507.571
 10
701.647
 20
507.558
 10
701.408
 20
507.522
 10
701.179
 20
507.463
 10
700.958
 20
507.382
 10
700.749
 20
507.281
 10
700.55
 20
507.161
 10
700.365
 20
507.022
 10
700.196
 20
506.868
 10
700.04
 20
506.697
 10
699.903
 20
506.512
 10
699.782
 20
506.314
 10
699.681
 20
506.104
 10
699.6
 20
505.885
 10
699.542
 20
505.654
 10
699.506
 20
505.415
 10
699.4930000000001
 20
505.171
 10
699.506
 20
504.925
 10
699.542
 20
504.688
 10
699.6
 20
504.457
 10
699.681
 20
504.236
 10
699.782
 20
504.026
 10
699.903
 20
503.829
 10
700.04
 20
503.644
 10
700.196
 20
503.474
 10
700.365
 20
503.318
 10
700.55
 20
503.181
 10
700.749
 20
503.06
 10
700.958
 20
502.96
 10
701.179
 20
502.878
 10
701.408
 20
502.819
 10
701.647
 20
502.783
 10
701.893
 20
502.771
 10
797.893
 20
502.771
 10
798.1369999999999
 20
502.783
 10
798.376
 20
502.819
 10
798.607
 20
502.878
 10
798.826
 20
502.96
 10
799.0359999999999
 20
503.06
 10
799.235
 20
503.181
 10
799.419
 20
503.318
 10
799.59
 20
503.474
 10
799.744
 20
503.644
 10
799.883
 20
503.829
 10
800.003
 20
504.026
 10
800.104
 20
504.236
 10
800.1849999999999
 20
504.457
 10
800.244
 20
504.688
 10
800.2809999999999
 20
504.925
 10
800.293
 20
505.171
 10
800.2809999999999
 20
505.415
 10
800.244
 20
505.654
 10
800.1849999999999
 20
505.885
 10
800.104
 20
506.104
 10
800.003
 20
506.314
 10
799.883
 20
506.512
 10
799.744
 20
506.697
 10
799.59
 20
506.868
 10
799.419
 20
507.022
 10
799.235
 20
507.161
 10
799.0359999999999
 20
507.281
 10
798.826
 20
507.382
 10
798.607
 20
507.463
 10
798.376
 20
507.522
 10
798.1369999999999
 20
507.558
 10
797.893
 20
507.571
  0
LWPOLYLINE
  5
57
100
AcDbEntity
  8
0
  6
ByLayer
 62
    0
370
   -1
100
AcDbPolyline
 90
  271
 70
    1
 43
0
 10
747.1849999999999
 20
553.771
 10
747.1849999999999
 20
543.371
 10
675.9829999999999
 20
543.371
 10
675.9829999999999
 20
614.571
 10
686.383
 20
614.571
 10
686.396
 20
614.325
 10
686.433
 20
614.088
 10
686.492
 20
613.857
 10
686.572
 20
613.636
 10
686.674
 20
613.426
 10
686.794
 20
613.229
 10
686.932
 20
613.044
 10
687.088
 20
612.874
 10
687.2569999999999
 20
612.718
 10
687.442
 20
612.581
 10
687.64
 20
612.46
 10
687.85
 20
612.36
 10
688.071
 20
612.279
 10
688.3
 20
612.2190000000001
 10
688.539
 20
612.183
 10
688.783
 20
612.171
 10
689.029
 20
612.183
 10
689.268
 20
612.2190000000001
 10
689.497
 20
612.279
 10
689.718
 20
612.36
 10
689.928
 20
612.46
 10
690.126
 20
612.581
 10
690.311
 20
612.718
 10
690.481
 20
612.874
 10
690.636
 20
613.044
 10
690.774
 20
613.229
 10
690.894
 20
613.426
 10
690.996
 20
613.636
 10
691.076
 20
613.857
 10
691.135
 20
614.088
 10
691.172
 20
614.325
 10
691.183
 20
614.571
 10
691.183
 20
710.571
 10
691.172
 20
710.817
 10
691.135
 20
711.054
 10
691.076
 20
711.285
 10
690.996
 20
711.506
 10
690.894
 20
711.715
 10
690.774
 20
711.912
 10
690.636
 20
712.097
 10
690.481
 20
712.268
 10
690.311
 20
712.422
 10
690.126
 20
712.561
 10
689.928
 20
712.681
 10
689.718
 20
712.782
 10
689.497
 20
712.8630000000001
 10
689.268
 20
712.922
 10
689.029
 20
712.958
 10
688.783
 20
712.971
 10
688.539
 20
712.958
 10
688.3
 20
712.922
 10
688.071
 20
712.8630000000001
 10
687.85
 20
712.782
 10
687.64
 20
712.681
 10
687.442
 20
712.561
 10
687.2569999999999
 20
712.422
 10
687.088
 20
712.268
 10
686.932
 20
712.097
 10
686.794
 20
711.912
 10
686.674
 20
711.715
 10
686.572
 20
711.506
 10
686.492
 20
711.285
 10
686.433
 20
711.054
 10
686.396
 20
710.817
 10
686.383
 20
710.571
 10
675.9829999999999
 20
710.571
 10
675.9829999999999
 20
758.571
 10
686.383
 20
758.571
 10
686.396
 20
758.325
 10
686.433
 20
758.088
 10
686.492
 20
757.857
 10
686.572
 20
757.636
 10
686.674
 20
757.426
 10
686.794
 20
757.229
 10
686.932
 20
757.044
 10
687.088
 20
756.874
 10
687.2569999999999
 20
756.7190000000001
 10
687.442
 20
756.581
 10
687.64
 20
756.461
 10
687.85
 20
756.36
 10
688.071
 20
756.279
 10
688.3
 20
756.2190000000001
 10
688.539
 20
756.183
 10
688.783
 20
756.171
 10
689.029
 20
756.183
 10
689.268
 20
756.2190000000001
 10
689.497
 20
756.279
 10
689.718
 20
756.36
 10
689.928
 20
756.461
 10
690.126
 20
756.581
 10
690.311
 20
756.7190000000001
 10
690.481
 20
756.874
 10
690.636
 20
757.044
 10
690.774
 20
757.229
 10
690.894
 20
757.426
 10
690.996
 20
757.636
 10
691.076
 20
757.857
 10
691.135
 20
758.088
 10
691.172
 20
758.325
 10
691.183
 20
758.571
 10
691.183
 20
766.571
 10
691.9829999999999
 20
766.571
 10
695.332
 20
766.471
 10
698.675
 20
766.317
 10
702.011
 20
766.107
 10
705.34
 20
765.843
 10
708.662
 20
765.525
 10
711.976
 20
765.153
 10
715.282
 20
764.726
 10
718.578
 20
764.246
 10
721.864
 20
763.713
 10
725.139
 20
763.126
 10
728.403
 20
762.486
 10
731.654
 20
761.793
 10
734.893
 20
761.047
 10
738.119
 20
760.249
 10
741.332
 20
759.397
 10
744.529
 20
758.494
 10
747.713
 20
757.539
 10
750.879
 20
756.532
 10
754.029
 20
755.474
 10
757.162
 20
754.364
 10
760.278
 20
753.203
 10
763.375
 20
751.989
 10
766.453
 20
750.726
 10
769.511
 20
749.4109999999999
 10
772.55
 20
748.047
 10
775.567
 20
746.6319999999999
 10
778.563
 20
745.167
 10
781.5359999999999
 20
743.651
 10
784.486
 20
742.086
 10
787.414
 20
740.471
 10
790.317
 20
738.807
 10
793.194
 20
737.093
 10
796.044
 20
735.333
 10
798.861
 20
733.528
 10
801.646
 20
731.678
 10
804.397
 20
729.785
 10
807.115
 20
727.849
 10
809.8
 20
725.869
 10
812.449
 20
723.847
 10
815.063
 20
721.783
 10
817.6420000000001
 20
719.679
 10
820.1849999999999
 20
717.533
 10
822.692
 20
715.347
 10
825.1609999999999
 20
713.121
 10
827.593
 20
710.856
 10
829.9880000000001
 20
708.55
 10
832.3440000000001
 20
706.207
 10
834.662
 20
703.826
 10
836.942
 20
701.408
 10
839.181
 20
698.953
 10
841.379
 20
696.461
 10
843.537
 20
693.932
 10
845.654
 20
691.369
 10
847.731
 20
688.771
 10
849.764
 20
686.1369999999999
 10
851.756
 20
683.4690000000001
 10
853.704
 20
680.768
 10
855.61
 20
678.035
 10
857.472
 20
675.268
 10
859.289
 20
672.468
 10
861.063
 20
669.6369999999999
 10
862.789
 20
666.776
 10
864.471
 20
663.883
 10
866.107
 20
660.96
 10
867.694
 20
658.011
 10
869.232
 20
655.039
 10
870.718
 20
652.044
 10
872.154
 20
649.029
 10
873.54
 20
645.9930000000001
 10
874.875
 20
642.938
 10
876.158
 20
639.861
 10
877.39
 20
636.7670000000001
 10
878.571
 20
633.6559999999999
 10
879.701
 20
630.525
 10
880.778
 20
627.379
 10
881.804
 20
624.215
 10
882.778
 20
621.037
 10
883.7
 20
617.8440000000001
 10
884.569
 20
614.6369999999999
 10
885.386
 20
611.417
 10
886.15
 20
608.182
 10
886.861
 20
604.936
 10
887.519
 20
601.679
 10
888.125
 20
598.41
 10
888.676
 20
595.1319999999999
 10
889.175
 20
591.843
 10
889.619
 20
588.546
 10
890.011
 20
585.24
 10
890.347
 20
581.926
 10
890.631
 20
578.606
 10
890.86
 20
575.279
 10
891.033
 20
571.946
 10
891.154
 20
568.6079999999999
 10
891.2190000000001
 20
565.265
 10
891.229
 20
561.919
 10
891.1849999999999
 20
558.571
 10
891.1849999999999
 20
543.371
 10
843.1849999999999
 20
543.371
 10
843.1849999999999
 20
553.771
 10
843.429
 20
553.783
 10
843.668
 20
553.819
 10
843.897
 20
553.879
 10
844.1180000000001
 20
553.96
 10
844.328
 20
554.0599999999999
 10
844.526
 20
554.181
 10
844.711
 20
554.318
 10
844.881
 20
554.474
 10
845.0359999999999
 20
554.644
 10
845.175
 20
554.829
 10
845.294
 20
555.026
 10
845.396
 20
555.236
 10
845.476
 20
555.457
 10
845.5359999999999
 20
555.688
 10
845.572
 20
555.925
 10
845.585
 20
556.171
 10
845.572
 20
556.415
 10
845.5359999999999
 20
556.654
 10
845.476
 20
556.885
 10
845.396
 20
557.104
 10
845.294
 20
557.314
 10
845.175
 20
557.5119999999999
 10
845.0359999999999
 20
557.697
 10
844.881
 20
557.8680000000001
 10
844.711
 20
558.022
 10
844.526
 20
558.1609999999999
 10
844.328
 20
558.2809999999999
 10
844.1180000000001
 20
558.3819999999999
 10
843.897
 20
558.463
 10
843.668
 20
558.522
 10
843.429
 20
558.558
 10
843.1849999999999
 20
558.571
 10
747.1849999999999
 20
558.571
 10
746.939
 20
558.558
 10
746.7
 20
558.522
 10
746.471
 20
558.463
 10
746.25
 20
558.3819999999999
 10
746.04
 20
558.2809999999999
 10
745.842
 20
558.1609999999999
 10
745.657
 20
558.022
 10
745.4880000000001
 20
557.8680000000001
 10
745.332
 20
557.697
 10
745.194
 20
557.5119999999999
 10
745.074
 20
557.314
 10
744.972
 20
557.104
 10
744.8920000000001
 20
556.885
 10
744.833
 20
556.654
 10
744.796
 20
556.415
 10
744.785
 20
556.171
 10
744.796
 20
555.925
 10
744.833
 20
555.688
 10
744.8920000000001
 20
555.457
 10
744.972
 20
555.236
 10
745.074
 20
555.026
 10
745.194
 20
554.829
 10
745.332
 20
554.644
 10
745.4880000000001
 20
554.474
 10
745.657
 20
554.318
 10
745.842
 20
554.181
 10
746.04
 20
554.0599999999999
 10
746.25
 20
553.96
 10
746.471
 20
553.879
 10
746.7
 20
553.819
 10
746.939
 20
553.783
 10
747.1849999999999
 20
553.771
  0
LWPOLYLINE
  5
58
100
AcDbEntity
  8
0
  6
ByLayer
 62
    0
370
   -1
100
AcDbPolyline
 90
  311
 70
    1
 43
0
 10
435.917
 20
886.236
 10
431.531
 20
888.308
 10
426.786
 20
890.453
 10
422.846
 20
892.124
 10
421.524
 20
892.653
 10
423.008
 20
892.918
 10
427.432
 20
893.932
 10
432.346
 20
895.2859999999999
 10
436.965
 20
896.533
 10
441.992
 20
897.499
 10
448.122
 20
898.01
 10
456.06
 20
897.889
 10
466.506
 20
896.963
 10
476.756
 20
895.59
 10
480.158
 20
895.051
 10
479.158
 20
895.451
 10
476.2
 20
896.746
 10
472.292
 20
898.579
 10
468.363
 20
900.51
 10
464.344
 20
902.486
 10
460.164
 20
904.468
 10
455.758
 20
906.4109999999999
 10
451.054
 20
908.265
 10
445.985
 20
909.992
 10
440.482
 20
911.539
 10
434.476
 20
912.869
 10
427.901
 20
913.932
 10
420.682
 20
914.682
 10
412.756
 20
915.078
 10
404.049
 20
915.075
 10
394.497
 20
914.624
 10
386.64
 20
913.968
 10
384.031
 20
913.6849999999999
 10
385.45
 20
914.0309999999999
 10
389.339
 20
915.01
 10
395.126
 20
916.524
 10
402.256
 20
918.471
 10
410.153
 20
920.754
 10
418.258
 20
923.2809999999999
 10
426.008
 20
925.944
 10
431.156
 20
927.921
 10
432.839
 20
928.6559999999999
 10
429.822
 20
928.6849999999999
 10
420.783
 20
928.989
 10
410.468
 20
929.682
 10
401.5
 20
930.65
 10
393.5
 20
931.817
 10
386.078
 20
933.093
 10
378.854
 20
934.4
 10
371.442
 20
935.653
 10
365.457
 20
936.528
 10
363.458
 20
936.772
 10
364.263
 20
936.7569999999999
 10
366.693
 20
936.994
 10
369.928
 20
937.6559999999999
 10
373.372
 20
938.556
 10
377.256
 20
939.494
 10
381.792
 20
940.271
 10
387.2
 20
940.6849999999999
 10
393.703
 20
940.539
 10
399.578
 20
939.938
 10
401.521
 20
939.631
 10
400.5
 20
940.107
 10
397.575
 20
941.397
 10
392.935
 20
943.29
 10
386.778
 20
945.569
 10
379.3
 20
948.021
 10
370.689
 20
950.429
 10
361.149
 20
952.579
 10
350.867
 20
954.2619999999999
 10
340.042
 20
955.26
 10
328.867
 20
955.3579999999999
 10
317.536
 20
954.349
 10
306.247
 20
952.01
 10
295.192
 20
948.129
 10
284.568
 20
942.496
 10
274.568
 20
934.894
 10
267.465
 20
927.728
 10
265.388
 20
925.114
 10
264.235
 20
923.6079999999999
 10
261.051
 20
918.8869999999999
 10
257.286
 20
912.293
 10
254.083
 20
905.3869999999999
 10
251.442
 20
898.217
 10
249.358
 20
890.838
 10
247.828
 20
883.299
 10
246.846
 20
875.647
 10
245.614
 20
865.361
 10
245.614
 20
849.361
 10
269.614
 20
849.361
 10
269.614
 20
860.561
 10
269.369
 20
860.574
 10
269.131
 20
860.61
 10
268.9
 20
860.669
 10
268.681
 20
860.75
 10
268.471
 20
860.851
 10
268.272
 20
860.971
 10
268.088
 20
861.11
 10
267.917
 20
861.264
 10
267.763
 20
861.4349999999999
 10
267.624
 20
861.619
 10
267.504
 20
861.818
 10
267.403
 20
862.028
 10
267.322
 20
862.249
 10
267.263
 20
862.478
 10
267.226
 20
862.717
 10
267.214
 20
862.961
 10
267.226
 20
863.207
 10
267.263
 20
863.446
 10
267.322
 20
863.675
 10
267.403
 20
863.896
 10
267.504
 20
864.106
 10
267.624
 20
864.304
 10
267.763
 20
864.489
 10
267.917
 20
864.658
 10
268.088
 20
864.814
 10
268.272
 20
864.951
 10
268.471
 20
865.072
 10
268.681
 20
865.174
 10
268.9
 20
865.254
 10
269.131
 20
865.313
 10
269.369
 20
865.349
 10
269.614
 20
865.361
 10
293.614
 20
865.361
 10
293.851
 20
865.35
 10
294.085
 20
865.3150000000001
 10
294.313
 20
865.258
 10
294.533
 20
865.179
 10
294.744
 20
865.079
 10
294.946
 20
864.958
 10
295.136
 20
864.818
 10
295.311
 20
864.658
 10
295.471
 20
864.4829999999999
 10
295.611
 20
864.293
 10
295.732
 20
864.092
 10
295.832
 20
863.881
 10
295.911
 20
863.66
 10
295.968
 20
863.432
 10
296.003
 20
863.199
 10
296.014
 20
862.961
 10
296.003
 20
862.725
 10
295.968
 20
862.492
 10
295.911
 20
862.264
 10
295.832
 20
862.043
 10
295.732
 20
861.832
 10
295.611
 20
861.631
 10
295.471
 20
861.4400000000001
 10
295.311
 20
861.264
 10
295.136
 20
861.106
 10
294.946
 20
860.965
 10
294.744
 20
860.8440000000001
 10
294.533
 20
860.744
 10
294.313
 20
860.665
 10
294.085
 20
860.6079999999999
 10
293.851
 20
860.574
 10
293.614
 20
860.561
 10
293.614
 20
849.361
 10
357.614
 20
849.361
 10
357.614
 20
860.561
 10
357.369
 20
860.574
 10
357.131
 20
860.61
 10
356.901
 20
860.669
 10
356.681
 20
860.75
 10
356.471
 20
860.851
 10
356.272
 20
860.971
 10
356.088
 20
861.11
 10
355.918
 20
861.264
 10
355.763
 20
861.4349999999999
 10
355.625
 20
861.619
 10
355.504
 20
861.818
 10
355.403
 20
862.028
 10
355.322
 20
862.249
 10
355.264
 20
862.478
 10
355.226
 20
862.717
 10
355.214
 20
862.961
 10
355.226
 20
863.207
 10
355.264
 20
863.446
 10
355.322
 20
863.675
 10
355.403
 20
863.896
 10
355.504
 20
864.106
 10
355.625
 20
864.304
 10
355.763
 20
864.489
 10
355.918
 20
864.658
 10
356.088
 20
864.814
 10
356.272
 20
864.951
 10
356.471
 20
865.072
 10
356.681
 20
865.174
 10
356.901
 20
865.254
 10
357.131
 20
865.313
 10
357.369
 20
865.349
 10
357.614
 20
865.361
 10
381.615
 20
865.361
 10
381.86
 20
865.349
 10
382.099
 20
865.313
 10
382.328
 20
865.254
 10
382.549
 20
865.174
 10
382.758
 20
865.072
 10
382.957
 20
864.951
 10
383.142
 20
864.814
 10
383.311
 20
864.658
 10
383.467
 20
864.489
 10
383.604
 20
864.304
 10
383.725
 20
864.106
 10
383.826
 20
863.896
 10
383.907
 20
863.675
 10
383.965
 20
863.446
 10
384.003
 20
863.207
 10
384.014
 20
862.961
 10
384.003
 20
862.717
 10
383.965
 20
862.478
 10
383.907
 20
862.249
 10
383.826
 20
862.028
 10
383.725
 20
861.818
 10
383.604
 20
861.619
 10
383.467
 20
861.4349999999999
 10
383.311
 20
861.264
 10
383.142
 20
861.11
 10
382.957
 20
860.971
 10
382.758
 20
860.851
 10
382.549
 20
860.75
 10
382.328
 20
860.669
 10
382.099
 20
860.61
 10
381.86
 20
860.574
 10
381.614
 20
860.561
 10
381.614
 20
849.361
 10
453.615
 20
849.361
 10
453.615
 20
860.561
 10
453.378
 20
860.574
 10
453.144
 20
860.6079999999999
 10
452.917
 20
860.665
 10
452.696
 20
860.744
 10
452.485
 20
860.8440000000001
 10
452.283
 20
860.965
 10
452.093
 20
861.106
 10
451.918
 20
861.264
 10
451.758
 20
861.4400000000001
 10
451.618
 20
861.631
 10
451.497
 20
861.832
 10
451.397
 20
862.043
 10
451.318
 20
862.264
 10
451.261
 20
862.492
 10
451.226
 20
862.725
 10
451.215
 20
862.961
 10
451.226
 20
863.199
 10
451.261
 20
863.432
 10
451.318
 20
863.66
 10
451.397
 20
863.881
 10
451.497
 20
864.092
 10
451.618
 20
864.293
 10
451.758
 20
864.4829999999999
 10
451.918
 20
864.658
 10
452.093
 20
864.818
 10
452.283
 20
864.958
 10
452.485
 20
865.079
 10
452.696
 20
865.179
 10
452.917
 20
865.258
 10
453.144
 20
865.3150000000001
 10
453.378
 20
865.35
 10
453.615
 20
865.361
 10
477.615
 20
865.361
 10
477.86
 20
865.349
 10
478.099
 20
865.313
 10
478.328
 20
865.254
 10
478.549
 20
865.174
 10
478.758
 20
865.072
 10
478.957
 20
864.951
 10
479.142
 20
864.814
 10
479.311
 20
864.658
 10
479.467
 20
864.489
 10
479.604
 20
864.304
 10
479.725
 20
864.106
 10
479.826
 20
863.896
 10
479.907
 20
863.675
 10
479.965
 20
863.446
 10
480.003
 20
863.207
 10
480.015
 20
862.961
 10
480.003
 20
862.717
 10
479.965
 20
862.478
 10
479.907
 20
862.249
 10
479.826
 20
862.028
 10
479.725
 20
861.818
 10
479.604
 20
861.619
 10
479.467
 20
861.4349999999999
 10
479.311
 20
861.264
 10
479.142
 20
861.11
 10
478.957
 20
860.971
 10
478.758
 20
860.851
 10
478.549
 20
860.75
 10
478.328
 20
860.669
 10
478.099
 20
860.61
 10
477.86
 20
860.574
 10
477.615
 20
860.561
 10
477.615
 20
849.361
 10
517.615
 20
849.361
 10
517.615
 20
865.361
 10
529.875
 20
869.832
 10
533.193
 20
871.162
 10
529.615
 20
871.15
 10
518.885
 20
871.228
 10
506.307
 20
871.521
 10
495.292
 20
872.025
 10
485.679
 20
872.736
 10
477.313
 20
873.635
 10
470.026
 20
874.713
 10
463.667
 20
875.956
 10
458.068
 20
877.354
 10
453.072
 20
878.8920000000001
 10
448.521
 20
880.564
 10
444.25
 20
882.354
 10
440.101
 20
884.246
 10
435.917
 20
886.236
  0
LWPOLYLINE
  5
59
100
AcDbEntity
  8
0
  6
ByLayer
 62
    0
370
   -1
100
AcDbPolyline
 90
  296
 70
    1
 43
0
 10
816.819
 20
932.41
 10
811.861
 20
927.068
 10
807.457
 20
921.225
 10
803.665
 20
914.8819999999999
 10
800.533
 20
908.037
 10
798.111
 20
900.704
 10
796.45
 20
892.879
 10
795.606
 20
884.568
 10
795.624
 20
875.775
 10
796.561
 20
866.504
 10
798.465
 20
856.7569999999999
 10
801.3869999999999
 20
846.537
 10
805.379
 20
835.85
 10
810.494
 20
824.697
 10
815.122
 20
815.936
 10
816.783
 20
813.082
 10
816.456
 20
815.136
 10
816.0359999999999
 20
821.386
 10
816.325
 20
829.171
 10
817.3579999999999
 20
836.3920000000001
 10
818.846
 20
843.0069999999999
 10
820.494
 20
848.9640000000001
 10
822.018
 20
854.222
 10
823.124
 20
858.7380000000001
 10
823.539
 20
861.533
 10
823.525
 20
862.46
 10
823.783
 20
860.326
 10
824.789
 20
853.951
 10
826.424
 20
845.194
 10
828.254
 20
836.1420000000001
 10
830.114
 20
826.7430000000001
 10
831.828
 20
816.951
 10
833.226
 20
806.717
 10
834.135
 20
795.996
 10
834.415
 20
787.55
 10
834.385
 20
784.735
 10
835.265
 20
786.8579999999999
 10
837.744
 20
793.294
 10
840.939
 20
802.24
 10
843.8819999999999
 20
811.1
 10
846.486
 20
819.404
 10
848.6609999999999
 20
826.683
 10
850.325
 20
832.4640000000001
 10
851.385
 20
836.2809999999999
 10
851.76
 20
837.654
 10
851.474
 20
836.035
 10
850.796
 20
831.133
 10
850.207
 20
824.16
 10
850.075
 20
816.529
 10
850.474
 20
808.04
 10
851.481
 20
798.49
 10
853.182
 20
787.674
 10
855.647
 20
775.383
 10
858.081
 20
764.897
 10
858.96
 20
761.418
 10
859.147
 20
762.353
 10
859.778
 20
765.1420000000001
 10
860.832
 20
769.399
 10
862.064
 20
773.967
 10
863.4109999999999
 20
778.617
 10
864.817
 20
783.124
 10
866.221
 20
787.264
 10
867.564
 20
790.808
 10
868.447
 20
792.871
 10
868.789
 20
793.535
 10
869.2329999999999
 20
791.8819999999999
 10
870.343
 20
786.85
 10
871.311
 20
780.651
 10
871.8099999999999
 20
774.814
 10
871.958
 20
769.196
 10
871.872
 20
763.668
 10
871.668
 20
758.092
 10
871.465
 20
752.342
 10
871.3819999999999
 20
746.279
 10
871.5309999999999
 20
739.775
 10
872.033
 20
732.689
 10
873.0069999999999
 20
724.889
 10
874.564
 20
716.249
 10
876.826
 20
706.626
 10
879.912
 20
695.8920000000001
 10
883.218
 20
686.128
 10
883.218
 20
726.128
 10
883.231
 20
726.374
 10
883.2670000000001
 20
726.6130000000001
 10
883.326
 20
726.842
 10
883.407
 20
727.063
 10
883.508
 20
727.272
 10
883.628
 20
727.471
 10
883.7670000000001
 20
727.6559999999999
 10
883.921
 20
727.825
 10
884.092
 20
727.981
 10
884.276
 20
728.1180000000001
 10
884.475
 20
728.239
 10
884.6849999999999
 20
728.34
 10
884.904
 20
728.421
 10
885.135
 20
728.479
 10
885.374
 20
728.515
 10
885.6180000000001
 20
728.528
 10
885.864
 20
728.515
 10
886.103
 20
728.479
 10
886.332
 20
728.421
 10
886.553
 20
728.34
 10
886.7619999999999
 20
728.239
 10
886.96
 20
728.1180000000001
 10
887.146
 20
727.981
 10
887.3150000000001
 20
727.825
 10
887.471
 20
727.6559999999999
 10
887.6079999999999
 20
727.471
 10
887.729
 20
727.272
 10
887.831
 20
727.063
 10
887.9109999999999
 20
726.842
 10
887.9690000000001
 20
726.6130000000001
 10
888.006
 20
726.374
 10
888.018
 20
726.128
 10
899.218
 20
726.128
 10
899.218
 20
750.128
 10
888.018
 20
750.128
 10
888.006
 20
749.883
 10
887.9690000000001
 20
749.644
 10
887.9109999999999
 20
749.415
 10
887.831
 20
749.194
 10
887.729
 20
748.985
 10
887.6079999999999
 20
748.7859999999999
 10
887.471
 20
748.601
 10
887.3150000000001
 20
748.432
 10
887.146
 20
748.276
 10
886.96
 20
748.139
 10
886.7619999999999
 20
748.018
 10
886.553
 20
747.917
 10
886.332
 20
747.836
 10
886.103
 20
747.776
 10
885.864
 20
747.74
 10
885.6180000000001
 20
747.728
 10
885.374
 20
747.74
 10
885.135
 20
747.776
 10
884.904
 20
747.836
 10
884.6849999999999
 20
747.917
 10
884.475
 20
748.018
 10
884.276
 20
748.139
 10
884.092
 20
748.276
 10
883.921
 20
748.432
 10
883.7670000000001
 20
748.601
 10
883.628
 20
748.7859999999999
 10
883.508
 20
748.985
 10
883.407
 20
749.194
 10
883.326
 20
749.415
 10
883.2670000000001
 20
749.644
 10
883.231
 20
749.883
 10
883.218
 20
750.128
 10
883.218
 20
822.128
 10
883.231
 20
822.374
 10
883.2670000000001
 20
822.6130000000001
 10
883.326
 20
822.842
 10
883.407
 20
823.063
 10
883.508
 20
823.272
 10
883.628
 20
823.471
 10
883.7670000000001
 20
823.6559999999999
 10
883.921
 20
823.825
 10
884.092
 20
823.981
 10
884.276
 20
824.1180000000001
 10
884.475
 20
824.239
 10
884.6849999999999
 20
824.34
 10
884.904
 20
824.421
 10
885.135
 20
824.479
 10
885.374
 20
824.5170000000001
 10
885.6180000000001
 20
824.528
 10
885.864
 20
824.5170000000001
 10
886.103
 20
824.479
 10
886.332
 20
824.421
 10
886.553
 20
824.34
 10
886.7619999999999
 20
824.239
 10
886.96
 20
824.1180000000001
 10
887.146
 20
823.981
 10
887.3150000000001
 20
823.825
 10
887.471
 20
823.6559999999999
 10
887.6079999999999
 20
823.471
 10
887.729
 20
823.272
 10
887.831
 20
823.063
 10
887.9109999999999
 20
822.842
 10
887.9690000000001
 20
822.6130000000001
 10
888.006
 20
822.374
 10
888.018
 20
822.128
 10
899.218
 20
822.128
 10
899.218
 20
846.129
 10
888.018
 20
846.129
 10
888.006
 20
845.883
 10
887.9690000000001
 20
845.644
 10
887.9109999999999
 20
845.415
 10
887.831
 20
845.194
 10
887.729
 20
844.985
 10
887.6079999999999
 20
844.7859999999999
 10
887.471
 20
844.601
 10
887.3150000000001
 20
844.432
 10
887.146
 20
844.276
 10
886.96
 20
844.139
 10
886.7619999999999
 20
844.018
 10
886.553
 20
843.917
 10
886.332
 20
843.836
 10
886.103
 20
843.778
 10
885.864
 20
843.74
 10
885.6180000000001
 20
843.728
 10
885.374
 20
843.74
 10
885.135
 20
843.778
 10
884.904
 20
843.836
 10
884.6849999999999
 20
843.917
 10
884.475
 20
844.018
 10
884.276
 20
844.139
 10
884.092
 20
844.276
 10
883.921
 20
844.432
 10
883.7670000000001
 20
844.601
 10
883.628
 20
844.7859999999999
 10
883.508
 20
844.985
 10
883.407
 20
845.194
 10
883.326
 20
845.415
 10
883.2670000000001
 20
845.644
 10
883.231
 20
845.883
 10
883.218
 20
846.129
 10
883.218
 20
910.129
 10
883.231
 20
910.374
 10
883.2670000000001
 20
910.6130000000001
 10
883.326
 20
910.842
 10
883.407
 20
911.063
 10
883.508
 20
911.272
 10
883.628
 20
911.471
 10
883.7670000000001
 20
911.6559999999999
 10
883.921
 20
911.825
 10
884.092
 20
911.981
 10
884.276
 20
912.1180000000001
 10
884.475
 20
912.239
 10
884.6849999999999
 20
912.34
 10
884.904
 20
912.421
 10
885.135
 20
912.479
 10
885.374
 20
912.5170000000001
 10
885.6180000000001
 20
912.529
 10
885.864
 20
912.5170000000001
 10
886.103
 20
912.479
 10
886.332
 20
912.421
 10
886.553
 20
912.34
 10
886.7619999999999
 20
912.239
 10
886.96
 20
912.1180000000001
 10
887.146
 20
911.981
 10
887.3150000000001
 20
911.825
 10
887.471
 20
911.6559999999999
 10
887.6079999999999
 20
911.471
 10
887.729
 20
911.272
 10
887.831
 20
911.063
 10
887.9109999999999
 20
910.842
 10
887.9690000000001
 20
910.6130000000001
 10
888.006
 20
910.374
 10
888.018
 20
910.129
 10
899.218
 20
910.129
 10
899.218
 20
934.129
 10
888.018
 20
934.129
 10
888.006
 20
933.883
 10
887.9690000000001
 20
933.644
 10
887.9109999999999
 20
933.415
 10
887.831
 20
933.194
 10
887.729
 20
932.985
 10
887.6079999999999
 20
932.7859999999999
 10
887.471
 20
932.601
 10
887.3150000000001
 20
932.432
 10
887.146
 20
932.276
 10
886.96
 20
932.139
 10
886.7619999999999
 20
932.018
 10
886.553
 20
931.917
 10
886.332
 20
931.836
 10
886.103
 20
931.778
 10
885.864
 20
931.74
 10
885.6180000000001
 20
931.729
 10
885.374
 20
931.74
 10
885.135
 20
931.778
 10
884.904
 20
931.836
 10
884.6849999999999
 20
931.917
 10
884.475
 20
932.018
 10
884.276
 20
932.139
 10
884.092
 20
932.276
 10
883.921
 20
932.432
 10
883.7670000000001
 20
932.601
 10
883.628
 20
932.7859999999999
 10
883.508
 20
932.985
 10
883.407
 20
933.194
 10
883.326
 20
933.415
 10
883.2670000000001
 20
933.644
 10
883.231
 20
933.883
 10
883.218
 20
934.129
 10
883.218
 20
958.129
 10
878.082
 20
957.225
 10
870.414
 20
956.576
 10
862.84
 20
955.394
 10
855.414
 20
953.678
 10
848.186
 20
951.436
 10
841.207
 20
948.665
 10
834.5309999999999
 20
945.376
 10
828.207
 20
941.567
 10
822.2859999999999
 20
937.246
 10
816.819
 20
932.41
  0
ENDSEC
  0
SECTION
  2
OBJECTS
  0
DICTIONARY
  5
C
330
0
100
AcDbDictionary
281
    1
  3
ACAD_GROUP
350
D
  0
DICTIONARY
  5
D
330
C
100
AcDbDictionary
281
    1
  0
ENDSEC
  0
EOF
