<?xml version="1.0"?>
<svg xmlns="http://www.w3.org/2000/svg" xmlns:lc="http://www.librecad.org" xmlns:xlink="http://www.w3.org/1999/xlink" width="1189mm" height="1200mm" viewBox="0 0 1189 1200">
    <g lc:layername="0" lc:is_locked="false" lc:is_construction="false" fill="none" stroke="black" stroke-width="1">
        <path d="M0,1200 A0,0 0 1,0 0,1200 Z "/>
        <path d="M0,400 A0,0 0 1,0 0,400 Z "/>
        <path d="M0,800 A0,0 0 1,0 0,800 Z "/>
        <path d="M539.99998474,934 L539.99998856,929 A3,3 0 0,0 539.99999237,923 L469.99998856,923 A3,3 0 1,0 469.99998951,929 L469.99998474,934 A3,3 0 0,0 469.99999237,940 L539.99998474,940 A3,3 0 0,0 539.99998474,934 Z "/>
        <path d="M540.00000316,604 L540.00000697,599 A3,3 0 0,0 540.00001079,593 L470.00000697,593 A3,3 0 0,0 470.00000793,599 L470.00000316,604 A3,3 0 0,0 470.00001079,610 L540.00000316,610 A3,3 0 0,0 540.00000316,604 Z "/>
        <path d="M540.00000697,300 A3,3 0 0,0 540.00000697,294 L540.00000316,289 A3,3 0 0,0 540.00000697,283 L480.00000316,283 A3,3 0 0,0 480.00000697,289 L479.99999619,294 A3,3 0 0,0 480.00000381,300 L540.00000697,300 Z "/>
        <path d="M660.00000697,593 A3,3 0 1,0 660.00000602,599 L660.00001079,604 A3,3 0 1,0 660.00000316,610 L749,610 L749,630 L736,630 A3,3 0 0,0 730,629.99998474 L730,889.99998474 A3,3 0 0,0 736,890 L749,890 L749,923 L660.00000381,923 A3,3 0 0,0 660,929 L660.00000763,934 A3,3 0 0,0 660,940 L749,940 L749,960 L736,960 A3,3 0 0,0 730,960 A299.24093786,299.24093786 0 0,0 430,1200 L330,1200 A500,500 0 0,1 530,800 A543.04508025,543.04508025 0 0,1 730,0 L730,29.99998474 A3,3 0 1,0 736,30 L749,30 L749,100 L736,100 A3,3 0 0,0 730,100 L730,259.99998474 A3,3 0 0,0 736,260 L749,260 L749,283 L660.00000381,283 A3,3 0 0,0 660,289 L660.00001079,294 A3,3 0 1,0 660.00000316,300 L749,300 L749,330 L736,330 A3,3 0 1,0 730,330 L730,559.99998474 A3,3 0 0,0 736,560 L749,560 L749,593 L660.00000697,593 Z "/>
        <line x1="770" y1="890" x2="783" y2="889.99998434"/>
        <line x1="770" y1="30" x2="783" y2="30.00002329"/>
        <line x1="783" y1="560" x2="770" y2="560"/>
        <path d="M1039,294 L1038.99999619,289 A3,3 0 0,0 1039,283 L978.99999619,283 A3,3 0 0,0 979,289 L978.99998921,294 A3,3 0 1,0 978.99999684,300 L1039,300 A3,3 0 0,0 1039,294 Z "/>
        <path d="M978.99999398,599 L978.99998921,604 A3,3 0 1,0 978.99999684,610 L1048.99998921,610 A3,3 0 0,0 1048.99999684,604 L1048.9999854,599 A3,3 0 0,0 1049,593 L978.99999619,593 A3,3 0 1,0 978.99999398,599 Z "/>
        <path d="M783,100 A3,3 0 1,0 789,100.00007615 L789,29.99997079 A3,3 0 0,0 783,30.00002329 L770,30 L770,0 L789,0 A543.04508025,543.04508025 0 0,1 989,800 A500,500 0 0,1 1189,1200 L1089,1200 A299.24093786,299.24093786 0 0,0 789,960 L789,940 L859,940 A3,3 0 0,0 858.99999237,934 L859,929 A3,3 0 0,0 858.99999619,923 L789,923 L789,890.00000763 A3,3 0 0,0 783,889.99998434 L770,890 L770,630 L783,630 A3,3 0 0,0 789,630.00007615 L789,610 L858.99999684,610 A3,3 0 1,0 858.99998921,604 L859,599 A3,3 0 0,0 858.99999303,593 L789,593 L789,560.00002289 A3,3 0 1,0 783,560 L770,560 L770,330 L783,330 A3,3 0 0,0 789,330.00007615 L789,300 L858.99999684,300 A3,3 0 1,0 858.99998921,294 L858.99999398,289 A3,3 0 0,0 858.99999619,283 L789,283 L789,259.99997079 A3,3 0 0,0 783,260.00002329 L770,260 L770,100 L783,100 Z "/>
        <path d="M1048.99999619,929 A3,3 0 0,0 1049,923 L978.99999619,923 A3,3 0 0,0 978.99999714,929 L978.99999237,934 A3,3 0 0,0 979,940 L1048.99999237,940 A3,3 0 0,0 1048.99999237,934 L1048.99999619,929 Z "/>
        <path d="M1020,620 L1020,620 L1020,620 L1020,620 L1020,620 Z "/>
        <path d="M47.0013,72.148 L40.80342,78.8248 L35.29884,86.1292 L30.55926,94.0588 L26.64318,102.6142 L23.615868,111.7804 L21.53904,121.5622 L20.4843534,131.95 L20.5071402,142.9426 L21.679014,154.531 L24.058578,166.7146 L27.71094,179.4892 L32.70114,192.8482 L39.09438,206.7898 L44.87892,217.7404 L46.95576,221.308 L46.54554,218.74 L46.0215,210.9274 L46.38282,201.1972 L47.67516,192.1708 L49.53384,183.9022 L51.59442,176.455 L53.49864,169.8826 L54.88212,164.2384 L55.39974,160.7446 L55.38348,159.5866 L55.70574,162.2524 L56.96226,170.221 L59.00646,181.168 L61.29492,192.4834 L63.61914,204.2314 L65.76108,216.4708 L67.50906,229.264 L68.64516,242.6656 L68.99676,253.2226 L68.95764,256.7416 L70.05792,254.0884 L73.15692,246.0418 L77.151,234.8596 L80.8296,223.7854 L84.0846,213.4048 L86.8026,204.3064 L88.8828,197.08 L90.2076,192.3106 L90.6762,190.5922 L90.6762,190.5922 L90.3186,192.6166 L89.472,198.7432 L88.7364,207.4606 L88.5702,216.9982 L89.0682,227.611 L90.3282,239.5474 L92.454,253.069 L95.5362,268.4308 L98.577,281.539 L99.6768,285.8884 L99.9114,284.7196 L100.6992,281.233 L102.0174,275.9116 L103.557,270.2014 L105.24,264.3904 L106.998,258.7564 L108.7524,253.5808 L110.4324,249.1498 L111.5358,246.5722 L111.9624,245.7418 L112.5192,247.8088 L113.9058,254.098 L115.1166,261.8458 L115.7382,269.143 L115.9242,276.1648 L115.8168,283.0756 L115.5624,290.0458 L115.308,297.2332 L115.2042,304.8106 L115.3902,312.9424 L116.0184,321.7996 L117.2358,331.549 L119.1822,342.35002 L122.0106,354.37792 L125.868,367.79596 L130,380 L130,330 A3,3 0 1,1 136,330 L150,330 L150,300 L136,300.00000381 A3,3 0 0,1 130,300 L130,210 A3,3 0 1,1 136,210 L150,210 L150,180 L136,180.00000381 A3,3 0 1,1 130,180 L130,100 A3,3 0 1,1 136,100 L150,100 L150,70 L136,70.00000381 A3,3 0 0,1 130,70 L130,40 L123.5796,41.1292 L113.9934,41.9398 L104.5272,43.4176 L95.2434,45.5632 L86.2104,48.3658 L77.48634,51.829 L69.13998,55.9408 L61.2363,60.703 L53.83398,66.103 L47.0013,72.148 Z "/>
        <path d="M216.093,277.8772 L218.6838,272.3956 L221.3634,266.4646 L223.4532,261.5392 L224.1138,259.8856 L224.4456,261.7414 L225.7122,267.2716 L227.4048,273.4138 L228.9642,279.1888 L230.1714,285.4714 L230.8098,293.1346 L230.6598,303.0568 L229.5018,316.1134 L227.7858,328.9258 L227.1114,333.1798 L227.613,331.93 L229.2306,328.2322 L231.5226,323.3464 L233.9352,318.4342 L236.406,313.4116 L238.8822,308.1868 L241.3116,302.6788 L243.6288,296.8 L245.7876,290.4622 L247.7208,283.5838 L249.384,276.0772 L250.7124,267.8584 L251.6496,258.8338 L252.1452,248.9254 L252.1416,238.0432 L251.5782,226.1032 L250.7574,216.2824 L250.4034,213.0208 L250.4034,213.0208 L250.836,214.795 L252.06,219.655 L253.9518,226.8904 L256.386,235.8004 L259.2408,245.6734 L262.398,255.8038 L265.728,265.4914 L268.1988,271.9264 L269.1174,274.03 L269.1534,270.2596 L269.5338,258.9616 L270.3996,246.0676 L271.611,234.8566 L273.069,224.8564 L274.6638,215.5792 L276.2982,206.5492 L277.8642,197.2846 L278.9574,189.8038 L279.264,187.3042 L279.2442,188.3098 L279.5406,191.3476 L280.3674,195.391 L281.493,199.6972 L282.666,204.5506 L283.6356,210.2206 L284.1534,216.9826 L283.971,225.1108 L283.2192,232.4542 L282.8352,234.8824 L282.8352,234.8824 L283.431,233.6068 L285.045,229.951 L287.4114,224.1496 L290.2596,216.4546 L293.3232,207.106 L296.334,196.3438 L299.0226,184.4176 L301.1256,171.5656 L302.3724,158.0332 L302.496,144.0658 L301.233,129.9022 L298.3098,115.7908 L293.46,101.9722 L286.4184,88.6918 L276.9168,76.1914 L267.9582,67.3138 L264.69,64.7164 L262.8084,63.2746 L256.9068,59.2966 L248.6646,54.5896 L240.0318,50.5858 L231.0696,47.2846 L221.8452,44.6806 L212.4216,42.7666 L202.8576,41.539 L190,40 L170,40 L170,70 L184,69.99999619 A3,3 0 0,1 190,70 L190,100.00000763 A3,3 0 1,1 184,100 L170,100 L170,180 L184,179.99999619 A3,3 0 0,1 190,180 L190,210.00000763 A3,3 0 1,1 184,210 L170,210 L170,300 L184,299.99999619 A3,3 0 1,1 190,300 L190,330.00000763 A3,3 0 1,1 184,330 L170,330 L170,380 L190,380 L195.588,395.325256 L197.2518,399.47239 L197.2518,399.47239 L197.2356,394.999732 L197.3334,381.58828 L197.6982,365.86564 L198.3288,352.09612 L199.218,340.081 L200.3406,329.6224 L201.6888,320.5138 L203.2416,312.565 L204.99,305.5666 L206.913,299.3224 L209.0034,293.6326 L211.2402,288.2938 L213.606,283.108 L216.093,277.8772 Z "/>
        <path d="M34.00001526,500 L21.00001526,500 L21.00001526,430 L21.00001526,411 L40.00001526,411 L110.00001526,411 L110.00001526,424.00000539 A2.9999973,2.9999973 0 0,0 110.00001526,430 L229.99999237,430 A3,3 0 1,0 230,424 L230,411 L290,411 L290.00001526,424.00000539 A2.9999973,2.9999973 0 0,0 290,430 L300,430 L300.00001526,431 A254.55942332,254.55942332 0 0,1 40.00001526,680 L21.00001526,680 L21.00001526,620 L34.00001526,620 A3,3 0 0,0 40.00001526,620 L40.00001526,499.99999461 A3,3 0 0,0 34.00001526,500 Z "/>
        <path d="M33,990 L20,990 L20,920 L20,901 L39,901 L109,901 L109,914.00000539 A2.9999973,2.9999973 0 0,0 109,920 L228.99997711,920 A3,3 0 1,0 228.99998474,914 L228.99998474,901 L288.99998474,901 L289,914.00000539 A2.9999973,2.9999973 0 0,0 288.99998474,920 L298.99998474,920 L299,921 A254.55942332,254.55942332 0 0,1 39,1170 L20,1170 L20,1110 L33,1110 A3,3 0 0,0 39,1110 L39,989.99999461 A3,3 0 0,0 33,990 Z "/>
        <path d="M401,571 A300,300 0 0,0 101,871 "/>
        <line x1="101" y1="871" x2="141" y2="871"/>
        <path d="M141,871 A3,3 0 1,1 141,877 "/>
        <line x1="141" y1="877" x2="141" y2="890"/>
        <line x1="141" y1="890" x2="211" y2="890"/>
        <line x1="211" y1="890" x2="211" y2="877"/>
        <path d="M211,877 A3,3 0 1,1 211,871 "/>
        <line x1="211" y1="871" x2="331.00000539" y2="871"/>
        <path d="M331.00000539,871 A3,3 0 1,1 331,877 "/>
        <line x1="331" y1="877" x2="331" y2="890"/>
        <line x1="331" y1="890" x2="401" y2="890"/>
        <line x1="401" y1="890" x2="420" y2="890"/>
        <line x1="420" y1="890" x2="420" y2="871"/>
        <line x1="420" y1="871" x2="420" y2="801"/>
        <line x1="420" y1="801" x2="406.99999461" y2="801"/>
        <path d="M406.99999461,801 A2.9999973,2.9999973 0 1,1 401,801 "/>
        <line x1="407" y1="680" x2="420" y2="680"/>
        <line x1="420" y1="680" x2="420" y2="610"/>
        <line x1="420" y1="610" x2="407" y2="610"/>
        <path d="M407,610 A3,3 0 1,1 401,610 "/>
        <path d="M401,680.00001526 A3,3 0 1,1 407,680 "/>
        <line x1="401" y1="610" x2="401" y2="571"/>
        <line x1="401" y1="801" x2="401" y2="679.99999684"/>
    </g>
</svg>
